999
dxflib 2.2.0.0
  0
SECTION
  2
HEADER
  9
$ACADVER
  1
AC1015
  9
$HANDSEED
  5
FFFF
  9
$DIMASZ
 40
2.5
  9
$PLIMMIN
 10
0.0
 20
0.0
  9
$DIMEXE
 40
1.25
  9
$DIMGAP
 40
0.625
  9
$PLIMMAX
 10
210.0
 20
297.0
  9
$PINSBASE
 10
163.1502242152464817
 20
101.2197309417040145
 30
0.0
  9
$INSUNITS
 70
4
  9
$DIMSTYLE
  2
Standard
  9
$CLAYER
  8
0
  9
$DIMEXO
 40
0.625
  9
$DIMTXT
 40
2.5
  9
$CLAYER
  8
dimension
  0
ENDSEC
  0
SECTION
  2
TABLES
  0
TABLE
  2
VPORT
  5
8
100
AcDbSymbolTable
 70
1
  0
VPORT
  5
30
100
AcDbSymbolTableRecord
100
AcDbViewportTableRecord
  2
*Active
 70
0
 10
0.0
 20
0.0
 11
1.0
 21
1.0
 12
286.3055555555554861
 22
148.5
 13
0.0
 23
0.0
 14
10.0
 24
10.0
 15
10.0
 25
10.0
 16
0.0
 26
0.0
 36
1.0
 17
0.0
 27
0.0
 37
0.0
 40
297.0
 41
1.92798353909465
 42
50.0
 43
0.0
 44
0.0
 50
0.0
 51
0.0
 71
0
 72
100
 73
1
 74
3
 75
1
 76
1
 77
0
 78
0
281
0
 65
1
110
0.0
120
0.0
130
0.0
111
1.0
121
0.0
131
0.0
112
0.0
122
1.0
132
0.0
 79
0
146
0.0
  0
ENDTAB
  0
TABLE
  2
LTYPE
  5
5
100
AcDbSymbolTable
 70
21
  0
LTYPE
  5
14
100
AcDbSymbolTableRecord
100
AcDbLinetypeTableRecord
  2
ByBlock
 70
0
  3

 72
65
 73
0
 40
0.0
  0
LTYPE
  5
15
100
AcDbSymbolTableRecord
100
AcDbLinetypeTableRecord
  2
ByLayer
 70
0
  3

 72
65
 73
0
 40
0.0
  0
LTYPE
  5
16
100
AcDbSymbolTableRecord
100
AcDbLinetypeTableRecord
  2
CONTINUOUS
 70
0
  3
Solid line
 72
65
 73
0
 40
0.0
  0
LTYPE
  5
31
100
AcDbSymbolTableRecord
100
AcDbLinetypeTableRecord
  2
DOT
 70
0
  3
Dot . . . . . . . . . . . . . . . . . . . . . .
 72
65
 73
2
 40
6.3499999999999996
 49
0.0
 74
0
 49
-6.3499999999999996
 74
0
  0
LTYPE
  5
32
100
AcDbSymbolTableRecord
100
AcDbLinetypeTableRecord
  2
DOT2
 70
0
  3
Dot (.5x) .....................................
 72
65
 73
2
 40
3.1749999999999998
 49
0.0
 74
0
 49
-3.1749999999999998
 74
0
  0
LTYPE
  5
33
100
AcDbSymbolTableRecord
100
AcDbLinetypeTableRecord
  2
DOTX2
 70
0
  3
Dot (2x) .  .  .  .  .  .  .  .  .  .  .  .  .
 72
65
 73
2
 40
12.6999999999999993
 49
0.0
 74
0
 49
-12.6999999999999993
 74
0
  0
LTYPE
  5
34
100
AcDbSymbolTableRecord
100
AcDbLinetypeTableRecord
  2
DASHED
 70
0
  3
Dashed __ __ __ __ __ __ __ __ __ __ __ __ __ _
 72
65
 73
2
 40
19.0500000000000007
 49
12.6999999999999993
 74
0
 49
-6.3499999999999996
 74
0
  0
LTYPE
  5
35
100
AcDbSymbolTableRecord
100
AcDbLinetypeTableRecord
  2
DASHED2
 70
0
  3
Dashed (.5x) _ _ _ _ _ _ _ _ _ _ _ _ _ _ _ _ _
 72
65
 73
2
 40
9.5250000000000004
 49
6.3499999999999996
 74
0
 49
-3.1749999999999998
 74
0
  0
LTYPE
  5
36
100
AcDbSymbolTableRecord
100
AcDbLinetypeTableRecord
  2
DASHEDX2
 70
0
  3
Dashed (2x) ____  ____  ____  ____  ____  ___
 72
65
 73
2
 40
38.1000000000000014
 49
25.3999999999999986
 74
0
 49
-12.6999999999999993
 74
0
  0
LTYPE
  5
37
100
AcDbSymbolTableRecord
100
AcDbLinetypeTableRecord
  2
DASHDOT
 70
0
  3
Dash dot __ . __ . __ . __ . __ . __ . __ . __
 72
65
 73
4
 40
25.3999999999999986
 49
12.6999999999999993
 74
0
 49
-6.3499999999999996
 74
0
 49
0.0
 74
0
 49
-6.3499999999999996
 74
0
  0
LTYPE
  5
38
100
AcDbSymbolTableRecord
100
AcDbLinetypeTableRecord
  2
DASHDOT2
 70
0
  3
Dash dot (.5x) _._._._._._._._._._._._._._._.
 72
65
 73
4
 40
12.6999999999999993
 49
6.3499999999999996
 74
0
 49
-3.1749999999999998
 74
0
 49
0.0
 74
0
 49
-3.1749999999999998
 74
0
  0
LTYPE
  5
39
100
AcDbSymbolTableRecord
100
AcDbLinetypeTableRecord
  2
DASHDOTX2
 70
0
  3
Dash dot (2x) ____  .  ____  .  ____  .  ___
 72
65
 73
4
 40
50.7999999999999972
 49
25.3999999999999986
 74
0
 49
-12.6999999999999993
 74
0
 49
0.0
 74
0
 49
-12.6999999999999993
 74
0
  0
LTYPE
  5
3A
100
AcDbSymbolTableRecord
100
AcDbLinetypeTableRecord
  2
DIVIDE
 70
0
  3
Divide ____ . . ____ . . ____ . . ____ . . ____
 72
65
 73
6
 40
31.75
 49
12.6999999999999993
 74
0
 49
-6.3499999999999996
 74
0
 49
0.0
 74
0
 49
-6.3499999999999996
 74
0
 49
0.0
 74
0
 49
-6.3499999999999996
 74
0
  0
LTYPE
  5
3B
100
AcDbSymbolTableRecord
100
AcDbLinetypeTableRecord
  2
DIVIDE2
 70
0
  3
Divide (.5x) __..__..__..__..__..__..__..__.._
 72
65
 73
6
 40
15.875
 49
6.3499999999999996
 74
0
 49
-3.1749999999999998
 74
0
 49
0.0
 74
0
 49
-3.1749999999999998
 74
0
 49
0.0
 74
0
 49
-3.1749999999999998
 74
0
  0
LTYPE
  5
3C
100
AcDbSymbolTableRecord
100
AcDbLinetypeTableRecord
  2
DIVIDEX2
 70
0
  3
Divide (2x) ________  .  .  ________  .  .  _
 72
65
 73
6
 40
63.5
 49
25.3999999999999986
 74
0
 49
-12.6999999999999993
 74
0
 49
0.0
 74
0
 49
-12.6999999999999993
 74
0
 49
0.0
 74
0
 49
-12.6999999999999993
 74
0
  0
LTYPE
  5
3D
100
AcDbSymbolTableRecord
100
AcDbLinetypeTableRecord
  2
CENTER
 70
0
  3
Center ____ _ ____ _ ____ _ ____ _ ____ _ ____
 72
65
 73
4
 40
50.7999999999999972
 49
31.75
 74
0
 49
-6.3499999999999996
 74
0
 49
6.3499999999999996
 74
0
 49
-6.3499999999999996
 74
0
  0
LTYPE
  5
3E
100
AcDbSymbolTableRecord
100
AcDbLinetypeTableRecord
  2
CENTER2
 70
0
  3
Center (.5x) ___ _ ___ _ ___ _ ___ _ ___ _ ___
 72
65
 73
4
 40
28.5749999999999993
 49
19.0500000000000007
 74
0
 49
-3.1749999999999998
 74
0
 49
3.1749999999999998
 74
0
 49
-3.1749999999999998
 74
0
  0
LTYPE
  5
3F
100
AcDbSymbolTableRecord
100
AcDbLinetypeTableRecord
  2
CENTERX2
 70
0
  3
Center (2x) ________  __  ________  __  _____
 72
65
 73
4
 40
101.5999999999999943
 49
63.5
 74
0
 49
-12.6999999999999993
 74
0
 49
12.6999999999999993
 74
0
 49
-12.6999999999999993
 74
0
  0
LTYPE
  5
40
100
AcDbSymbolTableRecord
100
AcDbLinetypeTableRecord
  2
BORDER
 70
0
  3
Border __ __ . __ __ . __ __ . __ __ . __ __ .
 72
65
 73
6
 40
44.4500000000000028
 49
12.6999999999999993
 74
0
 49
-6.3499999999999996
 74
0
 49
12.6999999999999993
 74
0
 49
-6.3499999999999996
 74
0
 49
0.0
 74
0
 49
-6.3499999999999996
 74
0
  0
LTYPE
  5
41
100
AcDbSymbolTableRecord
100
AcDbLinetypeTableRecord
  2
BORDER2
 70
0
  3
Border (.5x) __.__.__.__.__.__.__.__.__.__.__.
 72
65
 73
6
 40
22.2250000000000014
 49
6.3499999999999996
 74
0
 49
-3.1749999999999998
 74
0
 49
6.3499999999999996
 74
0
 49
-3.1749999999999998
 74
0
 49
0.0
 74
0
 49
-3.1749999999999998
 74
0
  0
LTYPE
  5
42
100
AcDbSymbolTableRecord
100
AcDbLinetypeTableRecord
  2
BORDERX2
 70
0
  3
Border (2x) ____  ____  .  ____  ____  .  ___
 72
65
 73
6
 40
88.9000000000000057
 49
25.3999999999999986
 74
0
 49
-12.6999999999999993
 74
0
 49
25.3999999999999986
 74
0
 49
-12.6999999999999993
 74
0
 49
0.0
 74
0
 49
-12.6999999999999993
 74
0
  0
ENDTAB
  0
TABLE
  2
LAYER
  5
2
100
AcDbSymbolTable
 70
13
  0
LAYER
  5
10
100
AcDbSymbolTableRecord
100
AcDbLayerTableRecord
  2
0
 70
0
 62
7
420
0
  6
CONTINUOUS
370
-3
390
F
  0
LAYER
  5
43
100
AcDbSymbolTableRecord
100
AcDbLayerTableRecord
  2
help
 70
0
 62
6
420
16711935
  6
CONTINUOUS
370
0
390
F
  0
LAYER
  5
44
100
AcDbSymbolTableRecord
100
AcDbLayerTableRecord
  2
dimension
 70
0
 62
4
420
65535
  6
CONTINUOUS
370
0
390
F
  0
LAYER
  5
45
100
AcDbSymbolTableRecord
100
AcDbLayerTableRecord
  2
arm
 70
0
 62
7
420
0
  6
CONTINUOUS
370
0
390
F
  0
LAYER
  5
46
100
AcDbSymbolTableRecord
100
AcDbLayerTableRecord
  2
arm_down
 70
0
 62
6
420
16711935
  6
CONTINUOUS
370
0
390
F
  0
LAYER
  5
47
100
AcDbSymbolTableRecord
100
AcDbLayerTableRecord
  2
arm_up
 70
0
 62
6
420
16711935
  6
CONTINUOUS
370
0
390
F
  0
LAYER
  5
48
100
AcDbSymbolTableRecord
100
AcDbLayerTableRecord
  2
ball
 70
0
 62
7
420
0
  6
CONTINUOUS
370
0
390
F
  0
LAYER
  5
49
100
AcDbSymbolTableRecord
100
AcDbLayerTableRecord
  2
motor
 70
0
 62
7
420
0
  6
CONTINUOUS
370
0
390
F
  0
LAYER
  5
4A
100
AcDbSymbolTableRecord
100
AcDbLayerTableRecord
  2
legs
 70
0
 62
7
420
0
  6
CONTINUOUS
370
0
390
F
  0
LAYER
  5
4B
100
AcDbSymbolTableRecord
100
AcDbLayerTableRecord
  2
gear
 70
0
 62
6
420
16711935
  6
CONTINUOUS
370
0
390
F
  0
LAYER
  5
4C
100
AcDbSymbolTableRecord
100
AcDbLayerTableRecord
  2
help2
 70
1
 62
-7
420
0
  6
CONTINUOUS
370
200
390
F
  0
LAYER
  5
4D
100
AcDbSymbolTableRecord
100
AcDbLayerTableRecord
  2
motor mount
 70
0
 62
7
420
0
  6
CONTINUOUS
370
0
390
F
  0
LAYER
  5
4E
100
AcDbSymbolTableRecord
100
AcDbLayerTableRecord
  2
batteryholder
 70
0
 62
7
420
0
  6
CONTINUOUS
370
0
390
F
  0
ENDTAB
  0
TABLE
  2
STYLE
  5
3
100
AcDbSymbolTable
 70
1
  0
STYLE
  5
11
100
AcDbSymbolTableRecord
100
AcDbTextStyleTableRecord
  2
Standard
 70
0
 40
0.0
 41
0.75
 50
0.0
 71
0
 42
2.5
  3
txt
  4

  0
ENDTAB
  0
TABLE
  2
VIEW
  5
6
100
AcDbSymbolTable
 70
0
  0
ENDTAB
  0
TABLE
  2
UCS
  5
7
100
AcDbSymbolTable
 70
0
  0
ENDTAB
  0
TABLE
  2
APPID
  5
9
100
AcDbSymbolTable
 70
1
  0
APPID
  5
12
100
AcDbSymbolTableRecord
100
AcDbRegAppTableRecord
  2
ACAD
 70
0
  0
ENDTAB
  0
TABLE
  2
DIMSTYLE
  5
A
100
AcDbSymbolTable
 70
1
100
AcDbDimStyleTable
 71
0
  0
DIMSTYLE
105
27
100
AcDbSymbolTableRecord
100
AcDbDimStyleTableRecord
  2
Standard
 41
2.5
 42
0.625
 43
3.75
 44
1.25
 70
0
 73
0
 74
0
 77
1
 78
8
140
2.5
141
2.5
143
0.03937007874016
147
0.625
171
3
172
1
271
2
272
2
274
3
278
44
283
0
284
8
340
11
  0
ENDTAB
  0
TABLE
  2
BLOCK_RECORD
  5
1
100
AcDbSymbolTable
 70
1
  0
BLOCK_RECORD
  5
1F
100
AcDbSymbolTableRecord
100
AcDbBlockTableRecord
  2
*Model_Space
340
22
  0
BLOCK_RECORD
  5
1B
100
AcDbSymbolTableRecord
100
AcDbBlockTableRecord
  2
*Paper_Space
340
1E
  0
BLOCK_RECORD
  5
23
100
AcDbSymbolTableRecord
100
AcDbBlockTableRecord
  2
*Paper_Space0
340
26
  0
ENDTAB
  0
ENDSEC
  0
SECTION
  2
BLOCKS
  0
BLOCK
  5
20
100
AcDbEntity
  8
0
100
AcDbBlockBegin
  2
*Model_Space
 70
0
 10
0.0
 20
0.0
 30
0.0
  3
*Model_Space
  1

  0
ENDBLK
  5
21
100
AcDbEntity
  8
0
100
AcDbBlockEnd
  0
BLOCK
  5
1C
100
AcDbEntity
 67
1
  8
0
100
AcDbBlockBegin
  2
*Paper_Space
 70
0
 10
0.0
 20
0.0
 30
0.0
  3
*Paper_Space
  1

  0
ENDBLK
  5
1D
100
AcDbEntity
 67
1
  8
0
100
AcDbBlockEnd
  0
BLOCK
  5
24
100
AcDbEntity
  8
0
100
AcDbBlockBegin
  2
*Paper_Space0
 70
0
 10
0.0
 20
0.0
 30
0.0
  3
*Paper_Space0
  1

  0
ENDBLK
  5
25
100
AcDbEntity
  8
0
100
AcDbBlockEnd
  0
ENDSEC
  0
SECTION
  2
ENTITIES
  0
CIRCLE
  5
4F
100
AcDbEntity
100
AcDbCircle
  8
0
 62
256
370
-1
  6
ByLayer
 10
10.0
 20
10.0
 30
0.0
 40
5.0
  0
LINE
  5
50
100
AcDbEntity
100
AcDbLine
  8
0
 62
256
370
-1
  6
ByLayer
 10
-1.0
 20
5.0
 30
0.0
 11
43.0
 21
5.0
 31
0.0
  0
LINE
  5
51
100
AcDbEntity
100
AcDbLine
  8
0
 62
256
370
-1
  6
ByLayer
 10
43.0
 20
7.0
 30
0.0
 11
-1.0
 21
7.0
 31
0.0
  0
LINE
  5
52
100
AcDbEntity
100
AcDbLine
  8
0
 62
256
370
-1
  6
ByLayer
 10
-1.0
 20
13.0
 30
0.0
 11
43.0
 21
13.0
 31
0.0
  0
LINE
  5
53
100
AcDbEntity
100
AcDbLine
  8
0
 62
256
370
-1
  6
ByLayer
 10
43.0
 20
15.0
 30
0.0
 11
-1.0
 21
15.0
 31
0.0
  0
CIRCLE
  5
54
100
AcDbEntity
100
AcDbCircle
  8
0
 62
256
370
-1
  6
ByLayer
 10
60.0
 20
10.0
 30
0.0
 40
5.0
  0
CIRCLE
  5
55
100
AcDbEntity
100
AcDbCircle
  8
0
 62
256
370
-1
  6
ByLayer
 10
56.0000000000000071
 20
5.5
 30
0.0
 40
1.0
  0
CIRCLE
  5
56
100
AcDbEntity
100
AcDbCircle
  8
0
 62
256
370
-1
  6
ByLayer
 10
64.0
 20
5.5
 30
0.0
 40
1.0
  0
DIMENSION
  5
57
100
AcDbEntity
  8
dimension
 62
256
370
-1
  6
ByLayer
100
AcDbDimension
 10
65.0
 20
16.0
 30
0.0
 11
60.0
 21
17.875
 31
0.0
 70
0
 71
5
 72
1
 41
1.0
 42
0.0
  1

  3
Standard
100
AcDbAlignedDimension
 13
55.0
 23
10.0
 33
0.0
 14
65.0
 24
10.0
 34
0.0
 50
0.0
100
AcDbRotatedDimension
  0
DIMENSION
  5
58
100
AcDbEntity
  8
dimension
 62
256
370
-1
  6
ByLayer
100
AcDbDimension
 10
64.0
 20
0.0
 30
0.0
 11
60.0
 21
1.875
 31
0.0
 70
0
 71
5
 72
1
 41
1.0
 42
0.0
  1

  3
Standard
100
AcDbAlignedDimension
 13
56.0000000000000071
 23
5.5
 33
0.0
 14
64.0
 24
5.5
 34
0.0
 50
0.0
100
AcDbRotatedDimension
  0
ARC
  5
59
100
AcDbEntity
  8
0
 62
256
370
-1
  6
ByLayer
100
AcDbCircle
 10
300.0
 20
75.0
 30
0.0
 40
75.0
100
AcDbArc
 50
90.0
 51
270.0
  0
ARC
  5
5A
100
AcDbEntity
  8
0
 62
256
370
-1
  6
ByLayer
100
AcDbCircle
 10
400.0
 20
75.0
 30
0.0
 40
75.0
100
AcDbArc
 50
270.0
 51
90.0
  0
ARC
  5
5B
100
AcDbEntity
  8
0
 62
256
370
-1
  6
ByLayer
100
AcDbCircle
 10
300.0
 20
75.0
 30
0.0
 40
73.0
100
AcDbArc
 50
90.0
 51
270.0
  0
ARC
  5
5C
100
AcDbEntity
  8
0
 62
256
370
-1
  6
ByLayer
100
AcDbCircle
 10
400.0
 20
75.0
 30
0.0
 40
73.0
100
AcDbArc
 50
270.0
 51
90.0
  0
LINE
  5
5D
100
AcDbEntity
100
AcDbLine
  8
0
 62
256
370
-1
  6
ByLayer
 10
300.0
 20
0.0
 30
0.0
 11
400.0
 21
0.0
 31
0.0
  0
LINE
  5
5E
100
AcDbEntity
100
AcDbLine
  8
0
 62
256
370
-1
  6
ByLayer
 10
300.0
 20
150.0
 30
0.0
 11
400.0
 21
150.0
 31
0.0
  0
LINE
  5
5F
100
AcDbEntity
100
AcDbLine
  8
0
 62
256
370
-1
  6
ByLayer
 10
300.0
 20
148.0
 30
0.0
 11
400.0
 21
148.0
 31
0.0
  0
LINE
  5
60
100
AcDbEntity
100
AcDbLine
  8
0
 62
256
370
-1
  6
ByLayer
 10
300.0
 20
2.0
 30
0.0
 11
400.0
 21
2.0
 31
0.0
  0
LINE
  5
61
100
AcDbEntity
100
AcDbLine
  8
0
 62
256
370
-1
  6
ByLayer
 10
300.0
 20
10.0
 30
0.0
 11
400.0
 21
10.0
 31
0.0
  0
LINE
  5
62
100
AcDbEntity
100
AcDbLine
  8
0
 62
256
370
-1
  6
ByLayer
 10
300.0
 20
140.0
 30
0.0
 11
400.0
 21
140.0
 31
0.0
  0
LINE
  5
63
100
AcDbEntity
100
AcDbLine
  8
0
 62
256
370
-1
  6
ByLayer
 10
300.0
 20
142.0
 30
0.0
 11
400.0
 21
142.0
 31
0.0
  0
LINE
  5
64
100
AcDbEntity
100
AcDbLine
  8
0
 62
256
370
-1
  6
ByLayer
 10
300.0
 20
8.0
 30
0.0
 11
400.0
 21
8.0
 31
0.0
  0
ARC
  5
65
100
AcDbEntity
  8
0
 62
256
370
-1
  6
ByLayer
100
AcDbCircle
 10
300.0
 20
75.0
 30
0.0
 40
67.0
100
AcDbArc
 50
90.0
 51
270.0
  0
ARC
  5
66
100
AcDbEntity
  8
0
 62
256
370
-1
  6
ByLayer
100
AcDbCircle
 10
400.0
 20
75.0
 30
0.0
 40
67.0
100
AcDbArc
 50
270.0
 51
90.0
  0
ARC
  5
67
100
AcDbEntity
  8
0
 62
256
370
-1
  6
ByLayer
100
AcDbCircle
 10
300.0
 20
75.0
 30
0.0
 40
65.0
100
AcDbArc
 50
90.0
 51
270.0
  0
ARC
  5
68
100
AcDbEntity
  8
0
 62
256
370
-1
  6
ByLayer
100
AcDbCircle
 10
400.0
 20
75.0
 30
0.0
 40
65.0
100
AcDbArc
 50
270.0
 51
90.0
  0
CIRCLE
  5
69
100
AcDbEntity
100
AcDbCircle
  8
0
 62
256
370
-1
  6
ByLayer
 10
323.0
 20
5.0
 30
0.0
 40
5.0
  0
DIMENSION
  5
6A
100
AcDbEntity
  8
dimension
 62
256
370
-1
  6
ByLayer
100
AcDbDimension
 10
220.0
 20
10.0000000000000107
 30
0.0
 11
218.125
 21
75.0
 31
0.0
 70
0
 71
5
 72
1
 41
1.0
 42
0.0
  1

  3
Standard
100
AcDbAlignedDimension
 13
300.0
 23
140.0
 33
0.0
 14
300.0
 24
10.0
 34
0.0
 50
90.0
100
AcDbRotatedDimension
  0
DIMENSION
  5
6B
100
AcDbEntity
  8
dimension
 62
256
370
-1
  6
ByLayer
100
AcDbDimension
 10
210.0
 20
2.0000000000000111
 30
0.0
 11
208.125
 21
75.0
 31
0.0
 70
0
 71
5
 72
1
 41
1.0
 42
0.0
  1

  3
Standard
100
AcDbAlignedDimension
 13
300.0
 23
148.0
 33
0.0
 14
300.0
 24
2.0
 34
0.0
 50
90.0
100
AcDbRotatedDimension
  0
DIMENSION
  5
6C
100
AcDbEntity
  8
dimension
 62
256
370
-1
  6
ByLayer
100
AcDbDimension
 10
475.0
 20
-10.0
 30
0.0
 11
350.0
 21
-8.125
 31
0.0
 70
0
 71
5
 72
1
 41
1.0
 42
0.0
  1

  3
Standard
100
AcDbAlignedDimension
 13
225.0
 23
75.0000000000000142
 33
0.0
 14
475.0
 24
75.0
 34
0.0
 50
0.0
100
AcDbRotatedDimension
  0
DIMENSION
  5
6D
100
AcDbEntity
  8
dimension
 62
256
370
-1
  6
ByLayer
100
AcDbDimension
 10
51.0
 20
5.5000000000000009
 30
0.0
 11
49.125
 21
7.75
 31
0.0
 70
0
 71
5
 72
1
 41
1.0
 42
0.0
  1

  3
Standard
100
AcDbAlignedDimension
 13
60.0
 23
10.0
 33
0.0
 14
56.0000000000000071
 24
5.5
 34
0.0
 50
90.0
100
AcDbRotatedDimension
  0
DIMENSION
  5
6E
100
AcDbEntity
  8
dimension
 62
256
370
-1
  6
ByLayer
100
AcDbDimension
 10
400.0
 20
20.0
 30
0.0
 11
350.0
 21
21.875
 31
0.0
 70
0
 71
5
 72
1
 41
1.0
 42
0.0
  1

  3
Standard
100
AcDbAlignedDimension
 13
300.0
 23
10.0
 33
0.0
 14
400.0
 24
10.0
 34
0.0
 50
0.0
100
AcDbRotatedDimension
  0
LINE
  5
6F
100
AcDbEntity
100
AcDbLine
  8
arm_down
 62
256
370
-1
  6
ByLayer
 10
39.386123578497731
 20
-42.8240298279932148
 30
0.0
 11
16.3256471048055118
 21
-18.4680362164345269
 31
0.0
  0
LINE
  5
70
100
AcDbEntity
100
AcDbLine
  8
arm_down
 62
256
370
-1
  6
ByLayer
 10
16.3256471048055118
 20
-18.4680362164345269
 30
0.0
 11
6.4968818509909383
 21
-30.8533248115948098
 31
0.0
  0
LINE
  5
71
100
AcDbEntity
100
AcDbLine
  8
arm_down
 62
256
370
-1
  6
ByLayer
 10
6.4968818509909383
 20
-30.8533248115948098
 30
0.0
 11
39.386123578497731
 21
-42.8240298279932148
 31
0.0
  0
CIRCLE
  5
72
100
AcDbEntity
100
AcDbCircle
  8
arm_down
 62
256
370
-1
  6
ByLayer
 10
10.0
 20
-30.0
 30
0.0
 40
1.5
  0
CIRCLE
  5
73
100
AcDbEntity
100
AcDbCircle
  8
arm_down
 62
256
370
-1
  6
ByLayer
 10
16.2392792956144127
 20
-21.6291342221179264
 30
0.0
 40
1.5
  0
LINE
  5
74
100
AcDbEntity
100
AcDbLine
  8
arm_up
 62
256
370
-1
  6
ByLayer
 10
85.7989973991803794
 20
-10.9628853762687015
 30
0.0
 11
53.1758499603129522
 21
-18.7558470200802105
 31
0.0
  0
LINE
  5
75
100
AcDbEntity
100
AcDbLine
  8
arm_up
 62
256
370
-1
  6
ByLayer
 10
53.1758499603129522
 20
-18.7558470200802105
 30
0.0
 11
58.987441890016143
 21
-33.4604517152975802
 31
0.0
  0
LINE
  5
76
100
AcDbEntity
100
AcDbLine
  8
arm_up
 62
256
370
-1
  6
ByLayer
 10
58.987441890016143
 20
-33.4604517152975802
 30
0.0
 11
85.7989973991803794
 21
-10.9628853762687015
 31
0.0
  0
CIRCLE
  5
77
100
AcDbEntity
100
AcDbCircle
  8
arm_up
 62
256
370
-1
  6
ByLayer
 10
60.0
 20
-30.0
 30
0.0
 40
1.5
  0
CIRCLE
  5
78
100
AcDbEntity
100
AcDbCircle
  8
arm_up
 62
256
370
-1
  6
ByLayer
 10
55.8702572324915394
 20
-20.4111927397506037
 30
0.0
 40
1.5
  0
LINE
  5
79
100
AcDbEntity
100
AcDbLine
  8
motor
 62
256
370
-1
  6
ByLayer
 10
10.0
 20
-60.0
 30
0.0
 11
22.0
 21
-60.0
 31
0.0
  0
LINE
  5
7A
100
AcDbEntity
100
AcDbLine
  8
motor
 62
256
370
-1
  6
ByLayer
 10
22.0
 20
-60.0
 30
0.0
 11
22.0
 21
-50.0
 31
0.0
  0
LINE
  5
7B
100
AcDbEntity
100
AcDbLine
  8
motor
 62
256
370
-1
  6
ByLayer
 10
22.0
 20
-50.0
 30
0.0
 11
10.0
 21
-50.0
 31
0.0
  0
LINE
  5
7C
100
AcDbEntity
100
AcDbLine
  8
motor
 62
256
370
-1
  6
ByLayer
 10
10.0
 20
-50.0
 30
0.0
 11
10.0
 21
-60.0
 31
0.0
  0
CIRCLE
  5
7D
100
AcDbEntity
100
AcDbCircle
  8
motor
 62
256
370
-1
  6
ByLayer
 10
16.0
 20
-55.0
 30
0.0
 40
1.5
  0
CIRCLE
  5
7E
100
AcDbEntity
100
AcDbCircle
  8
motor
 62
256
370
-1
  6
ByLayer
 10
20.5
 20
-55.0
 30
0.0
 40
0.8
  0
CIRCLE
  5
7F
100
AcDbEntity
100
AcDbCircle
  8
motor
 62
256
370
-1
  6
ByLayer
 10
11.5
 20
-55.0
 30
0.0
 40
0.8
  0
LINE
  5
80
100
AcDbEntity
100
AcDbLine
  8
legs
 62
256
370
-1
  6
ByLayer
 10
80.0
 20
30.0
 30
0.0
 11
82.0
 21
30.0
 31
0.0
  0
LINE
  5
81
100
AcDbEntity
100
AcDbLine
  8
legs
 62
256
370
-1
  6
ByLayer
 10
109.0
 20
30.0
 30
0.0
 11
111.0
 21
30.0
 31
0.0
  0
LINE
  5
82
100
AcDbEntity
100
AcDbLine
  8
0
 62
256
370
-1
  6
ByLayer
 10
130.0
 20
30.0
 30
0.0
 11
-40.0
 21
30.0
 31
0.0
  0
LINE
  5
83
100
AcDbEntity
100
AcDbLine
  8
motor
 62
256
370
-1
  6
ByLayer
 10
0.0
 20
40.0
 30
0.0
 11
12.0
 21
40.0
 31
0.0
  0
LINE
  5
84
100
AcDbEntity
100
AcDbLine
  8
motor
 62
256
370
-1
  6
ByLayer
 10
12.0
 20
40.0
 30
0.0
 11
12.0
 21
50.0
 31
0.0
  0
LINE
  5
85
100
AcDbEntity
100
AcDbLine
  8
motor
 62
256
370
-1
  6
ByLayer
 10
12.0
 20
50.0
 30
0.0
 11
0.0
 21
50.0
 31
0.0
  0
LINE
  5
86
100
AcDbEntity
100
AcDbLine
  8
motor
 62
256
370
-1
  6
ByLayer
 10
0.0
 20
50.0
 30
0.0
 11
0.0
 21
40.0
 31
0.0
  0
CIRCLE
  5
87
100
AcDbEntity
100
AcDbCircle
  8
motor
 62
256
370
-1
  6
ByLayer
 10
6.0
 20
45.0
 30
0.0
 40
1.5
  0
CIRCLE
  5
88
100
AcDbEntity
100
AcDbCircle
  8
motor
 62
256
370
-1
  6
ByLayer
 10
10.5
 20
45.0
 30
0.0
 40
0.8
  0
CIRCLE
  5
89
100
AcDbEntity
100
AcDbCircle
  8
motor
 62
256
370
-1
  6
ByLayer
 10
1.5
 20
45.0
 30
0.0
 40
0.8
  0
LINE
  5
8A
100
AcDbEntity
100
AcDbLine
  8
help2
 62
256
370
-1
  6
ByLayer
 10
114.0
 20
132.0
 30
0.0
 11
112.0
 21
140.0
 31
0.0
  0
LINE
  5
8B
100
AcDbEntity
100
AcDbLine
  8
help2
 62
256
370
-1
  6
ByLayer
 10
120.0
 20
140.0
 30
0.0
 11
118.0
 21
132.0
 31
0.0
  0
LINE
  5
8C
100
AcDbEntity
100
AcDbLine
  8
help2
 62
256
370
-1
  6
ByLayer
 10
122.0
 20
100.0
 30
0.0
 11
118.0
 21
108.0
 31
0.0
  0
LINE
  5
8D
100
AcDbEntity
100
AcDbLine
  8
help2
 62
256
370
-1
  6
ByLayer
 10
110.0
 20
100.0
 30
0.0
 11
114.0
 21
108.0
 31
0.0
  0
LINE
  5
8E
100
AcDbEntity
100
AcDbLine
  8
help2
 62
256
370
-1
  6
ByLayer
 10
114.0
 20
108.0
 30
0.0
 11
118.0
 21
108.0
 31
0.0
  0
LINE
  5
8F
100
AcDbEntity
100
AcDbLine
  8
help2
 62
256
370
-1
  6
ByLayer
 10
114.0
 20
132.0
 30
0.0
 11
118.0
 21
132.0
 31
0.0
  0
LINE
  5
90
100
AcDbEntity
100
AcDbLine
  8
help2
 62
256
370
-1
  6
ByLayer
 10
114.0
 20
132.0
 30
0.0
 11
114.0
 21
108.0
 31
0.0
  0
LINE
  5
91
100
AcDbEntity
100
AcDbLine
  8
help2
 62
256
370
-1
  6
ByLayer
 10
118.0
 20
132.0
 30
0.0
 11
118.0
 21
108.0
 31
0.0
  0
LINE
  5
92
100
AcDbEntity
100
AcDbLine
  8
help2
 62
256
370
-1
  6
ByLayer
 10
84.0
 20
124.0
 30
0.0
 11
82.0
 21
130.0
 31
0.0
  0
LINE
  5
93
100
AcDbEntity
100
AcDbLine
  8
help2
 62
256
370
-1
  6
ByLayer
 10
90.0
 20
130.0
 30
0.0
 11
88.0
 21
124.0
 31
0.0
  0
LINE
  5
94
100
AcDbEntity
100
AcDbLine
  8
help2
 62
256
370
-1
  6
ByLayer
 10
92.0
 20
100.0
 30
0.0
 11
88.0
 21
106.0
 31
0.0
  0
LINE
  5
95
100
AcDbEntity
100
AcDbLine
  8
help2
 62
256
370
-1
  6
ByLayer
 10
80.0
 20
100.0
 30
0.0
 11
84.0
 21
106.0
 31
0.0
  0
LINE
  5
96
100
AcDbEntity
100
AcDbLine
  8
help2
 62
256
370
-1
  6
ByLayer
 10
84.0
 20
106.0
 30
0.0
 11
88.0
 21
106.0
 31
0.0
  0
LINE
  5
97
100
AcDbEntity
100
AcDbLine
  8
help2
 62
256
370
-1
  6
ByLayer
 10
84.0
 20
124.0
 30
0.0
 11
88.0
 21
124.0
 31
0.0
  0
LINE
  5
98
100
AcDbEntity
100
AcDbLine
  8
help2
 62
256
370
-1
  6
ByLayer
 10
84.0
 20
124.0
 30
0.0
 11
84.0
 21
106.0
 31
0.0
  0
LINE
  5
99
100
AcDbEntity
100
AcDbLine
  8
help2
 62
256
370
-1
  6
ByLayer
 10
88.0
 20
124.0
 30
0.0
 11
88.0
 21
106.0
 31
0.0
  0
LINE
  5
9A
100
AcDbEntity
100
AcDbLine
  8
help2
 62
256
370
-1
  6
ByLayer
 10
54.0
 20
116.0
 30
0.0
 11
52.0
 21
120.0
 31
0.0
  0
LINE
  5
9B
100
AcDbEntity
100
AcDbLine
  8
help2
 62
256
370
-1
  6
ByLayer
 10
60.0
 20
120.0
 30
0.0
 11
58.0
 21
116.0
 31
0.0
  0
LINE
  5
9C
100
AcDbEntity
100
AcDbLine
  8
help2
 62
256
370
-1
  6
ByLayer
 10
62.0
 20
100.0
 30
0.0
 11
58.0
 21
104.0
 31
0.0
  0
LINE
  5
9D
100
AcDbEntity
100
AcDbLine
  8
help2
 62
256
370
-1
  6
ByLayer
 10
50.0
 20
100.0
 30
0.0
 11
54.0
 21
104.0
 31
0.0
  0
LINE
  5
9E
100
AcDbEntity
100
AcDbLine
  8
help2
 62
256
370
-1
  6
ByLayer
 10
54.0
 20
104.0
 30
0.0
 11
58.0
 21
104.0
 31
0.0
  0
LINE
  5
9F
100
AcDbEntity
100
AcDbLine
  8
help2
 62
256
370
-1
  6
ByLayer
 10
54.0
 20
116.0
 30
0.0
 11
58.0
 21
116.0
 31
0.0
  0
LINE
  5
A0
100
AcDbEntity
100
AcDbLine
  8
help2
 62
256
370
-1
  6
ByLayer
 10
54.0
 20
116.0
 30
0.0
 11
54.0
 21
104.0
 31
0.0
  0
LINE
  5
A1
100
AcDbEntity
100
AcDbLine
  8
help2
 62
256
370
-1
  6
ByLayer
 10
58.0
 20
116.0
 30
0.0
 11
58.0
 21
104.0
 31
0.0
  0
LINE
  5
A2
100
AcDbEntity
100
AcDbLine
  8
help2
 62
256
370
-1
  6
ByLayer
 10
24.0
 20
108.0
 30
0.0
 11
22.0
 21
110.0
 31
0.0
  0
LINE
  5
A3
100
AcDbEntity
100
AcDbLine
  8
help2
 62
256
370
-1
  6
ByLayer
 10
30.0
 20
110.0
 30
0.0
 11
28.0
 21
108.0
 31
0.0
  0
LINE
  5
A4
100
AcDbEntity
100
AcDbLine
  8
help2
 62
256
370
-1
  6
ByLayer
 10
32.0
 20
100.0
 30
0.0
 11
28.0
 21
102.0
 31
0.0
  0
LINE
  5
A5
100
AcDbEntity
100
AcDbLine
  8
help2
 62
256
370
-1
  6
ByLayer
 10
20.0
 20
100.0
 30
0.0
 11
24.0
 21
102.0
 31
0.0
  0
LINE
  5
A6
100
AcDbEntity
100
AcDbLine
  8
help2
 62
256
370
-1
  6
ByLayer
 10
24.0
 20
102.0
 30
0.0
 11
28.0
 21
102.0
 31
0.0
  0
LINE
  5
A7
100
AcDbEntity
100
AcDbLine
  8
help2
 62
256
370
-1
  6
ByLayer
 10
24.0
 20
108.0
 30
0.0
 11
28.0
 21
108.0
 31
0.0
  0
LINE
  5
A8
100
AcDbEntity
100
AcDbLine
  8
help2
 62
256
370
-1
  6
ByLayer
 10
24.0
 20
108.0
 30
0.0
 11
24.0
 21
102.0
 31
0.0
  0
LINE
  5
A9
100
AcDbEntity
100
AcDbLine
  8
help2
 62
256
370
-1
  6
ByLayer
 10
28.0
 20
108.0
 30
0.0
 11
28.0
 21
102.0
 31
0.0
  0
DIMENSION
  5
AA
100
AcDbEntity
  8
dimension
 62
256
370
-1
  6
ByLayer
100
AcDbDimension
 10
-0.0000000000000003
 20
24.6002366863906801
 30
0.0
 11
30.0
 21
26.4752366863906801
 31
0.0
 70
0
 71
5
 72
0
 41
1.0
 42
0.0
  1

  3
Standard
100
AcDbAlignedDimension
 13
60.0
 23
30.0
 33
0.0
 14
0.0
 24
30.0
 34
0.0
 50
0.0
100
AcDbRotatedDimension
  0
DIMENSION
  5
AB
100
AcDbEntity
  8
dimension
 62
256
370
-1
  6
ByLayer
100
AcDbDimension
 10
330.0
 20
120.0
 30
0.0
 11
360.0
 21
121.875
 31
0.0
 70
0
 71
5
 72
0
 41
1.0
 42
0.0
  1

  3
Standard
100
AcDbAlignedDimension
 13
390.0
 23
130.0
 33
0.0
 14
330.0
 24
130.0
 34
0.0
 50
0.0
100
AcDbRotatedDimension
  0
LINE
  5
AC
100
AcDbEntity
100
AcDbLine
  8
help
 62
256
370
-1
  6
ByLayer
 10
330.0
 20
160.0
 30
0.0
 11
330.0
 21
129.375
 31
0.0
  0
LINE
  5
AD
100
AcDbEntity
100
AcDbLine
  8
help
 62
256
370
-1
  6
ByLayer
 10
320.0
 20
160.0
 30
0.0
 11
320.0
 21
130.0
 31
0.0
  0
DIMENSION
  5
AE
100
AcDbEntity
  8
dimension
 62
256
370
-1
  6
ByLayer
100
AcDbDimension
 10
400.0
 20
154.0
 30
0.0
 11
365.0
 21
155.875
 31
0.0
 70
0
 71
5
 72
0
 41
1.0
 42
0.0
  1

  3
Standard
100
AcDbAlignedDimension
 13
330.0
 23
150.0
 33
0.0
 14
400.0
 24
150.0
 34
0.0
 50
0.0
100
AcDbRotatedDimension
  0
DIMENSION
  5
AF
100
AcDbEntity
  8
dimension
 62
256
370
-1
  6
ByLayer
100
AcDbDimension
 10
300.0
 20
154.0
 30
0.0
 11
310.0
 21
155.875
 31
0.0
 70
0
 71
5
 72
0
 41
1.0
 42
0.0
  1

  3
Standard
100
AcDbAlignedDimension
 13
320.0
 23
154.0
 33
0.0
 14
300.0
 24
150.0
 34
0.0
 50
0.0
100
AcDbRotatedDimension
  0
LINE
  5
B0
100
AcDbEntity
100
AcDbLine
  8
help
 62
256
370
-1
  6
ByLayer
 10
300.0
 20
160.0
 30
0.0
 11
300.0
 21
130.0
 31
0.0
  0
LINE
  5
B1
100
AcDbEntity
100
AcDbLine
  8
help
 62
256
370
-1
  6
ByLayer
 10
300.0
 20
-10.0
 30
0.0
 11
300.0
 21
15.9375
 31
0.0
  0
LINE
  5
B2
100
AcDbEntity
100
AcDbLine
  8
help
 62
256
370
-1
  6
ByLayer
 10
250.0
 20
75.0
 30
0.0
 11
221.0
 21
75.0
 31
0.0
  0
LINE
  5
B3
100
AcDbEntity
100
AcDbLine
  8
help
 62
256
370
-1
  6
ByLayer
 10
400.0
 20
15.0
 30
0.0
 11
400.0
 21
-10.0
 31
0.0
  0
LINE
  5
B4
100
AcDbEntity
100
AcDbLine
  8
help
 62
256
370
-1
  6
ByLayer
 10
455.0
 20
75.0
 30
0.0
 11
479.0
 21
75.0
 31
0.0
  0
LINE
  5
B5
100
AcDbEntity
100
AcDbLine
  8
help
 62
256
370
-1
  6
ByLayer
 10
400.0
 20
154.0
 30
0.0
 11
400.0
 21
130.0
 31
0.0
  0
MTEXT
  5
B6
100
AcDbEntity
100
AcDbMText
  8
help
 62
256
370
-1
  6
ByLayer
 10
328.0
 20
170.0
 30
0.0
 40
3.0
 41
100.0
 71
1
 72
2
  1
3.0
  7
standard
 50
0.0
 73
0
 44
1.0
  0
ARC
  5
B7
100
AcDbEntity
  8
help2
 62
256
370
-1
  6
ByLayer
100
AcDbCircle
 10
-4.0
 20
131.0
 30
0.0
 40
4.1231056256176606
100
AcDbArc
 50
194.0362434679264823
 51
345.9637565320734893
  0
ARC
  5
B8
100
AcDbEntity
  8
help2
 62
256
370
-1
  6
ByLayer
100
AcDbCircle
 10
-43.0
 20
118.0
 30
0.0
 40
37.0
100
AcDbArc
 50
330.945395900922847
 51
18.9246444160512368
  0
ARC
  5
B9
100
AcDbEntity
  8
help2
 62
256
370
-1
  6
ByLayer
100
AcDbCircle
 10
35.0
 20
118.0000000000000995
 30
0.0
 40
37.0
100
AcDbArc
 50
161.075355583948749
 51
209.0546040990771246
  0
ARC
  5
BA
100
AcDbEntity
  8
help2
 62
256
370
-1
  6
ByLayer
100
AcDbCircle
 10
-4.0
 20
105.0
 30
0.0
 40
4.1231056256176606
100
AcDbArc
 50
14.036243467926484
 51
165.9637565320735177
  0
ARC
  5
BB
100
AcDbEntity
  8
help2
 62
256
370
-1
  6
ByLayer
100
AcDbCircle
 10
-76.3738184254386425
 20
115.8887878280336139
 30
0.0
 40
29.3948295008112765
100
AcDbArc
 50
327.2756032888384539
 51
21.3701104045511485
  0
ARC
  5
BC
100
AcDbEntity
  8
help2
 62
256
370
-1
  6
ByLayer
100
AcDbCircle
 10
-13.6261815745613575
 20
115.8887878280337134
 30
0.0
 40
29.3948295008112765
100
AcDbArc
 50
158.6298895954487591
 51
212.7243967111615461
  0
ARC
  5
BD
100
AcDbEntity
  8
help2
 62
256
370
-1
  6
ByLayer
100
AcDbCircle
 10
-45.0
 20
127.5999999999999943
 30
0.0
 40
4.1231056256176402
100
AcDbArc
 50
194.0362434679264823
 51
345.963756532075422
  0
ARC
  5
BE
100
AcDbEntity
  8
help2
 62
256
370
-1
  6
ByLayer
100
AcDbCircle
 10
-45.0
 20
104.0
 30
0.0
 40
4.1484937025383104
100
AcDbArc
 50
19.7468366054261821
 51
158.962488974578207
  0
ARC
  5
BF
100
AcDbEntity
  8
help2
 62
256
370
-1
  6
ByLayer
100
AcDbCircle
 10
-84.0
 20
131.0
 30
0.0
 40
4.1231056256176402
100
AcDbArc
 50
194.0362434679264823
 51
345.963756532075422
  0
ARC
  5
C0
100
AcDbEntity
  8
help2
 62
256
370
-1
  6
ByLayer
100
AcDbCircle
 10
-84.0
 20
98.0
 30
0.0
 40
6.324555320336759
100
AcDbArc
 50
18.4349488229220171
 51
161.5650511770780042
  0
LINE
  5
C1
100
AcDbEntity
100
AcDbLine
  8
help2
 62
256
370
-1
  6
ByLayer
 10
-86.5
 20
127.7212807378490282
 30
0.0
 11
-86.5
 21
103.809475019311094
 31
0.0
  0
LINE
  5
C2
100
AcDbEntity
100
AcDbLine
  8
help2
 62
256
370
-1
  6
ByLayer
 10
-81.5
 20
103.809475019311094
 30
0.0
 11
-81.5
 21
127.7212807378490282
 31
0.0
  0
LINE
  5
C3
100
AcDbEntity
100
AcDbLine
  8
0
 62
256
370
-1
  6
ByLayer
 10
70.0
 20
50.0
 30
0.0
 11
120.0
 21
50.0
 31
0.0
  0
LINE
  5
C4
100
AcDbEntity
100
AcDbLine
  8
0
 62
256
370
-1
  6
ByLayer
 10
70.0
 20
48.0
 30
0.0
 11
120.0
 21
48.0
 31
0.0
  0
LINE
  5
C5
100
AcDbEntity
100
AcDbLine
  8
0
 62
256
370
-1
  6
ByLayer
 10
70.0
 20
50.0
 30
0.0
 11
70.0
 21
48.0
 31
0.0
  0
CIRCLE
  5
C6
100
AcDbEntity
100
AcDbCircle
  8
ball
 62
256
370
-1
  6
ByLayer
 10
73.0
 20
53.5
 30
0.0
 40
5.0
  0
LINE
  5
C7
100
AcDbEntity
100
AcDbLine
  8
legs
 62
256
370
-1
  6
ByLayer
 10
82.0
 20
48.0
 30
0.0
 11
80.0
 21
48.0
 31
0.0
  0
LINE
  5
C8
100
AcDbEntity
100
AcDbLine
  8
legs
 62
256
370
-1
  6
ByLayer
 10
85.0
 20
48.0
 30
0.0
 11
85.0
 21
30.0
 31
0.0
  0
LINE
  5
C9
100
AcDbEntity
100
AcDbLine
  8
legs
 62
256
370
-1
  6
ByLayer
 10
87.0
 20
30.0
 30
0.0
 11
87.0
 21
48.0
 31
0.0
  0
LINE
  5
CA
100
AcDbEntity
100
AcDbLine
  8
legs
 62
256
370
-1
  6
ByLayer
 10
116.0
 20
48.0
 30
0.0
 11
116.0
 21
30.0
 31
0.0
  0
LINE
  5
CB
100
AcDbEntity
100
AcDbLine
  8
legs
 62
256
370
-1
  6
ByLayer
 10
118.0
 20
48.0
 30
0.0
 11
118.0
 21
30.0
 31
0.0
  0
CIRCLE
  5
CC
100
AcDbEntity
100
AcDbCircle
  8
0
 62
256
370
-1
  6
ByLayer
 10
88.8999999999999773
 20
130.0
 30
0.0
 40
1.0
  0
CIRCLE
  5
CD
100
AcDbEntity
100
AcDbCircle
  8
0
 62
256
370
-1
  6
ByLayer
 10
80.8999999999999773
 20
130.0
 30
0.0
 40
1.0
  0
ARC
  5
CE
100
AcDbEntity
  8
legs
 62
256
370
-1
  6
ByLayer
100
AcDbCircle
 10
84.8999999999999773
 20
98.0
 30
0.0
 40
5.2924474489596944
100
AcDbArc
 50
22.2034785320573675
 51
157.796521467942398
  0
LINE
  5
CF
100
AcDbEntity
100
AcDbLine
  8
help
 62
256
370
-1
  6
ByLayer
 10
83.3999999999999773
 20
96.0000000000000142
 30
0.0
 11
83.3999999999999773
 21
136.0
 31
0.0
  0
LINE
  5
D0
100
AcDbEntity
100
AcDbLine
  8
help
 62
256
370
-1
  6
ByLayer
 10
81.3999999999999773
 20
96.0000000000000142
 30
0.0
 11
81.3999999999999773
 21
136.0
 31
0.0
  0
LINE
  5
D1
100
AcDbEntity
100
AcDbLine
  8
help
 62
256
370
-1
  6
ByLayer
 10
86.3999999999999773
 20
96.0000000000000142
 30
0.0
 11
86.3999999999999773
 21
136.0
 31
0.0
  0
LINE
  5
D2
100
AcDbEntity
100
AcDbLine
  8
help
 62
256
370
-1
  6
ByLayer
 10
88.3999999999999773
 20
96.0000000000000142
 30
0.0
 11
88.3999999999999773
 21
136.0
 31
0.0
  0
ARC
  5
D3
100
AcDbEntity
  8
legs
 62
256
370
-1
  6
ByLayer
100
AcDbCircle
 10
84.8999999999999773
 20
131.0
 30
0.0
 40
3.2310988842806982
100
AcDbArc
 50
201.8014094863516164
 51
338.1985905136484121
  0
ARC
  5
D4
100
AcDbEntity
  8
legs
 62
256
370
-1
  6
ByLayer
100
AcDbCircle
 10
88.8999999999999773
 20
130.0
 30
0.0
 40
0.9999999999999958
100
AcDbArc
 50
191.309932474019547
 51
331.0923912178312207
  0
ARC
  5
D5
100
AcDbEntity
  8
legs
 62
256
370
-1
  6
ByLayer
100
AcDbCircle
 10
80.8999999999999773
 20
130.0
 30
0.0
 40
0.9999999999999958
100
AcDbArc
 50
208.9076087821687508
 51
348.6900675259805098
  0
ARC
  5
D6
100
AcDbEntity
  8
legs
 62
256
370
-1
  6
ByLayer
100
AcDbCircle
 10
85.8999565098652624
 20
125.4651523807330022
 30
0.0
 40
0.5
100
AcDbArc
 50
359.9960750678068848
 51
100.2409081067060299
  0
ARC
  5
D7
100
AcDbEntity
  8
legs
 62
256
370
-1
  6
ByLayer
100
AcDbCircle
 10
84.8999999999999773
 20
131.0
 30
0.0
 40
5.1244511901275747
100
AcDbArc
 50
259.7586416906667068
 51
280.2409081067062857
  0
ARC
  5
D8
100
AcDbEntity
  8
legs
 62
256
370
-1
  6
ByLayer
100
AcDbCircle
 10
83.8999999999999773
 20
125.4651602380802871
 30
0.0
 40
0.5
100
AcDbArc
 50
79.7586416906664653
 51
180.0
  0
LINE
  5
D9
100
AcDbEntity
100
AcDbLine
  8
legs
 62
256
370
-1
  6
ByLayer
 10
86.3999565086920995
 20
125.4651181292369557
 30
0.0
 11
86.3986047040171741
 21
105.7316053212963141
 31
0.0
  0
ARC
  5
DA
100
AcDbEntity
  8
legs
 62
256
370
-1
  6
ByLayer
100
AcDbCircle
 10
85.898604705190337
 20
105.7316395727923606
 30
0.0
 40
0.5
100
AcDbArc
 50
262.6405225849636622
 51
359.9960750678068848
  0
LINE
  5
DB
100
AcDbEntity
100
AcDbLine
  8
legs
 62
256
370
-1
  6
ByLayer
 10
83.3999999999999773
 20
105.7314592310117689
 30
0.0
 11
83.3999999999999773
 21
125.4651602380802871
 31
0.0
  0
ARC
  5
DC
100
AcDbEntity
  8
legs
 62
256
370
-1
  6
ByLayer
100
AcDbCircle
 10
84.8999999999999773
 20
98.0
 30
0.0
 40
7.2958618407971523
100
AcDbArc
 50
82.6405225849627527
 51
97.3698174516063801
  0
ARC
  5
DD
100
AcDbEntity
  8
legs
 62
256
370
-1
  6
ByLayer
100
AcDbCircle
 10
83.8999999999999773
 20
105.7314592310117689
 30
0.0
 40
0.5
100
AcDbArc
 50
180.0
 51
277.3698174516058543
  0
ARC
  5
DE
100
AcDbEntity
  8
legs
 62
256
370
-1
  6
ByLayer
100
AcDbCircle
 10
84.8999999999999773
 20
98.0
 30
0.0
 40
7.2945184899347586
100
AcDbArc
 50
15.94539590092295
 51
57.144172980862983
  0
ARC
  5
DF
100
AcDbEntity
  8
legs
 62
256
370
-1
  6
ByLayer
100
AcDbCircle
 10
89.3999999999999773
 20
104.9677138991113594
 30
0.0
 40
1.0
100
AcDbArc
 50
180.0
 51
237.1441729808628338
  0
ARC
  5
E0
100
AcDbEntity
  8
legs
 62
256
370
-1
  6
ByLayer
100
AcDbCircle
 10
84.8999999999999773
 20
98.0
 30
0.0
 40
7.2945184899347586
100
AcDbArc
 50
122.8558270191370241
 51
164.0546040990770393
  0
ARC
  5
E1
100
AcDbEntity
  8
legs
 62
256
370
-1
  6
ByLayer
100
AcDbCircle
 10
80.3999999999999773
 20
104.9677138991113594
 30
0.0
 40
1.0
100
AcDbArc
 50
302.8558270191371662
 51
0.0
  0
ARC
  5
E2
100
AcDbEntity
  8
legs
 62
256
370
-1
  6
ByLayer
100
AcDbCircle
 10
84.8999999999999773
 20
131.0
 30
0.0
 40
5.0960769224963585
100
AcDbArc
 50
317.5765806728650773
 51
343.0769921449443132
  0
LINE
  5
E3
100
AcDbEntity
100
AcDbLine
  8
legs
 62
256
370
-1
  6
ByLayer
 10
88.3999999999999773
 20
104.9677138991113594
 30
0.0
 11
88.3999999999999773
 21
126.8875610831292988
 31
0.0
  0
ARC
  5
E4
100
AcDbEntity
  8
legs
 62
256
370
-1
  6
ByLayer
100
AcDbCircle
 10
89.3999999999999773
 20
126.8875610831292988
 30
0.0
 40
1.0
100
AcDbArc
 50
137.5765806728647931
 51
180.0
  0
ARC
  5
E5
100
AcDbEntity
  8
legs
 62
256
370
-1
  6
ByLayer
100
AcDbCircle
 10
84.8999999999999773
 20
131.0
 30
0.0
 40
5.0960769224963585
100
AcDbArc
 50
196.92300785505563
 51
222.4234193271349511
  0
LINE
  5
E6
100
AcDbEntity
100
AcDbLine
  8
legs
 62
256
370
-1
  6
ByLayer
 10
81.3999999999999773
 20
126.8875610831292988
 30
0.0
 11
81.3999999999999773
 21
104.9677138991113594
 31
0.0
  0
ARC
  5
E7
100
AcDbEntity
  8
legs
 62
256
370
-1
  6
ByLayer
100
AcDbCircle
 10
80.3999999999999773
 20
126.8875610831292988
 30
0.0
 40
1.0
100
AcDbArc
 50
0.0
 51
42.4234193271352069
  0
LINE
  5
E8
100
AcDbEntity
100
AcDbLine
  8
legs
 62
256
370
-1
  6
ByLayer
 10
91.913854214581022
 20
100.0039583470231719
 30
0.0
 11
91.913854214581022
 21
97.0039583470231719
 31
0.0
  0
LINE
  5
E9
100
AcDbEntity
100
AcDbLine
  8
legs
 62
256
370
-1
  6
ByLayer
 10
77.8861457854189325
 20
100.0039583470231719
 30
0.0
 11
77.8861457854189325
 21
97.0039583470231719
 31
0.0
  0
LINE
  5
EA
100
AcDbEntity
100
AcDbLine
  8
legs
 62
256
370
-1
  6
ByLayer
 10
77.8861457854189325
 20
97.0039583470231719
 30
0.0
 11
79.3999999999999773
 21
97.0000000000000142
 31
0.0
  0
LINE
  5
EB
100
AcDbEntity
100
AcDbLine
  8
legs
 62
256
370
-1
  6
ByLayer
 10
79.3999999999999773
 20
97.0000000000000142
 30
0.0
 11
79.3999999999999773
 21
100.0000000000000142
 31
0.0
  0
LINE
  5
EC
100
AcDbEntity
100
AcDbLine
  8
legs
 62
256
370
-1
  6
ByLayer
 10
79.3999999999999773
 20
100.0000000000000142
 30
0.0
 11
79.9999999999999858
 21
100.0000000000000142
 31
0.0
  0
LINE
  5
ED
100
AcDbEntity
100
AcDbLine
  8
legs
 62
256
370
-1
  6
ByLayer
 10
91.913854214581022
 20
97.0039583470231719
 30
0.0
 11
90.3999999999999773
 21
97.0
 31
0.0
  0
LINE
  5
EE
100
AcDbEntity
100
AcDbLine
  8
legs
 62
256
370
-1
  6
ByLayer
 10
90.3999999999999773
 20
97.0
 30
0.0
 11
90.3999999999999773
 21
100.0
 31
0.0
  0
LINE
  5
EF
100
AcDbEntity
100
AcDbLine
  8
legs
 62
256
370
-1
  6
ByLayer
 10
90.3999999999999773
 20
100.0
 30
0.0
 11
89.7999999999999829
 21
100.0
 31
0.0
  0
ARC
  5
F0
100
AcDbEntity
  8
legs
 62
256
370
-1
  6
ByLayer
100
AcDbCircle
 10
65.5
 20
98.0
 30
0.0
 40
5.2924474489596944
100
AcDbArc
 50
22.2034785320573675
 51
157.796521467942398
  0
ARC
  5
F1
100
AcDbEntity
  8
legs
 62
256
370
-1
  6
ByLayer
100
AcDbCircle
 10
66.4986047051903597
 20
105.7316395727923606
 30
0.0
 40
0.5
100
AcDbArc
 50
262.6405225849636622
 51
359.9960750678068848
  0
ARC
  5
F2
100
AcDbEntity
  8
legs
 62
256
370
-1
  6
ByLayer
100
AcDbCircle
 10
65.5
 20
98.0
 30
0.0
 40
7.2958618407971523
100
AcDbArc
 50
82.6405225849627527
 51
97.3698174516063801
  0
ARC
  5
F3
100
AcDbEntity
  8
legs
 62
256
370
-1
  6
ByLayer
100
AcDbCircle
 10
64.5
 20
105.7314592310117689
 30
0.0
 40
0.5
100
AcDbArc
 50
180.0
 51
277.3698174516058543
  0
ARC
  5
F4
100
AcDbEntity
  8
legs
 62
256
370
-1
  6
ByLayer
100
AcDbCircle
 10
65.5
 20
98.0
 30
0.0
 40
7.2945184899347586
100
AcDbArc
 50
15.94539590092295
 51
57.144172980862983
  0
ARC
  5
F5
100
AcDbEntity
  8
legs
 62
256
370
-1
  6
ByLayer
100
AcDbCircle
 10
70.0
 20
104.9677138991113594
 30
0.0
 40
1.0
100
AcDbArc
 50
180.0
 51
237.1441729808628338
  0
ARC
  5
F6
100
AcDbEntity
  8
legs
 62
256
370
-1
  6
ByLayer
100
AcDbCircle
 10
65.5
 20
98.0
 30
0.0
 40
7.2945184899347586
100
AcDbArc
 50
122.8558270191370241
 51
164.0546040990770393
  0
ARC
  5
F7
100
AcDbEntity
  8
legs
 62
256
370
-1
  6
ByLayer
100
AcDbCircle
 10
61.0
 20
104.9677138991113594
 30
0.0
 40
1.0
100
AcDbArc
 50
302.8558270191371662
 51
0.0
  0
LINE
  5
F8
100
AcDbEntity
100
AcDbLine
  8
legs
 62
256
370
-1
  6
ByLayer
 10
72.5138542145810447
 20
100.0039583470231719
 30
0.0
 11
72.5138542145810447
 21
97.0039583470231719
 31
0.0
  0
LINE
  5
F9
100
AcDbEntity
100
AcDbLine
  8
legs
 62
256
370
-1
  6
ByLayer
 10
58.4861457854189553
 20
100.0039583470231719
 30
0.0
 11
58.4861457854189553
 21
97.0039583470231719
 31
0.0
  0
LINE
  5
FA
100
AcDbEntity
100
AcDbLine
  8
legs
 62
256
370
-1
  6
ByLayer
 10
58.4861457854189553
 20
97.0039583470231719
 30
0.0
 11
60.0
 21
97.0000000000000142
 31
0.0
  0
LINE
  5
FB
100
AcDbEntity
100
AcDbLine
  8
legs
 62
256
370
-1
  6
ByLayer
 10
60.0
 20
97.0000000000000142
 30
0.0
 11
60.0
 21
100.0000000000000142
 31
0.0
  0
LINE
  5
FC
100
AcDbEntity
100
AcDbLine
  8
legs
 62
256
370
-1
  6
ByLayer
 10
60.0
 20
100.0000000000000142
 30
0.0
 11
60.6000000000000085
 21
100.0000000000000142
 31
0.0
  0
LINE
  5
FD
100
AcDbEntity
100
AcDbLine
  8
legs
 62
256
370
-1
  6
ByLayer
 10
72.5138542145810447
 20
97.0039583470231719
 30
0.0
 11
71.0
 21
97.0
 31
0.0
  0
LINE
  5
FE
100
AcDbEntity
100
AcDbLine
  8
legs
 62
256
370
-1
  6
ByLayer
 10
71.0
 20
97.0
 30
0.0
 11
71.0
 21
100.0
 31
0.0
  0
LINE
  5
FF
100
AcDbEntity
100
AcDbLine
  8
legs
 62
256
370
-1
  6
ByLayer
 10
71.0
 20
100.0
 30
0.0
 11
70.4000000000000057
 21
100.0
 31
0.0
  0
LINE
  5
100
100
AcDbEntity
100
AcDbLine
  8
legs
 62
256
370
-1
  6
ByLayer
 10
62.0
 20
104.9677138991113594
 30
0.0
 11
62.0
 21
107.0
 31
0.0
  0
LINE
  5
101
100
AcDbEntity
100
AcDbLine
  8
legs
 62
256
370
-1
  6
ByLayer
 10
64.0
 20
105.7314592310117689
 30
0.0
 11
64.0
 21
107.0
 31
0.0
  0
LINE
  5
102
100
AcDbEntity
100
AcDbLine
  8
legs
 62
256
370
-1
  6
ByLayer
 10
66.9986047040171968
 20
105.7316053212963141
 30
0.0
 11
67.0
 21
107.0
 31
0.0
  0
LINE
  5
103
100
AcDbEntity
100
AcDbLine
  8
legs
 62
256
370
-1
  6
ByLayer
 10
69.0
 20
104.9677138991113594
 30
0.0
 11
69.0
 21
107.0
 31
0.0
  0
ARC
  5
104
100
AcDbEntity
  8
legs
 62
256
370
-1
  6
ByLayer
100
AcDbCircle
 10
45.5
 20
98.0
 30
0.0
 40
5.2924474489596944
100
AcDbArc
 50
22.2034785320573675
 51
157.796521467942398
  0
ARC
  5
105
100
AcDbEntity
  8
legs
 62
256
370
-1
  6
ByLayer
100
AcDbCircle
 10
46.4986047051903597
 20
105.7316395727923606
 30
0.0
 40
0.5
100
AcDbArc
 50
262.6405225849636622
 51
359.9960750678068848
  0
ARC
  5
106
100
AcDbEntity
  8
legs
 62
256
370
-1
  6
ByLayer
100
AcDbCircle
 10
45.5
 20
98.0
 30
0.0
 40
7.2958618407971523
100
AcDbArc
 50
82.6405225849627527
 51
97.3698174516063801
  0
ARC
  5
107
100
AcDbEntity
  8
legs
 62
256
370
-1
  6
ByLayer
100
AcDbCircle
 10
44.5
 20
105.7314592310117689
 30
0.0
 40
0.5
100
AcDbArc
 50
180.0
 51
277.3698174516058543
  0
ARC
  5
108
100
AcDbEntity
  8
legs
 62
256
370
-1
  6
ByLayer
100
AcDbCircle
 10
45.5
 20
98.0
 30
0.0
 40
7.2945184899347586
100
AcDbArc
 50
15.94539590092295
 51
57.144172980862983
  0
ARC
  5
109
100
AcDbEntity
  8
legs
 62
256
370
-1
  6
ByLayer
100
AcDbCircle
 10
50.0
 20
104.9677138991113594
 30
0.0
 40
1.0
100
AcDbArc
 50
180.0
 51
237.1441729808628338
  0
ARC
  5
10A
100
AcDbEntity
  8
legs
 62
256
370
-1
  6
ByLayer
100
AcDbCircle
 10
45.5
 20
98.0
 30
0.0
 40
7.2945184899347586
100
AcDbArc
 50
122.8558270191370241
 51
164.0546040990770393
  0
ARC
  5
10B
100
AcDbEntity
  8
legs
 62
256
370
-1
  6
ByLayer
100
AcDbCircle
 10
41.0
 20
104.9677138991113594
 30
0.0
 40
1.0
100
AcDbArc
 50
302.8558270191371662
 51
0.0
  0
LINE
  5
10C
100
AcDbEntity
100
AcDbLine
  8
legs
 62
256
370
-1
  6
ByLayer
 10
52.5138542145810447
 20
100.0039583470231719
 30
0.0
 11
52.5138542145810447
 21
97.0039583470231719
 31
0.0
  0
LINE
  5
10D
100
AcDbEntity
100
AcDbLine
  8
legs
 62
256
370
-1
  6
ByLayer
 10
38.4861457854189553
 20
100.0039583470231719
 30
0.0
 11
38.4861457854189553
 21
97.0039583470231719
 31
0.0
  0
LINE
  5
10E
100
AcDbEntity
100
AcDbLine
  8
legs
 62
256
370
-1
  6
ByLayer
 10
38.4861457854189553
 20
97.0039583470231719
 30
0.0
 11
40.0
 21
97.0000000000000142
 31
0.0
  0
LINE
  5
10F
100
AcDbEntity
100
AcDbLine
  8
legs
 62
256
370
-1
  6
ByLayer
 10
40.0
 20
97.0000000000000142
 30
0.0
 11
40.0
 21
100.0000000000000142
 31
0.0
  0
LINE
  5
110
100
AcDbEntity
100
AcDbLine
  8
legs
 62
256
370
-1
  6
ByLayer
 10
40.0
 20
100.0000000000000142
 30
0.0
 11
40.6000000000000085
 21
100.0000000000000142
 31
0.0
  0
LINE
  5
111
100
AcDbEntity
100
AcDbLine
  8
legs
 62
256
370
-1
  6
ByLayer
 10
52.5138542145810447
 20
97.0039583470231719
 30
0.0
 11
51.0
 21
97.0
 31
0.0
  0
LINE
  5
112
100
AcDbEntity
100
AcDbLine
  8
legs
 62
256
370
-1
  6
ByLayer
 10
51.0
 20
97.0
 30
0.0
 11
51.0
 21
100.0
 31
0.0
  0
LINE
  5
113
100
AcDbEntity
100
AcDbLine
  8
legs
 62
256
370
-1
  6
ByLayer
 10
51.0
 20
100.0
 30
0.0
 11
50.4000000000000057
 21
100.0
 31
0.0
  0
LINE
  5
114
100
AcDbEntity
100
AcDbLine
  8
legs
 62
256
370
-1
  6
ByLayer
 10
42.0
 20
104.9677138991113594
 30
0.0
 11
42.0
 21
107.0
 31
0.0
  0
LINE
  5
115
100
AcDbEntity
100
AcDbLine
  8
legs
 62
256
370
-1
  6
ByLayer
 10
44.0
 20
105.7314592310117689
 30
0.0
 11
44.0
 21
107.0
 31
0.0
  0
LINE
  5
116
100
AcDbEntity
100
AcDbLine
  8
legs
 62
256
370
-1
  6
ByLayer
 10
46.9986047040171968
 20
105.7316053212963141
 30
0.0
 11
47.0
 21
107.0
 31
0.0
  0
LINE
  5
117
100
AcDbEntity
100
AcDbLine
  8
legs
 62
256
370
-1
  6
ByLayer
 10
49.0
 20
104.9677138991113594
 30
0.0
 11
49.0
 21
107.0
 31
0.0
  0
ARC
  5
118
100
AcDbEntity
  8
legs
 62
256
370
-1
  6
ByLayer
100
AcDbCircle
 10
25.5
 20
98.0
 30
0.0
 40
5.2924474489596944
100
AcDbArc
 50
22.2034785320573675
 51
157.796521467942398
  0
ARC
  5
119
100
AcDbEntity
  8
legs
 62
256
370
-1
  6
ByLayer
100
AcDbCircle
 10
26.4986047051903597
 20
105.7316395727923606
 30
0.0
 40
0.5
100
AcDbArc
 50
262.6405225849636622
 51
359.9960750678068848
  0
ARC
  5
11A
100
AcDbEntity
  8
legs
 62
256
370
-1
  6
ByLayer
100
AcDbCircle
 10
25.5
 20
98.0
 30
0.0
 40
7.2958618407971523
100
AcDbArc
 50
82.6405225849627527
 51
97.3698174516063801
  0
ARC
  5
11B
100
AcDbEntity
  8
legs
 62
256
370
-1
  6
ByLayer
100
AcDbCircle
 10
24.5
 20
105.7314592310117689
 30
0.0
 40
0.5
100
AcDbArc
 50
180.0
 51
277.3698174516058543
  0
ARC
  5
11C
100
AcDbEntity
  8
legs
 62
256
370
-1
  6
ByLayer
100
AcDbCircle
 10
25.5
 20
98.0
 30
0.0
 40
7.2945184899347586
100
AcDbArc
 50
15.94539590092295
 51
57.144172980862983
  0
ARC
  5
11D
100
AcDbEntity
  8
legs
 62
256
370
-1
  6
ByLayer
100
AcDbCircle
 10
30.0
 20
104.9677138991113594
 30
0.0
 40
1.0
100
AcDbArc
 50
180.0
 51
237.1441729808628338
  0
ARC
  5
11E
100
AcDbEntity
  8
legs
 62
256
370
-1
  6
ByLayer
100
AcDbCircle
 10
25.5
 20
98.0
 30
0.0
 40
7.2945184899347586
100
AcDbArc
 50
122.8558270191370241
 51
164.0546040990770393
  0
ARC
  5
11F
100
AcDbEntity
  8
legs
 62
256
370
-1
  6
ByLayer
100
AcDbCircle
 10
21.0
 20
104.9677138991113594
 30
0.0
 40
1.0
100
AcDbArc
 50
302.8558270191371662
 51
0.0
  0
LINE
  5
120
100
AcDbEntity
100
AcDbLine
  8
legs
 62
256
370
-1
  6
ByLayer
 10
32.5138542145810447
 20
100.0039583470231719
 30
0.0
 11
32.5138542145810447
 21
97.0039583470231719
 31
0.0
  0
LINE
  5
121
100
AcDbEntity
100
AcDbLine
  8
legs
 62
256
370
-1
  6
ByLayer
 10
18.4861457854189553
 20
100.0039583470231719
 30
0.0
 11
18.4861457854189553
 21
97.0039583470231719
 31
0.0
  0
LINE
  5
122
100
AcDbEntity
100
AcDbLine
  8
legs
 62
256
370
-1
  6
ByLayer
 10
18.4861457854189553
 20
97.0039583470231719
 30
0.0
 11
20.0
 21
97.0000000000000142
 31
0.0
  0
LINE
  5
123
100
AcDbEntity
100
AcDbLine
  8
legs
 62
256
370
-1
  6
ByLayer
 10
20.0
 20
97.0000000000000142
 30
0.0
 11
20.0
 21
100.0000000000000142
 31
0.0
  0
LINE
  5
124
100
AcDbEntity
100
AcDbLine
  8
legs
 62
256
370
-1
  6
ByLayer
 10
20.0
 20
100.0000000000000142
 30
0.0
 11
20.6000000000000085
 21
100.0000000000000142
 31
0.0
  0
LINE
  5
125
100
AcDbEntity
100
AcDbLine
  8
legs
 62
256
370
-1
  6
ByLayer
 10
32.5138542145810447
 20
97.0039583470231719
 30
0.0
 11
31.0
 21
97.0
 31
0.0
  0
LINE
  5
126
100
AcDbEntity
100
AcDbLine
  8
legs
 62
256
370
-1
  6
ByLayer
 10
31.0
 20
97.0
 30
0.0
 11
31.0
 21
100.0
 31
0.0
  0
LINE
  5
127
100
AcDbEntity
100
AcDbLine
  8
legs
 62
256
370
-1
  6
ByLayer
 10
31.0
 20
100.0
 30
0.0
 11
30.4000000000000057
 21
100.0
 31
0.0
  0
LINE
  5
128
100
AcDbEntity
100
AcDbLine
  8
legs
 62
256
370
-1
  6
ByLayer
 10
22.0
 20
104.9677138991113594
 30
0.0
 11
22.0
 21
107.0
 31
0.0
  0
LINE
  5
129
100
AcDbEntity
100
AcDbLine
  8
legs
 62
256
370
-1
  6
ByLayer
 10
24.0
 20
105.7314592310117689
 30
0.0
 11
24.0
 21
107.0
 31
0.0
  0
LINE
  5
12A
100
AcDbEntity
100
AcDbLine
  8
legs
 62
256
370
-1
  6
ByLayer
 10
26.9986047040171968
 20
105.7316053212963141
 30
0.0
 11
27.0
 21
107.0
 31
0.0
  0
LINE
  5
12B
100
AcDbEntity
100
AcDbLine
  8
legs
 62
256
370
-1
  6
ByLayer
 10
29.0
 20
104.9677138991113594
 30
0.0
 11
29.0
 21
107.0
 31
0.0
  0
ARC
  5
12C
100
AcDbEntity
  8
legs
 62
256
370
-1
  6
ByLayer
100
AcDbCircle
 10
5.5
 20
98.0
 30
0.0
 40
5.2924474489596944
100
AcDbArc
 50
22.2034785320573675
 51
157.796521467942398
  0
ARC
  5
12D
100
AcDbEntity
  8
legs
 62
256
370
-1
  6
ByLayer
100
AcDbCircle
 10
6.4986047051903597
 20
105.7316395727923606
 30
0.0
 40
0.5
100
AcDbArc
 50
262.6405225849636622
 51
359.9960750678068848
  0
ARC
  5
12E
100
AcDbEntity
  8
legs
 62
256
370
-1
  6
ByLayer
100
AcDbCircle
 10
5.5
 20
98.0
 30
0.0
 40
7.2958618407971523
100
AcDbArc
 50
82.6405225849627527
 51
97.3698174516063801
  0
ARC
  5
12F
100
AcDbEntity
  8
legs
 62
256
370
-1
  6
ByLayer
100
AcDbCircle
 10
4.5
 20
105.7314592310117689
 30
0.0
 40
0.5
100
AcDbArc
 50
180.0
 51
277.3698174516058543
  0
ARC
  5
130
100
AcDbEntity
  8
legs
 62
256
370
-1
  6
ByLayer
100
AcDbCircle
 10
5.5
 20
98.0
 30
0.0
 40
7.2945184899347586
100
AcDbArc
 50
15.94539590092295
 51
57.144172980862983
  0
ARC
  5
131
100
AcDbEntity
  8
legs
 62
256
370
-1
  6
ByLayer
100
AcDbCircle
 10
10.0
 20
104.9677138991113594
 30
0.0
 40
1.0
100
AcDbArc
 50
180.0
 51
237.1441729808628338
  0
ARC
  5
132
100
AcDbEntity
  8
legs
 62
256
370
-1
  6
ByLayer
100
AcDbCircle
 10
5.5
 20
98.0
 30
0.0
 40
7.2945184899347586
100
AcDbArc
 50
122.8558270191370241
 51
164.0546040990770393
  0
ARC
  5
133
100
AcDbEntity
  8
legs
 62
256
370
-1
  6
ByLayer
100
AcDbCircle
 10
1.0
 20
104.9677138991113594
 30
0.0
 40
1.0
100
AcDbArc
 50
302.8558270191371662
 51
0.0
  0
LINE
  5
134
100
AcDbEntity
100
AcDbLine
  8
legs
 62
256
370
-1
  6
ByLayer
 10
12.5138542145810447
 20
100.0039583470231719
 30
0.0
 11
12.5138542145810447
 21
97.0039583470231719
 31
0.0
  0
LINE
  5
135
100
AcDbEntity
100
AcDbLine
  8
legs
 62
256
370
-1
  6
ByLayer
 10
-1.5138542145810447
 20
100.0039583470231719
 30
0.0
 11
-1.5138542145810447
 21
97.0039583470231719
 31
0.0
  0
LINE
  5
136
100
AcDbEntity
100
AcDbLine
  8
legs
 62
256
370
-1
  6
ByLayer
 10
-1.5138542145810447
 20
97.0039583470231719
 30
0.0
 11
0.0
 21
97.0000000000000142
 31
0.0
  0
LINE
  5
137
100
AcDbEntity
100
AcDbLine
  8
legs
 62
256
370
-1
  6
ByLayer
 10
0.0
 20
97.0000000000000142
 30
0.0
 11
0.0
 21
100.0000000000000142
 31
0.0
  0
LINE
  5
138
100
AcDbEntity
100
AcDbLine
  8
legs
 62
256
370
-1
  6
ByLayer
 10
0.0
 20
100.0000000000000142
 30
0.0
 11
0.6000000000000085
 21
100.0000000000000142
 31
0.0
  0
LINE
  5
139
100
AcDbEntity
100
AcDbLine
  8
legs
 62
256
370
-1
  6
ByLayer
 10
12.5138542145810447
 20
97.0039583470231719
 30
0.0
 11
11.0
 21
97.0
 31
0.0
  0
LINE
  5
13A
100
AcDbEntity
100
AcDbLine
  8
legs
 62
256
370
-1
  6
ByLayer
 10
11.0
 20
97.0
 30
0.0
 11
11.0
 21
100.0
 31
0.0
  0
LINE
  5
13B
100
AcDbEntity
100
AcDbLine
  8
legs
 62
256
370
-1
  6
ByLayer
 10
11.0
 20
100.0
 30
0.0
 11
10.4000000000000057
 21
100.0
 31
0.0
  0
LINE
  5
13C
100
AcDbEntity
100
AcDbLine
  8
legs
 62
256
370
-1
  6
ByLayer
 10
2.0
 20
104.9677138991113594
 30
0.0
 11
2.0
 21
107.0
 31
0.0
  0
LINE
  5
13D
100
AcDbEntity
100
AcDbLine
  8
legs
 62
256
370
-1
  6
ByLayer
 10
4.0
 20
105.7314592310117689
 30
0.0
 11
4.0
 21
107.0
 31
0.0
  0
LINE
  5
13E
100
AcDbEntity
100
AcDbLine
  8
legs
 62
256
370
-1
  6
ByLayer
 10
6.9986047040171968
 20
105.7316053212963141
 30
0.0
 11
7.0
 21
107.0
 31
0.0
  0
LINE
  5
13F
100
AcDbEntity
100
AcDbLine
  8
legs
 62
256
370
-1
  6
ByLayer
 10
9.0
 20
104.9677138991113594
 30
0.0
 11
9.0
 21
107.0
 31
0.0
  0
ARC
  5
140
100
AcDbEntity
  8
legs
 62
256
370
-1
  6
ByLayer
100
AcDbCircle
 10
-14.5
 20
98.0
 30
0.0
 40
5.2924474489596944
100
AcDbArc
 50
22.2034785320573675
 51
157.796521467942398
  0
ARC
  5
141
100
AcDbEntity
  8
legs
 62
256
370
-1
  6
ByLayer
100
AcDbCircle
 10
-13.5013952948096403
 20
105.7316395727923606
 30
0.0
 40
0.5
100
AcDbArc
 50
262.6405225849636622
 51
359.9960750678068848
  0
ARC
  5
142
100
AcDbEntity
  8
legs
 62
256
370
-1
  6
ByLayer
100
AcDbCircle
 10
-14.5
 20
98.0
 30
0.0
 40
7.2958618407971523
100
AcDbArc
 50
82.6405225849627527
 51
97.3698174516063801
  0
ARC
  5
143
100
AcDbEntity
  8
legs
 62
256
370
-1
  6
ByLayer
100
AcDbCircle
 10
-15.5
 20
105.7314592310117689
 30
0.0
 40
0.5
100
AcDbArc
 50
180.0
 51
277.3698174516058543
  0
ARC
  5
144
100
AcDbEntity
  8
legs
 62
256
370
-1
  6
ByLayer
100
AcDbCircle
 10
-14.5
 20
98.0
 30
0.0
 40
7.2945184899347586
100
AcDbArc
 50
15.94539590092295
 51
57.144172980862983
  0
ARC
  5
145
100
AcDbEntity
  8
legs
 62
256
370
-1
  6
ByLayer
100
AcDbCircle
 10
-10.0
 20
104.9677138991113594
 30
0.0
 40
1.0
100
AcDbArc
 50
180.0
 51
237.1441729808628338
  0
ARC
  5
146
100
AcDbEntity
  8
legs
 62
256
370
-1
  6
ByLayer
100
AcDbCircle
 10
-14.5
 20
98.0
 30
0.0
 40
7.2945184899347586
100
AcDbArc
 50
122.8558270191370241
 51
164.0546040990770393
  0
ARC
  5
147
100
AcDbEntity
  8
legs
 62
256
370
-1
  6
ByLayer
100
AcDbCircle
 10
-19.0
 20
104.9677138991113594
 30
0.0
 40
1.0
100
AcDbArc
 50
302.8558270191371662
 51
0.0
  0
LINE
  5
148
100
AcDbEntity
100
AcDbLine
  8
legs
 62
256
370
-1
  6
ByLayer
 10
-7.4861457854189553
 20
100.0039583470231719
 30
0.0
 11
-7.4861457854189553
 21
97.0039583470231719
 31
0.0
  0
LINE
  5
149
100
AcDbEntity
100
AcDbLine
  8
legs
 62
256
370
-1
  6
ByLayer
 10
-21.5138542145810447
 20
100.0039583470231719
 30
0.0
 11
-21.5138542145810447
 21
97.0039583470231719
 31
0.0
  0
LINE
  5
14A
100
AcDbEntity
100
AcDbLine
  8
legs
 62
256
370
-1
  6
ByLayer
 10
-21.5138542145810447
 20
97.0039583470231719
 30
0.0
 11
-20.0
 21
97.0000000000000142
 31
0.0
  0
LINE
  5
14B
100
AcDbEntity
100
AcDbLine
  8
legs
 62
256
370
-1
  6
ByLayer
 10
-20.0
 20
97.0000000000000142
 30
0.0
 11
-20.0
 21
100.0000000000000142
 31
0.0
  0
LINE
  5
14C
100
AcDbEntity
100
AcDbLine
  8
legs
 62
256
370
-1
  6
ByLayer
 10
-20.0
 20
100.0000000000000142
 30
0.0
 11
-19.3999999999999915
 21
100.0000000000000142
 31
0.0
  0
LINE
  5
14D
100
AcDbEntity
100
AcDbLine
  8
legs
 62
256
370
-1
  6
ByLayer
 10
-7.4861457854189553
 20
97.0039583470231719
 30
0.0
 11
-9.0
 21
97.0
 31
0.0
  0
LINE
  5
14E
100
AcDbEntity
100
AcDbLine
  8
legs
 62
256
370
-1
  6
ByLayer
 10
-9.0
 20
97.0
 30
0.0
 11
-9.0
 21
100.0
 31
0.0
  0
LINE
  5
14F
100
AcDbEntity
100
AcDbLine
  8
legs
 62
256
370
-1
  6
ByLayer
 10
-9.0
 20
100.0
 30
0.0
 11
-9.5999999999999943
 21
100.0
 31
0.0
  0
LINE
  5
150
100
AcDbEntity
100
AcDbLine
  8
legs
 62
256
370
-1
  6
ByLayer
 10
-18.0
 20
104.9677138991113594
 30
0.0
 11
-18.0
 21
107.0
 31
0.0
  0
LINE
  5
151
100
AcDbEntity
100
AcDbLine
  8
legs
 62
256
370
-1
  6
ByLayer
 10
-16.0
 20
105.7314592310117689
 30
0.0
 11
-16.0
 21
107.0
 31
0.0
  0
LINE
  5
152
100
AcDbEntity
100
AcDbLine
  8
legs
 62
256
370
-1
  6
ByLayer
 10
-13.0013952959828032
 20
105.7316053212963141
 30
0.0
 11
-13.0
 21
107.0
 31
0.0
  0
LINE
  5
153
100
AcDbEntity
100
AcDbLine
  8
legs
 62
256
370
-1
  6
ByLayer
 10
-11.0
 20
104.9677138991113594
 30
0.0
 11
-11.0
 21
107.0
 31
0.0
  0
ARC
  5
154
100
AcDbEntity
  8
legs
 62
256
370
-1
  6
ByLayer
100
AcDbCircle
 10
-34.5
 20
98.0
 30
0.0
 40
5.2924474489596944
100
AcDbArc
 50
22.2034785320573675
 51
157.796521467942398
  0
ARC
  5
155
100
AcDbEntity
  8
legs
 62
256
370
-1
  6
ByLayer
100
AcDbCircle
 10
-33.5013952948096403
 20
105.7316395727923606
 30
0.0
 40
0.5
100
AcDbArc
 50
262.6405225849636622
 51
359.9960750678068848
  0
ARC
  5
156
100
AcDbEntity
  8
legs
 62
256
370
-1
  6
ByLayer
100
AcDbCircle
 10
-34.5
 20
98.0
 30
0.0
 40
7.2958618407971523
100
AcDbArc
 50
82.6405225849627527
 51
97.3698174516063801
  0
ARC
  5
157
100
AcDbEntity
  8
legs
 62
256
370
-1
  6
ByLayer
100
AcDbCircle
 10
-35.5
 20
105.7314592310117689
 30
0.0
 40
0.5
100
AcDbArc
 50
180.0
 51
277.3698174516058543
  0
ARC
  5
158
100
AcDbEntity
  8
legs
 62
256
370
-1
  6
ByLayer
100
AcDbCircle
 10
-34.5
 20
98.0
 30
0.0
 40
7.2945184899347586
100
AcDbArc
 50
15.94539590092295
 51
57.144172980862983
  0
ARC
  5
159
100
AcDbEntity
  8
legs
 62
256
370
-1
  6
ByLayer
100
AcDbCircle
 10
-30.0
 20
104.9677138991113594
 30
0.0
 40
1.0
100
AcDbArc
 50
180.0
 51
237.1441729808628338
  0
ARC
  5
15A
100
AcDbEntity
  8
legs
 62
256
370
-1
  6
ByLayer
100
AcDbCircle
 10
-34.5
 20
98.0
 30
0.0
 40
7.2945184899347586
100
AcDbArc
 50
122.8558270191370241
 51
164.0546040990770393
  0
ARC
  5
15B
100
AcDbEntity
  8
legs
 62
256
370
-1
  6
ByLayer
100
AcDbCircle
 10
-39.0
 20
104.9677138991113594
 30
0.0
 40
1.0
100
AcDbArc
 50
302.8558270191371662
 51
0.0
  0
LINE
  5
15C
100
AcDbEntity
100
AcDbLine
  8
legs
 62
256
370
-1
  6
ByLayer
 10
-27.4861457854189553
 20
100.0039583470231719
 30
0.0
 11
-27.4861457854189553
 21
97.0039583470231719
 31
0.0
  0
LINE
  5
15D
100
AcDbEntity
100
AcDbLine
  8
legs
 62
256
370
-1
  6
ByLayer
 10
-41.5138542145810447
 20
100.0039583470231719
 30
0.0
 11
-41.5138542145810447
 21
97.0039583470231719
 31
0.0
  0
LINE
  5
15E
100
AcDbEntity
100
AcDbLine
  8
legs
 62
256
370
-1
  6
ByLayer
 10
-41.5138542145810447
 20
97.0039583470231719
 30
0.0
 11
-40.0
 21
97.0000000000000142
 31
0.0
  0
LINE
  5
15F
100
AcDbEntity
100
AcDbLine
  8
legs
 62
256
370
-1
  6
ByLayer
 10
-40.0
 20
97.0000000000000142
 30
0.0
 11
-40.0
 21
100.0000000000000142
 31
0.0
  0
LINE
  5
160
100
AcDbEntity
100
AcDbLine
  8
legs
 62
256
370
-1
  6
ByLayer
 10
-40.0
 20
100.0000000000000142
 30
0.0
 11
-39.3999999999999915
 21
100.0000000000000142
 31
0.0
  0
LINE
  5
161
100
AcDbEntity
100
AcDbLine
  8
legs
 62
256
370
-1
  6
ByLayer
 10
-27.4861457854189553
 20
97.0039583470231719
 30
0.0
 11
-29.0
 21
97.0
 31
0.0
  0
LINE
  5
162
100
AcDbEntity
100
AcDbLine
  8
legs
 62
256
370
-1
  6
ByLayer
 10
-29.0
 20
97.0
 30
0.0
 11
-29.0
 21
100.0
 31
0.0
  0
LINE
  5
163
100
AcDbEntity
100
AcDbLine
  8
legs
 62
256
370
-1
  6
ByLayer
 10
-29.0
 20
100.0
 30
0.0
 11
-29.5999999999999943
 21
100.0
 31
0.0
  0
LINE
  5
164
100
AcDbEntity
100
AcDbLine
  8
legs
 62
256
370
-1
  6
ByLayer
 10
-38.0
 20
104.9677138991113594
 30
0.0
 11
-38.0
 21
107.0
 31
0.0
  0
LINE
  5
165
100
AcDbEntity
100
AcDbLine
  8
legs
 62
256
370
-1
  6
ByLayer
 10
-36.0
 20
105.7314592310117689
 30
0.0
 11
-36.0
 21
107.0
 31
0.0
  0
LINE
  5
166
100
AcDbEntity
100
AcDbLine
  8
legs
 62
256
370
-1
  6
ByLayer
 10
-33.0013952959828032
 20
105.7316053212963141
 30
0.0
 11
-33.0
 21
107.0
 31
0.0
  0
LINE
  5
167
100
AcDbEntity
100
AcDbLine
  8
legs
 62
256
370
-1
  6
ByLayer
 10
-31.0
 20
104.9677138991113594
 30
0.0
 11
-31.0
 21
107.0
 31
0.0
  0
ARC
  5
168
100
AcDbEntity
  8
legs
 62
256
370
-1
  6
ByLayer
100
AcDbCircle
 10
-54.5
 20
98.0
 30
0.0
 40
5.2924474489596944
100
AcDbArc
 50
22.2034785320573675
 51
157.796521467942398
  0
ARC
  5
169
100
AcDbEntity
  8
legs
 62
256
370
-1
  6
ByLayer
100
AcDbCircle
 10
-53.5013952948096403
 20
105.7316395727923606
 30
0.0
 40
0.5
100
AcDbArc
 50
262.6405225849636622
 51
359.9960750678068848
  0
ARC
  5
16A
100
AcDbEntity
  8
legs
 62
256
370
-1
  6
ByLayer
100
AcDbCircle
 10
-54.5
 20
98.0
 30
0.0
 40
7.2958618407971523
100
AcDbArc
 50
82.6405225849627527
 51
97.3698174516063801
  0
ARC
  5
16B
100
AcDbEntity
  8
legs
 62
256
370
-1
  6
ByLayer
100
AcDbCircle
 10
-55.5
 20
105.7314592310117689
 30
0.0
 40
0.5
100
AcDbArc
 50
180.0
 51
277.3698174516058543
  0
ARC
  5
16C
100
AcDbEntity
  8
legs
 62
256
370
-1
  6
ByLayer
100
AcDbCircle
 10
-54.5
 20
98.0
 30
0.0
 40
7.2945184899347586
100
AcDbArc
 50
15.94539590092295
 51
57.144172980862983
  0
ARC
  5
16D
100
AcDbEntity
  8
legs
 62
256
370
-1
  6
ByLayer
100
AcDbCircle
 10
-50.0
 20
104.9677138991113594
 30
0.0
 40
1.0
100
AcDbArc
 50
180.0
 51
237.1441729808628338
  0
ARC
  5
16E
100
AcDbEntity
  8
legs
 62
256
370
-1
  6
ByLayer
100
AcDbCircle
 10
-54.5
 20
98.0
 30
0.0
 40
7.2945184899347586
100
AcDbArc
 50
122.8558270191370241
 51
164.0546040990770393
  0
ARC
  5
16F
100
AcDbEntity
  8
legs
 62
256
370
-1
  6
ByLayer
100
AcDbCircle
 10
-59.0
 20
104.9677138991113594
 30
0.0
 40
1.0
100
AcDbArc
 50
302.8558270191371662
 51
0.0
  0
LINE
  5
170
100
AcDbEntity
100
AcDbLine
  8
legs
 62
256
370
-1
  6
ByLayer
 10
-47.4861457854189553
 20
100.0039583470231719
 30
0.0
 11
-47.4861457854189553
 21
97.0039583470231719
 31
0.0
  0
LINE
  5
171
100
AcDbEntity
100
AcDbLine
  8
legs
 62
256
370
-1
  6
ByLayer
 10
-61.5138542145810447
 20
100.0039583470231719
 30
0.0
 11
-61.5138542145810447
 21
97.0039583470231719
 31
0.0
  0
LINE
  5
172
100
AcDbEntity
100
AcDbLine
  8
legs
 62
256
370
-1
  6
ByLayer
 10
-61.5138542145810447
 20
97.0039583470231719
 30
0.0
 11
-60.0
 21
97.0000000000000142
 31
0.0
  0
LINE
  5
173
100
AcDbEntity
100
AcDbLine
  8
legs
 62
256
370
-1
  6
ByLayer
 10
-60.0
 20
97.0000000000000142
 30
0.0
 11
-60.0
 21
100.0000000000000142
 31
0.0
  0
LINE
  5
174
100
AcDbEntity
100
AcDbLine
  8
legs
 62
256
370
-1
  6
ByLayer
 10
-60.0
 20
100.0000000000000142
 30
0.0
 11
-59.3999999999999915
 21
100.0000000000000142
 31
0.0
  0
LINE
  5
175
100
AcDbEntity
100
AcDbLine
  8
legs
 62
256
370
-1
  6
ByLayer
 10
-47.4861457854189553
 20
97.0039583470231719
 30
0.0
 11
-49.0
 21
97.0
 31
0.0
  0
LINE
  5
176
100
AcDbEntity
100
AcDbLine
  8
legs
 62
256
370
-1
  6
ByLayer
 10
-49.0
 20
97.0
 30
0.0
 11
-49.0
 21
100.0
 31
0.0
  0
LINE
  5
177
100
AcDbEntity
100
AcDbLine
  8
legs
 62
256
370
-1
  6
ByLayer
 10
-49.0
 20
100.0
 30
0.0
 11
-49.5999999999999943
 21
100.0
 31
0.0
  0
LINE
  5
178
100
AcDbEntity
100
AcDbLine
  8
legs
 62
256
370
-1
  6
ByLayer
 10
-58.0
 20
104.9677138991113594
 30
0.0
 11
-58.0
 21
107.0
 31
0.0
  0
LINE
  5
179
100
AcDbEntity
100
AcDbLine
  8
legs
 62
256
370
-1
  6
ByLayer
 10
-56.0
 20
105.7314592310117689
 30
0.0
 11
-56.0
 21
107.0
 31
0.0
  0
LINE
  5
17A
100
AcDbEntity
100
AcDbLine
  8
legs
 62
256
370
-1
  6
ByLayer
 10
-53.0013952959828032
 20
105.7316053212963141
 30
0.0
 11
-53.0
 21
107.0
 31
0.0
  0
LINE
  5
17B
100
AcDbEntity
100
AcDbLine
  8
legs
 62
256
370
-1
  6
ByLayer
 10
-51.0
 20
104.9677138991113594
 30
0.0
 11
-51.0
 21
107.0
 31
0.0
  0
CIRCLE
  5
17C
100
AcDbEntity
100
AcDbCircle
  8
0
 62
256
370
-1
  6
ByLayer
 10
69.5
 20
129.6700000000000159
 30
0.0
 40
1.0
  0
CIRCLE
  5
17D
100
AcDbEntity
100
AcDbCircle
  8
0
 62
256
370
-1
  6
ByLayer
 10
61.5
 20
129.6700000000000159
 30
0.0
 40
1.0
  0
ARC
  5
17E
100
AcDbEntity
  8
legs
 62
256
370
-1
  6
ByLayer
100
AcDbCircle
 10
65.5
 20
130.6700000000000159
 30
0.0
 40
3.2310988842806982
100
AcDbArc
 50
201.8014094863516164
 51
338.1985905136484121
  0
ARC
  5
17F
100
AcDbEntity
  8
legs
 62
256
370
-1
  6
ByLayer
100
AcDbCircle
 10
69.5
 20
129.6700000000000159
 30
0.0
 40
0.9999999999999958
100
AcDbArc
 50
191.309932474019547
 51
331.0923912178312207
  0
ARC
  5
180
100
AcDbEntity
  8
legs
 62
256
370
-1
  6
ByLayer
100
AcDbCircle
 10
61.5
 20
129.6700000000000159
 30
0.0
 40
0.9999999999999958
100
AcDbArc
 50
208.9076087821687508
 51
348.6900675259805098
  0
ARC
  5
181
100
AcDbEntity
  8
legs
 62
256
370
-1
  6
ByLayer
100
AcDbCircle
 10
66.4999565098652852
 20
125.1351523807330182
 30
0.0
 40
0.5
100
AcDbArc
 50
359.9960750678068848
 51
100.2409081067060299
  0
ARC
  5
182
100
AcDbEntity
  8
legs
 62
256
370
-1
  6
ByLayer
100
AcDbCircle
 10
65.5
 20
130.6700000000000159
 30
0.0
 40
5.1244511901275747
100
AcDbArc
 50
259.7586416906667068
 51
280.2409081067062857
  0
ARC
  5
183
100
AcDbEntity
  8
legs
 62
256
370
-1
  6
ByLayer
100
AcDbCircle
 10
64.5
 20
125.135160238080303
 30
0.0
 40
0.5
100
AcDbArc
 50
79.7586416906664653
 51
180.0
  0
ARC
  5
184
100
AcDbEntity
  8
legs
 62
256
370
-1
  6
ByLayer
100
AcDbCircle
 10
65.5
 20
130.6700000000000159
 30
0.0
 40
5.0960769224963585
100
AcDbArc
 50
317.5765806728650773
 51
343.0769921449443132
  0
ARC
  5
185
100
AcDbEntity
  8
legs
 62
256
370
-1
  6
ByLayer
100
AcDbCircle
 10
70.0
 20
126.5575610831293147
 30
0.0
 40
1.0
100
AcDbArc
 50
137.5765806728647931
 51
180.0
  0
ARC
  5
186
100
AcDbEntity
  8
legs
 62
256
370
-1
  6
ByLayer
100
AcDbCircle
 10
65.5
 20
130.6700000000000159
 30
0.0
 40
5.0960769224963585
100
AcDbArc
 50
196.92300785505563
 51
222.4234193271349511
  0
ARC
  5
187
100
AcDbEntity
  8
legs
 62
256
370
-1
  6
ByLayer
100
AcDbCircle
 10
61.0
 20
126.5575610831293147
 30
0.0
 40
1.0
100
AcDbArc
 50
0.0
 51
42.4234193271352069
  0
LINE
  5
188
100
AcDbEntity
100
AcDbLine
  8
help
 62
256
370
-1
  6
ByLayer
 10
69.5
 20
129.6700000000000159
 30
0.0
 11
69.5
 21
100.0000000000000142
 31
0.0
  0
CIRCLE
  5
189
100
AcDbEntity
100
AcDbCircle
  8
0
 62
256
370
-1
  6
ByLayer
 10
49.5
 20
128.8400000000000318
 30
0.0
 40
1.0
  0
CIRCLE
  5
18A
100
AcDbEntity
100
AcDbCircle
  8
0
 62
256
370
-1
  6
ByLayer
 10
41.5
 20
128.8400000000000318
 30
0.0
 40
1.0
  0
ARC
  5
18B
100
AcDbEntity
  8
legs
 62
256
370
-1
  6
ByLayer
100
AcDbCircle
 10
45.5
 20
129.8400000000000318
 30
0.0
 40
3.2310988842806982
100
AcDbArc
 50
201.8014094863516164
 51
338.1985905136484121
  0
ARC
  5
18C
100
AcDbEntity
  8
legs
 62
256
370
-1
  6
ByLayer
100
AcDbCircle
 10
49.5
 20
128.8400000000000318
 30
0.0
 40
0.9999999999999958
100
AcDbArc
 50
191.309932474019547
 51
331.0923912178312207
  0
ARC
  5
18D
100
AcDbEntity
  8
legs
 62
256
370
-1
  6
ByLayer
100
AcDbCircle
 10
41.5
 20
128.8400000000000318
 30
0.0
 40
0.9999999999999958
100
AcDbArc
 50
208.9076087821687508
 51
348.6900675259805098
  0
ARC
  5
18E
100
AcDbEntity
  8
legs
 62
256
370
-1
  6
ByLayer
100
AcDbCircle
 10
46.4999565098652852
 20
124.3051523807330199
 30
0.0
 40
0.5
100
AcDbArc
 50
359.9960750678068848
 51
100.2409081067060299
  0
ARC
  5
18F
100
AcDbEntity
  8
legs
 62
256
370
-1
  6
ByLayer
100
AcDbCircle
 10
45.5
 20
129.8400000000000318
 30
0.0
 40
5.1244511901275747
100
AcDbArc
 50
259.7586416906667068
 51
280.2409081067062857
  0
ARC
  5
190
100
AcDbEntity
  8
legs
 62
256
370
-1
  6
ByLayer
100
AcDbCircle
 10
44.5
 20
124.3051602380803047
 30
0.0
 40
0.5
100
AcDbArc
 50
79.7586416906664653
 51
180.0
  0
ARC
  5
191
100
AcDbEntity
  8
legs
 62
256
370
-1
  6
ByLayer
100
AcDbCircle
 10
45.5
 20
129.8400000000000318
 30
0.0
 40
5.0960769224963585
100
AcDbArc
 50
317.5765806728650773
 51
343.0769921449443132
  0
ARC
  5
192
100
AcDbEntity
  8
legs
 62
256
370
-1
  6
ByLayer
100
AcDbCircle
 10
50.0
 20
125.7275610831293164
 30
0.0
 40
1.0
100
AcDbArc
 50
137.5765806728647931
 51
180.0
  0
ARC
  5
193
100
AcDbEntity
  8
legs
 62
256
370
-1
  6
ByLayer
100
AcDbCircle
 10
45.5
 20
129.8400000000000318
 30
0.0
 40
5.0960769224963585
100
AcDbArc
 50
196.92300785505563
 51
222.4234193271349511
  0
ARC
  5
194
100
AcDbEntity
  8
legs
 62
256
370
-1
  6
ByLayer
100
AcDbCircle
 10
41.0
 20
125.7275610831293164
 30
0.0
 40
1.0
100
AcDbArc
 50
0.0
 51
42.4234193271352069
  0
LINE
  5
195
100
AcDbEntity
100
AcDbLine
  8
help
 62
256
370
-1
  6
ByLayer
 10
49.5
 20
128.8400000000000318
 30
0.0
 11
49.5
 21
100.0000000000000142
 31
0.0
  0
CIRCLE
  5
196
100
AcDbEntity
100
AcDbCircle
  8
0
 62
256
370
-1
  6
ByLayer
 10
29.5
 20
127.0000000000000142
 30
0.0
 40
1.0
  0
CIRCLE
  5
197
100
AcDbEntity
100
AcDbCircle
  8
0
 62
256
370
-1
  6
ByLayer
 10
21.5
 20
127.0000000000000142
 30
0.0
 40
1.0
  0
ARC
  5
198
100
AcDbEntity
  8
legs
 62
256
370
-1
  6
ByLayer
100
AcDbCircle
 10
25.5
 20
128.0
 30
0.0
 40
3.2310988842806982
100
AcDbArc
 50
201.8014094863516164
 51
338.1985905136484121
  0
ARC
  5
199
100
AcDbEntity
  8
legs
 62
256
370
-1
  6
ByLayer
100
AcDbCircle
 10
29.5
 20
127.0000000000000142
 30
0.0
 40
0.9999999999999958
100
AcDbArc
 50
191.309932474019547
 51
331.0923912178312207
  0
ARC
  5
19A
100
AcDbEntity
  8
legs
 62
256
370
-1
  6
ByLayer
100
AcDbCircle
 10
21.5
 20
127.0000000000000142
 30
0.0
 40
0.9999999999999958
100
AcDbArc
 50
208.9076087821687508
 51
348.6900675259805098
  0
ARC
  5
19B
100
AcDbEntity
  8
legs
 62
256
370
-1
  6
ByLayer
100
AcDbCircle
 10
26.4999565098652852
 20
122.4651523807330165
 30
0.0
 40
0.5
100
AcDbArc
 50
359.9960750678068848
 51
100.2409081067060299
  0
ARC
  5
19C
100
AcDbEntity
  8
legs
 62
256
370
-1
  6
ByLayer
100
AcDbCircle
 10
25.5
 20
128.0
 30
0.0
 40
5.1244511901275747
100
AcDbArc
 50
259.7586416906667068
 51
280.2409081067062857
  0
ARC
  5
19D
100
AcDbEntity
  8
legs
 62
256
370
-1
  6
ByLayer
100
AcDbCircle
 10
24.5
 20
122.4651602380803013
 30
0.0
 40
0.5
100
AcDbArc
 50
79.7586416906664653
 51
180.0
  0
ARC
  5
19E
100
AcDbEntity
  8
legs
 62
256
370
-1
  6
ByLayer
100
AcDbCircle
 10
25.5
 20
128.0
 30
0.0
 40
5.0960769224963585
100
AcDbArc
 50
317.5765806728650773
 51
343.0769921449443132
  0
ARC
  5
19F
100
AcDbEntity
  8
legs
 62
256
370
-1
  6
ByLayer
100
AcDbCircle
 10
30.0
 20
123.887561083129313
 30
0.0
 40
1.0
100
AcDbArc
 50
137.5765806728647931
 51
180.0
  0
ARC
  5
1A0
100
AcDbEntity
  8
legs
 62
256
370
-1
  6
ByLayer
100
AcDbCircle
 10
25.5
 20
128.0
 30
0.0
 40
5.0960769224963585
100
AcDbArc
 50
196.92300785505563
 51
222.4234193271349511
  0
ARC
  5
1A1
100
AcDbEntity
  8
legs
 62
256
370
-1
  6
ByLayer
100
AcDbCircle
 10
21.0
 20
123.887561083129313
 30
0.0
 40
1.0
100
AcDbArc
 50
0.0
 51
42.4234193271352069
  0
LINE
  5
1A2
100
AcDbEntity
100
AcDbLine
  8
help
 62
256
370
-1
  6
ByLayer
 10
29.5
 20
127.0000000000000142
 30
0.0
 11
29.5
 21
100.0000000000000142
 31
0.0
  0
CIRCLE
  5
1A3
100
AcDbEntity
100
AcDbCircle
  8
0
 62
256
370
-1
  6
ByLayer
 10
9.5000000000000036
 20
125.1700000000000159
 30
0.0
 40
1.0
  0
CIRCLE
  5
1A4
100
AcDbEntity
100
AcDbCircle
  8
0
 62
256
370
-1
  6
ByLayer
 10
1.5000000000000036
 20
125.1700000000000159
 30
0.0
 40
1.0
  0
ARC
  5
1A5
100
AcDbEntity
  8
legs
 62
256
370
-1
  6
ByLayer
100
AcDbCircle
 10
5.5000000000000036
 20
126.1700000000000159
 30
0.0
 40
3.2310988842806982
100
AcDbArc
 50
201.8014094863516164
 51
338.1985905136484121
  0
ARC
  5
1A6
100
AcDbEntity
  8
legs
 62
256
370
-1
  6
ByLayer
100
AcDbCircle
 10
9.5000000000000036
 20
125.1700000000000159
 30
0.0
 40
0.9999999999999958
100
AcDbArc
 50
191.309932474019547
 51
331.0923912178312207
  0
ARC
  5
1A7
100
AcDbEntity
  8
legs
 62
256
370
-1
  6
ByLayer
100
AcDbCircle
 10
1.5000000000000036
 20
125.1700000000000159
 30
0.0
 40
0.9999999999999958
100
AcDbArc
 50
208.9076087821687508
 51
348.6900675259805098
  0
ARC
  5
1A8
100
AcDbEntity
  8
legs
 62
256
370
-1
  6
ByLayer
100
AcDbCircle
 10
6.4999565098652887
 20
120.6351523807330182
 30
0.0
 40
0.5
100
AcDbArc
 50
359.9960750678068848
 51
100.2409081067060299
  0
ARC
  5
1A9
100
AcDbEntity
  8
legs
 62
256
370
-1
  6
ByLayer
100
AcDbCircle
 10
5.5000000000000036
 20
126.1700000000000159
 30
0.0
 40
5.1244511901275747
100
AcDbArc
 50
259.7586416906667068
 51
280.2409081067062857
  0
ARC
  5
1AA
100
AcDbEntity
  8
legs
 62
256
370
-1
  6
ByLayer
100
AcDbCircle
 10
4.5000000000000036
 20
120.635160238080303
 30
0.0
 40
0.5
100
AcDbArc
 50
79.7586416906664653
 51
180.0
  0
ARC
  5
1AB
100
AcDbEntity
  8
legs
 62
256
370
-1
  6
ByLayer
100
AcDbCircle
 10
5.5000000000000036
 20
126.1700000000000159
 30
0.0
 40
5.0960769224963585
100
AcDbArc
 50
317.5765806728650773
 51
343.0769921449443132
  0
ARC
  5
1AC
100
AcDbEntity
  8
legs
 62
256
370
-1
  6
ByLayer
100
AcDbCircle
 10
10.0000000000000036
 20
122.0575610831293147
 30
0.0
 40
1.0
100
AcDbArc
 50
137.5765806728647931
 51
180.0
  0
ARC
  5
1AD
100
AcDbEntity
  8
legs
 62
256
370
-1
  6
ByLayer
100
AcDbCircle
 10
5.5000000000000036
 20
126.1700000000000159
 30
0.0
 40
5.0960769224963585
100
AcDbArc
 50
196.92300785505563
 51
222.4234193271349511
  0
ARC
  5
1AE
100
AcDbEntity
  8
legs
 62
256
370
-1
  6
ByLayer
100
AcDbCircle
 10
1.0000000000000036
 20
122.0575610831293147
 30
0.0
 40
1.0
100
AcDbArc
 50
0.0
 51
42.4234193271352069
  0
LINE
  5
1AF
100
AcDbEntity
100
AcDbLine
  8
help
 62
256
370
-1
  6
ByLayer
 10
9.5000000000000036
 20
125.1700000000000159
 30
0.0
 11
9.5000000000000018
 21
100.0000000000000142
 31
0.0
  0
CIRCLE
  5
1B0
100
AcDbEntity
100
AcDbCircle
  8
0
 62
256
370
-1
  6
ByLayer
 10
-10.4999999999999982
 20
123.5000000000000142
 30
0.0
 40
1.0
  0
CIRCLE
  5
1B1
100
AcDbEntity
100
AcDbCircle
  8
0
 62
256
370
-1
  6
ByLayer
 10
-18.5
 20
123.5000000000000142
 30
0.0
 40
1.0
  0
ARC
  5
1B2
100
AcDbEntity
  8
legs
 62
256
370
-1
  6
ByLayer
100
AcDbCircle
 10
-14.4999999999999982
 20
124.5000000000000142
 30
0.0
 40
3.2310988842806982
100
AcDbArc
 50
201.8014094863516164
 51
338.1985905136484121
  0
ARC
  5
1B3
100
AcDbEntity
  8
legs
 62
256
370
-1
  6
ByLayer
100
AcDbCircle
 10
-10.4999999999999982
 20
123.5000000000000142
 30
0.0
 40
0.9999999999999958
100
AcDbArc
 50
191.309932474019547
 51
331.0923912178312207
  0
ARC
  5
1B4
100
AcDbEntity
  8
legs
 62
256
370
-1
  6
ByLayer
100
AcDbCircle
 10
-18.5
 20
123.5000000000000142
 30
0.0
 40
0.9999999999999958
100
AcDbArc
 50
208.9076087821687508
 51
348.6900675259805098
  0
ARC
  5
1B5
100
AcDbEntity
  8
legs
 62
256
370
-1
  6
ByLayer
100
AcDbCircle
 10
-13.5000434901347131
 20
118.9651523807330165
 30
0.0
 40
0.5
100
AcDbArc
 50
359.9960750678068848
 51
100.2409081067060299
  0
ARC
  5
1B6
100
AcDbEntity
  8
legs
 62
256
370
-1
  6
ByLayer
100
AcDbCircle
 10
-14.4999999999999982
 20
124.5000000000000142
 30
0.0
 40
5.1244511901275747
100
AcDbArc
 50
259.7586416906667068
 51
280.2409081067062857
  0
ARC
  5
1B7
100
AcDbEntity
  8
legs
 62
256
370
-1
  6
ByLayer
100
AcDbCircle
 10
-15.4999999999999982
 20
118.9651602380803013
 30
0.0
 40
0.5
100
AcDbArc
 50
79.7586416906664653
 51
180.0
  0
ARC
  5
1B8
100
AcDbEntity
  8
legs
 62
256
370
-1
  6
ByLayer
100
AcDbCircle
 10
-14.4999999999999982
 20
124.5000000000000142
 30
0.0
 40
5.0960769224963585
100
AcDbArc
 50
317.5765806728650773
 51
343.0769921449443132
  0
ARC
  5
1B9
100
AcDbEntity
  8
legs
 62
256
370
-1
  6
ByLayer
100
AcDbCircle
 10
-9.9999999999999982
 20
120.387561083129313
 30
0.0
 40
1.0
100
AcDbArc
 50
137.5765806728647931
 51
180.0
  0
ARC
  5
1BA
100
AcDbEntity
  8
legs
 62
256
370
-1
  6
ByLayer
100
AcDbCircle
 10
-14.4999999999999982
 20
124.5000000000000142
 30
0.0
 40
5.0960769224963585
100
AcDbArc
 50
196.92300785505563
 51
222.4234193271349511
  0
ARC
  5
1BB
100
AcDbEntity
  8
legs
 62
256
370
-1
  6
ByLayer
100
AcDbCircle
 10
-19.0
 20
120.387561083129313
 30
0.0
 40
1.0
100
AcDbArc
 50
0.0
 51
42.4234193271352069
  0
LINE
  5
1BC
100
AcDbEntity
100
AcDbLine
  8
help
 62
256
370
-1
  6
ByLayer
 10
-10.4999999999999982
 20
123.5000000000000142
 30
0.0
 11
-10.5
 21
100.0000000000000142
 31
0.0
  0
CIRCLE
  5
1BD
100
AcDbEntity
100
AcDbCircle
  8
0
 62
256
370
-1
  6
ByLayer
 10
-30.5
 20
121.6700000000000159
 30
0.0
 40
1.0
  0
CIRCLE
  5
1BE
100
AcDbEntity
100
AcDbCircle
  8
0
 62
256
370
-1
  6
ByLayer
 10
-38.5
 20
121.6700000000000159
 30
0.0
 40
1.0
  0
ARC
  5
1BF
100
AcDbEntity
  8
legs
 62
256
370
-1
  6
ByLayer
100
AcDbCircle
 10
-34.5
 20
122.6700000000000159
 30
0.0
 40
3.2310988842806982
100
AcDbArc
 50
201.8014094863516164
 51
338.1985905136484121
  0
ARC
  5
1C0
100
AcDbEntity
  8
legs
 62
256
370
-1
  6
ByLayer
100
AcDbCircle
 10
-30.5
 20
121.6700000000000159
 30
0.0
 40
0.9999999999999958
100
AcDbArc
 50
191.309932474019547
 51
331.0923912178312207
  0
ARC
  5
1C1
100
AcDbEntity
  8
legs
 62
256
370
-1
  6
ByLayer
100
AcDbCircle
 10
-38.5
 20
121.6700000000000159
 30
0.0
 40
0.9999999999999958
100
AcDbArc
 50
208.9076087821687508
 51
348.6900675259805098
  0
ARC
  5
1C2
100
AcDbEntity
  8
legs
 62
256
370
-1
  6
ByLayer
100
AcDbCircle
 10
-33.5000434901347148
 20
117.1351523807330182
 30
0.0
 40
0.5
100
AcDbArc
 50
359.9960750678068848
 51
100.2409081067060299
  0
ARC
  5
1C3
100
AcDbEntity
  8
legs
 62
256
370
-1
  6
ByLayer
100
AcDbCircle
 10
-34.5
 20
122.6700000000000159
 30
0.0
 40
5.1244511901275747
100
AcDbArc
 50
259.7586416906667068
 51
280.2409081067062857
  0
ARC
  5
1C4
100
AcDbEntity
  8
legs
 62
256
370
-1
  6
ByLayer
100
AcDbCircle
 10
-35.5
 20
117.135160238080303
 30
0.0
 40
0.5
100
AcDbArc
 50
79.7586416906664653
 51
180.0
  0
ARC
  5
1C5
100
AcDbEntity
  8
legs
 62
256
370
-1
  6
ByLayer
100
AcDbCircle
 10
-34.5
 20
122.6700000000000159
 30
0.0
 40
5.0960769224963585
100
AcDbArc
 50
317.5765806728650773
 51
343.0769921449443132
  0
ARC
  5
1C6
100
AcDbEntity
  8
legs
 62
256
370
-1
  6
ByLayer
100
AcDbCircle
 10
-30.0
 20
118.5575610831293147
 30
0.0
 40
1.0
100
AcDbArc
 50
137.5765806728647931
 51
180.0
  0
ARC
  5
1C7
100
AcDbEntity
  8
legs
 62
256
370
-1
  6
ByLayer
100
AcDbCircle
 10
-34.5
 20
122.6700000000000159
 30
0.0
 40
5.0960769224963585
100
AcDbArc
 50
196.92300785505563
 51
222.4234193271349511
  0
ARC
  5
1C8
100
AcDbEntity
  8
legs
 62
256
370
-1
  6
ByLayer
100
AcDbCircle
 10
-39.0
 20
118.5575610831293147
 30
0.0
 40
1.0
100
AcDbArc
 50
0.0
 51
42.4234193271352069
  0
LINE
  5
1C9
100
AcDbEntity
100
AcDbLine
  8
help
 62
256
370
-1
  6
ByLayer
 10
-30.5
 20
121.6700000000000159
 30
0.0
 11
-30.5
 21
100.0000000000000142
 31
0.0
  0
CIRCLE
  5
1CA
100
AcDbEntity
100
AcDbCircle
  8
0
 62
256
370
-1
  6
ByLayer
 10
-50.5
 20
120.0000000000000142
 30
0.0
 40
1.0
  0
CIRCLE
  5
1CB
100
AcDbEntity
100
AcDbCircle
  8
0
 62
256
370
-1
  6
ByLayer
 10
-58.5
 20
120.0000000000000142
 30
0.0
 40
1.0
  0
ARC
  5
1CC
100
AcDbEntity
  8
legs
 62
256
370
-1
  6
ByLayer
100
AcDbCircle
 10
-54.5
 20
121.0000000000000142
 30
0.0
 40
3.2310988842806982
100
AcDbArc
 50
201.8014094863516164
 51
338.1985905136484121
  0
ARC
  5
1CD
100
AcDbEntity
  8
legs
 62
256
370
-1
  6
ByLayer
100
AcDbCircle
 10
-50.5
 20
120.0000000000000142
 30
0.0
 40
0.9999999999999958
100
AcDbArc
 50
191.309932474019547
 51
331.0923912178312207
  0
ARC
  5
1CE
100
AcDbEntity
  8
legs
 62
256
370
-1
  6
ByLayer
100
AcDbCircle
 10
-58.5
 20
120.0000000000000142
 30
0.0
 40
0.9999999999999958
100
AcDbArc
 50
208.9076087821687508
 51
348.6900675259805098
  0
ARC
  5
1CF
100
AcDbEntity
  8
legs
 62
256
370
-1
  6
ByLayer
100
AcDbCircle
 10
-53.5000434901347148
 20
115.4651523807330165
 30
0.0
 40
0.5
100
AcDbArc
 50
359.9960750678068848
 51
100.2409081067060299
  0
ARC
  5
1D0
100
AcDbEntity
  8
legs
 62
256
370
-1
  6
ByLayer
100
AcDbCircle
 10
-54.5
 20
121.0000000000000142
 30
0.0
 40
5.1244511901275747
100
AcDbArc
 50
259.7586416906667068
 51
280.2409081067062857
  0
ARC
  5
1D1
100
AcDbEntity
  8
legs
 62
256
370
-1
  6
ByLayer
100
AcDbCircle
 10
-55.5
 20
115.4651602380803013
 30
0.0
 40
0.5
100
AcDbArc
 50
79.7586416906664653
 51
180.0
  0
ARC
  5
1D2
100
AcDbEntity
  8
legs
 62
256
370
-1
  6
ByLayer
100
AcDbCircle
 10
-54.5
 20
121.0000000000000142
 30
0.0
 40
5.0960769224963585
100
AcDbArc
 50
317.5765806728650773
 51
343.0769921449443132
  0
ARC
  5
1D3
100
AcDbEntity
  8
legs
 62
256
370
-1
  6
ByLayer
100
AcDbCircle
 10
-50.0
 20
116.887561083129313
 30
0.0
 40
1.0
100
AcDbArc
 50
137.5765806728647931
 51
180.0
  0
ARC
  5
1D4
100
AcDbEntity
  8
legs
 62
256
370
-1
  6
ByLayer
100
AcDbCircle
 10
-54.5
 20
121.0000000000000142
 30
0.0
 40
5.0960769224963585
100
AcDbArc
 50
196.92300785505563
 51
222.4234193271349511
  0
ARC
  5
1D5
100
AcDbEntity
  8
legs
 62
256
370
-1
  6
ByLayer
100
AcDbCircle
 10
-59.0
 20
116.887561083129313
 30
0.0
 40
1.0
100
AcDbArc
 50
0.0
 51
42.4234193271352069
  0
LINE
  5
1D6
100
AcDbEntity
100
AcDbLine
  8
help
 62
256
370
-1
  6
ByLayer
 10
-50.5
 20
120.0000000000000142
 30
0.0
 11
-50.5
 21
100.0000000000000142
 31
0.0
  0
LINE
  5
1D7
100
AcDbEntity
100
AcDbLine
  8
legs
 62
256
370
-1
  6
ByLayer
 10
-58.0
 20
116.887561083129313
 30
0.0
 11
-58.0
 21
107.0
 31
0.0
  0
LINE
  5
1D8
100
AcDbEntity
100
AcDbLine
  8
legs
 62
256
370
-1
  6
ByLayer
 10
-56.0
 20
115.4651602380803013
 30
0.0
 11
-56.0
 21
107.0
 31
0.0
  0
LINE
  5
1D9
100
AcDbEntity
100
AcDbLine
  8
legs
 62
256
370
-1
  6
ByLayer
 10
-53.0000434913078777
 20
115.4651181292382063
 30
0.0
 11
-53.0
 21
107.0
 31
0.0
  0
LINE
  5
1DA
100
AcDbEntity
100
AcDbLine
  8
legs
 62
256
370
-1
  6
ByLayer
 10
-51.0
 20
116.887561083129313
 30
0.0
 11
-51.0
 21
107.0
 31
0.0
  0
LINE
  5
1DB
100
AcDbEntity
100
AcDbLine
  8
legs
 62
256
370
-1
  6
ByLayer
 10
-38.0
 20
118.5575610831293147
 30
0.0
 11
-38.0
 21
107.0
 31
0.0
  0
LINE
  5
1DC
100
AcDbEntity
100
AcDbLine
  8
legs
 62
256
370
-1
  6
ByLayer
 10
-36.0
 20
117.135160238080303
 30
0.0
 11
-36.0
 21
107.0
 31
0.0
  0
LINE
  5
1DD
100
AcDbEntity
100
AcDbLine
  8
legs
 62
256
370
-1
  6
ByLayer
 10
-33.0000434913078777
 20
117.135118129238208
 30
0.0
 11
-33.0
 21
107.0
 31
0.0
  0
LINE
  5
1DE
100
AcDbEntity
100
AcDbLine
  8
legs
 62
256
370
-1
  6
ByLayer
 10
-31.0
 20
118.5575610831293147
 30
0.0
 11
-31.0
 21
107.0
 31
0.0
  0
LINE
  5
1DF
100
AcDbEntity
100
AcDbLine
  8
legs
 62
256
370
-1
  6
ByLayer
 10
-18.0
 20
120.387561083129313
 30
0.0
 11
-18.0
 21
107.0
 31
0.0
  0
LINE
  5
1E0
100
AcDbEntity
100
AcDbLine
  8
legs
 62
256
370
-1
  6
ByLayer
 10
-15.9999999999999982
 20
118.9651602380803013
 30
0.0
 11
-16.0
 21
107.0
 31
0.0
  0
LINE
  5
1E1
100
AcDbEntity
100
AcDbLine
  8
legs
 62
256
370
-1
  6
ByLayer
 10
-13.0000434913078777
 20
118.9651181292382063
 30
0.0
 11
-13.0
 21
107.0
 31
0.0
  0
LINE
  5
1E2
100
AcDbEntity
100
AcDbLine
  8
legs
 62
256
370
-1
  6
ByLayer
 10
-10.9999999999999982
 20
120.387561083129313
 30
0.0
 11
-11.0
 21
107.0
 31
0.0
  0
LINE
  5
1E3
100
AcDbEntity
100
AcDbLine
  8
legs
 62
256
370
-1
  6
ByLayer
 10
2.0000000000000036
 20
122.0575610831293147
 30
0.0
 11
2.0
 21
107.0
 31
0.0
  0
LINE
  5
1E4
100
AcDbEntity
100
AcDbLine
  8
legs
 62
256
370
-1
  6
ByLayer
 10
4.0000000000000036
 20
120.635160238080303
 30
0.0
 11
4.0
 21
107.0
 31
0.0
  0
LINE
  5
1E5
100
AcDbEntity
100
AcDbLine
  8
legs
 62
256
370
-1
  6
ByLayer
 10
6.999956508692124
 20
120.635118129238208
 30
0.0
 11
7.0
 21
107.0
 31
0.0
  0
LINE
  5
1E6
100
AcDbEntity
100
AcDbLine
  8
legs
 62
256
370
-1
  6
ByLayer
 10
9.0000000000000036
 20
122.0575610831293147
 30
0.0
 11
9.0
 21
107.0
 31
0.0
  0
LINE
  5
1E7
100
AcDbEntity
100
AcDbLine
  8
legs
 62
256
370
-1
  6
ByLayer
 10
22.0
 20
123.887561083129313
 30
0.0
 11
22.0
 21
107.0
 31
0.0
  0
LINE
  5
1E8
100
AcDbEntity
100
AcDbLine
  8
legs
 62
256
370
-1
  6
ByLayer
 10
24.0
 20
122.4651602380803013
 30
0.0
 11
24.0
 21
107.0
 31
0.0
  0
LINE
  5
1E9
100
AcDbEntity
100
AcDbLine
  8
legs
 62
256
370
-1
  6
ByLayer
 10
26.9999565086921187
 20
122.4651181292382063
 30
0.0
 11
27.0
 21
107.0
 31
0.0
  0
LINE
  5
1EA
100
AcDbEntity
100
AcDbLine
  8
legs
 62
256
370
-1
  6
ByLayer
 10
29.0
 20
123.887561083129313
 30
0.0
 11
29.0
 21
107.0
 31
0.0
  0
LINE
  5
1EB
100
AcDbEntity
100
AcDbLine
  8
legs
 62
256
370
-1
  6
ByLayer
 10
42.0
 20
125.7275610831293164
 30
0.0
 11
42.0
 21
107.0
 31
0.0
  0
LINE
  5
1EC
100
AcDbEntity
100
AcDbLine
  8
legs
 62
256
370
-1
  6
ByLayer
 10
44.0
 20
124.3051602380803047
 30
0.0
 11
44.0
 21
107.0
 31
0.0
  0
LINE
  5
1ED
100
AcDbEntity
100
AcDbLine
  8
legs
 62
256
370
-1
  6
ByLayer
 10
46.9999565086921223
 20
124.3051181292382097
 30
0.0
 11
47.0
 21
107.0
 31
0.0
  0
LINE
  5
1EE
100
AcDbEntity
100
AcDbLine
  8
legs
 62
256
370
-1
  6
ByLayer
 10
49.0
 20
125.7275610831293164
 30
0.0
 11
49.0
 21
107.0
 31
0.0
  0
LINE
  5
1EF
100
AcDbEntity
100
AcDbLine
  8
legs
 62
256
370
-1
  6
ByLayer
 10
62.0
 20
126.5575610831293147
 30
0.0
 11
62.0
 21
107.0
 31
0.0
  0
LINE
  5
1F0
100
AcDbEntity
100
AcDbLine
  8
legs
 62
256
370
-1
  6
ByLayer
 10
64.0
 20
107.0
 30
0.0
 11
64.0
 21
125.135160238080303
 31
0.0
  0
LINE
  5
1F1
100
AcDbEntity
100
AcDbLine
  8
legs
 62
256
370
-1
  6
ByLayer
 10
66.9999565086921223
 20
125.135118129238208
 30
0.0
 11
67.0
 21
107.0
 31
0.0
  0
LINE
  5
1F2
100
AcDbEntity
100
AcDbLine
  8
legs
 62
256
370
-1
  6
ByLayer
 10
69.0
 20
107.0
 30
0.0
 11
69.0
 21
126.5575610831293147
 31
0.0
  0
DIMENSION
  5
1F3
100
AcDbEntity
  8
dimension
 62
256
370
-1
  6
ByLayer
100
AcDbDimension
 10
74.0
 20
100.0
 30
0.0
 11
72.125
 21
114.835000000000008
 31
0.0
 70
0
 71
5
 72
0
 41
1.0
 42
0.0
  1

  3
Standard
100
AcDbAlignedDimension
 13
69.5
 23
129.6700000000000159
 33
0.0
 14
69.4999999999999716
 24
100.0
 34
0.0
 50
90.0
100
AcDbRotatedDimension
  0
DIMENSION
  5
1F4
100
AcDbEntity
  8
dimension
 62
256
370
-1
  6
ByLayer
100
AcDbDimension
 10
54.0
 20
100.0
 30
0.0
 11
52.125
 21
114.4200000000000159
 31
0.0
 70
0
 71
5
 72
0
 41
1.0
 42
0.0
  1

  3
Standard
100
AcDbAlignedDimension
 13
49.5
 23
128.8400000000000318
 33
0.0
 14
49.5
 24
100.0
 34
0.0
 50
90.0
100
AcDbRotatedDimension
  0
DIMENSION
  5
1F5
100
AcDbEntity
  8
dimension
 62
256
370
-1
  6
ByLayer
100
AcDbDimension
 10
34.0
 20
100.0
 30
0.0
 11
32.125
 21
113.5
 31
0.0
 70
0
 71
5
 72
0
 41
1.0
 42
0.0
  1

  3
Standard
100
AcDbAlignedDimension
 13
29.5
 23
127.0000000000000142
 33
0.0
 14
29.5
 24
100.0
 34
0.0
 50
90.0
100
AcDbRotatedDimension
  0
DIMENSION
  5
1F6
100
AcDbEntity
  8
dimension
 62
256
370
-1
  6
ByLayer
100
AcDbDimension
 10
14.0
 20
100.0
 30
0.0
 11
12.125
 21
112.585000000000008
 31
0.0
 70
0
 71
5
 72
0
 41
1.0
 42
0.0
  1

  3
Standard
100
AcDbAlignedDimension
 13
9.5000000000000036
 23
125.1700000000000159
 33
0.0
 14
9.5000000000000018
 24
100.0
 34
0.0
 50
90.0
100
AcDbRotatedDimension
  0
DIMENSION
  5
1F7
100
AcDbEntity
  8
dimension
 62
256
370
-1
  6
ByLayer
100
AcDbDimension
 10
-6.0
 20
100.0
 30
0.0
 11
-7.8749999999999991
 21
111.75
 31
0.0
 70
0
 71
5
 72
0
 41
1.0
 42
0.0
  1

  3
Standard
100
AcDbAlignedDimension
 13
-10.4999999999999982
 23
123.5000000000000142
 33
0.0
 14
-10.5
 24
100.0
 34
0.0
 50
90.0
100
AcDbRotatedDimension
  0
DIMENSION
  5
1F8
100
AcDbEntity
  8
dimension
 62
256
370
-1
  6
ByLayer
100
AcDbDimension
 10
-26.0
 20
100.0
 30
0.0
 11
-27.875
 21
110.835000000000008
 31
0.0
 70
0
 71
5
 72
0
 41
1.0
 42
0.0
  1

  3
Standard
100
AcDbAlignedDimension
 13
-30.5
 23
121.6700000000000159
 33
0.0
 14
-30.5000000000000142
 24
100.0
 34
0.0
 50
90.0
100
AcDbRotatedDimension
  0
DIMENSION
  5
1F9
100
AcDbEntity
  8
dimension
 62
256
370
-1
  6
ByLayer
100
AcDbDimension
 10
-46.0
 20
100.0
 30
0.0
 11
-47.875
 21
110.0
 31
0.0
 70
0
 71
5
 72
0
 41
1.0
 42
0.0
  1

  3
Standard
100
AcDbAlignedDimension
 13
-50.5
 23
120.0000000000000142
 33
0.0
 14
-50.5
 24
100.0
 34
0.0
 50
90.0
100
AcDbRotatedDimension
  0
LINE
  5
1FA
100
AcDbEntity
100
AcDbLine
  8
0
 62
256
370
-1
  6
ByLayer
 10
100.0
 20
100.0
 30
0.0
 11
-70.0
 21
100.0
 31
0.0
  0
CIRCLE
  5
1FB
100
AcDbEntity
100
AcDbCircle
  8
ball
 62
256
370
-1
  6
ByLayer
 10
63.0
 20
50.0
 30
0.0
 40
5.0
  0
ARC
  5
1FC
100
AcDbEntity
  8
arm_down
 62
256
370
-1
  6
ByLayer
100
AcDbCircle
 10
63.0
 20
50.0
 30
0.0
 40
5.3150729063673197
100
AcDbArc
 50
194.0362434679264823
 51
311.1859251657096479
  0
ARC
  5
1FD
100
AcDbEntity
  8
arm_down
 62
256
370
-1
  6
ByLayer
100
AcDbCircle
 10
63.0
 20
50.0
 30
0.0
 40
7.3150729063673197
100
AcDbArc
 50
194.0362434679264823
 51
311.1859251657096479
  0
LINE
  5
1FE
100
AcDbEntity
100
AcDbLine
  8
arm_down
 62
256
370
-1
  6
ByLayer
 10
66.5
 20
46.0000000000000071
 30
0.0
 11
67.8170092157370306
 21
44.4948466105862508
 31
0.0
  0
LINE
  5
1FF
100
AcDbEntity
100
AcDbLine
  8
arm_down
 62
256
370
-1
  6
ByLayer
 10
57.8436218821620969
 20
48.7109054705405242
 30
0.0
 11
55.9033368818714322
 21
48.2258342204678598
 31
0.0
  0
LINE
  5
200
100
AcDbEntity
100
AcDbLine
  8
0
 62
256
370
-1
  6
ByLayer
 10
9.0
 20
62.0
 30
0.0
 11
49.0
 21
62.0
 31
0.0
  0
LINE
  5
201
100
AcDbEntity
100
AcDbLine
  8
0
 62
256
370
-1
  6
ByLayer
 10
9.0
 20
60.0
 30
0.0
 11
49.0
 21
60.0
 31
0.0
  0
LINE
  5
202
100
AcDbEntity
100
AcDbLine
  8
0
 62
256
370
-1
  6
ByLayer
 10
49.0
 20
62.0
 30
0.0
 11
49.0
 21
60.0
 31
0.0
  0
CIRCLE
  5
203
100
AcDbEntity
100
AcDbCircle
  8
arm_down
 62
256
370
-1
  6
ByLayer
 10
42.0
 20
48.0
 30
0.0
 40
1.5
  0
CIRCLE
  5
204
100
AcDbEntity
100
AcDbCircle
  8
arm_down
 62
256
370
-1
  6
ByLayer
 10
35.0
 20
36.0
 30
0.0
 40
1.5
  0
ARC
  5
205
100
AcDbEntity
  8
arm_down
 62
256
370
-1
  6
ByLayer
100
AcDbCircle
 10
35.0
 20
36.0
 30
0.0
 40
3.000000000000004
100
AcDbArc
 50
89.7435628364707298
 51
29.7435628364708329
  0
ARC
  5
206
100
AcDbEntity
  8
arm_down
 62
256
370
-1
  6
ByLayer
100
AcDbCircle
 10
42.0
 20
48.0
 30
0.0
 40
3.0000000000000004
100
AcDbArc
 50
29.9999999999999964
 51
209.7435628364706872
  0
ARC
  5
207
100
AcDbEntity
  8
arm_down
 62
256
370
-1
  6
ByLayer
100
AcDbCircle
 10
42.0
 20
48.0
 30
0.0
 40
3.0
100
AcDbArc
 50
269.7435628364707441
 51
330.0
  0
LINE
  5
208
100
AcDbEntity
100
AcDbLine
  8
arm_down
 62
256
370
-1
  6
ByLayer
 10
39.395236323648021
 20
46.5116431239929966
 30
0.0
 11
35.0134269736566779
 21
38.9999699525792707
 31
0.0
  0
LINE
  5
209
100
AcDbEntity
100
AcDbLine
  8
arm_down
 62
256
370
-1
  6
ByLayer
 10
41.9865730263433221
 20
45.0000300474207364
 30
0.0
 11
37.604763676351979
 21
37.4883568760070105
 31
0.0
  0
LINE
  5
20A
100
AcDbEntity
100
AcDbLine
  8
arm_down
 62
256
370
-1
  6
ByLayer
 10
44.598076211353316
 20
49.5
 30
0.0
 11
57.8436218821620969
 21
48.7109054705405242
 31
0.0
  0
LINE
  5
20B
100
AcDbEntity
100
AcDbLine
  8
arm_down
 62
256
370
-1
  6
ByLayer
 10
44.598076211353316
 20
46.5
 30
0.0
 11
56.194217425243906
 21
47.3182813028552829
 31
0.0
  0
ARC
  5
20C
100
AcDbEntity
  8
arm_down
 62
256
370
-1
  6
ByLayer
100
AcDbCircle
 10
50.7679491924311108
 20
67.1865334794732121
 30
0.0
 40
5.3150729063673197
100
AcDbArc
 50
254.0362434679264538
 51
11.1859251657096568
  0
ARC
  5
20D
100
AcDbEntity
  8
arm_down
 62
256
370
-1
  6
ByLayer
100
AcDbCircle
 10
50.7679491924311108
 20
67.1865334794732121
 30
0.0
 40
7.3150729063673197
100
AcDbArc
 50
254.0362434679264538
 51
11.1859251657096568
  0
LINE
  5
20E
100
AcDbEntity
100
AcDbLine
  8
arm_down
 62
256
370
-1
  6
ByLayer
 10
55.9820508075688963
 20
68.217622392718738
 30
0.0
 11
57.9440564872619532
 21
68.6056091358583586
 31
0.0
  0
LINE
  5
20F
100
AcDbEntity
100
AcDbLine
  8
arm_down
 62
256
370
-1
  6
ByLayer
 10
49.306148743903627
 20
62.07643177317766
 30
0.0
 11
48.7560902689666733
 21
60.1535600473077281
 31
0.0
  0
CIRCLE
  5
210
100
AcDbEntity
100
AcDbCircle
  8
arm_down
 62
256
370
-1
  6
ByLayer
 10
42.0
 20
48.0
 30
0.0
 40
1.5
  0
CIRCLE
  5
211
100
AcDbEntity
100
AcDbCircle
  8
arm_down
 62
256
370
-1
  6
ByLayer
 10
48.892304845413264
 20
35.9378221735089269
 30
0.0
 40
1.5
  0
ARC
  5
212
100
AcDbEntity
  8
arm_down
 62
256
370
-1
  6
ByLayer
100
AcDbCircle
 10
48.892304845413264
 20
35.9378221735089269
 30
0.0
 40
3.000000000000004
100
AcDbArc
 50
149.7435628364707156
 51
89.7435628364708151
  0
ARC
  5
213
100
AcDbEntity
  8
arm_down
 62
256
370
-1
  6
ByLayer
100
AcDbCircle
 10
42.0
 20
48.0
 30
0.0
 40
3.0000000000000004
100
AcDbArc
 50
90.0
 51
269.7435628364706872
  0
ARC
  5
214
100
AcDbEntity
  8
arm_down
 62
256
370
-1
  6
ByLayer
100
AcDbCircle
 10
42.0
 20
48.0
 30
0.0
 40
3.0
100
AcDbArc
 50
329.7435628364706872
 51
29.9999999999999645
  0
LINE
  5
215
100
AcDbEntity
100
AcDbLine
  8
arm_down
 62
256
370
-1
  6
ByLayer
 10
41.986573026343315
 20
45.0000300474207364
 30
0.0
 11
46.3009681427179558
 21
37.4494352500811942
 31
0.0
  0
LINE
  5
216
100
AcDbEntity
100
AcDbLine
  8
arm_down
 62
256
370
-1
  6
ByLayer
 10
44.5913367026953011
 20
46.4883869234277398
 30
0.0
 11
48.9057318190699348
 21
38.9377921260881976
 31
0.0
  0
LINE
  5
217
100
AcDbEntity
100
AcDbLine
  8
arm_down
 62
256
370
-1
  6
ByLayer
 10
42.0
 20
51.0
 30
0.0
 11
49.306148743903627
 21
62.07643177317766
 31
0.0
  0
LINE
  5
218
100
AcDbEntity
100
AcDbLine
  8
arm_down
 62
256
370
-1
  6
ByLayer
 10
44.598076211353316
 20
49.5
 30
0.0
 11
49.6874944225841091
 21
59.9516935285286081
 31
0.0
  0
DIMENSION
  5
219
100
AcDbEntity
  8
dimension
 62
256
370
-1
  6
ByLayer
100
AcDbDimension
 10
48.892304845413264
 20
27.5344268875747495
 30
0.0
 11
41.946152422706632
 21
29.4094268875747495
 31
0.0
 70
0
 71
5
 72
1
 41
1.0
 42
0.0
  1

  3
Standard
100
AcDbAlignedDimension
 13
35.0
 23
36.0
 33
0.0
 14
48.892304845413264
 24
35.9378221735089269
 34
0.0
 50
0.0
100
AcDbRotatedDimension
  0
CIRCLE
  5
21A
100
AcDbEntity
100
AcDbCircle
  8
gear
 62
256
370
-1
  6
ByLayer
 10
5.8343208849864787
 20
45.0580807209540168
 30
0.0
 40
7.0
  0
CIRCLE
  5
21B
100
AcDbEntity
100
AcDbCircle
  8
gear
 62
256
370
-1
  6
ByLayer
 10
5.8343208849864752
 20
45.0580807209540168
 30
0.0
 40
10.0
  0
CIRCLE
  5
21C
100
AcDbEntity
100
AcDbCircle
  8
gear
 62
256
370
-1
  6
ByLayer
 10
12.6823873266927549
 20
43.6075683942309382
 30
0.0
 40
1.5
  0
CIRCLE
  5
21D
100
AcDbEntity
100
AcDbCircle
  8
gear
 62
256
370
-1
  6
ByLayer
 10
-0.850695598924375
 20
47.1342682389399101
 30
0.0
 40
1.5
  0
LINE
  5
21E
100
AcDbEntity
100
AcDbLine
  8
gear
 62
256
370
-1
  6
ByLayer
 10
48.892304845413264
 20
35.9378221735089269
 30
0.0
 11
12.6823873266927549
 21
43.6075683942309382
 31
0.0
  0
LINE
  5
21F
100
AcDbEntity
100
AcDbLine
  8
gear
 62
256
370
-1
  6
ByLayer
 10
35.0
 20
36.0
 30
0.0
 11
-0.850695598924375
 21
47.1342682389399101
 31
0.0
  0
CIRCLE
  5
220
100
AcDbEntity
100
AcDbCircle
  8
ball
 62
256
370
-1
  6
ByLayer
 10
50.7679491924311108
 20
67.1865334794732121
 30
0.0
 40
5.0
  0
CIRCLE
  5
221
100
AcDbEntity
100
AcDbCircle
  8
gear
 62
256
370
-1
  6
ByLayer
 10
-80.0
 20
50.0
 30
0.0
 40
10.0
  0
CIRCLE
  5
222
100
AcDbEntity
100
AcDbCircle
  8
gear
 62
256
370
-1
  6
ByLayer
 10
-80.0
 20
50.0
 30
0.0
 40
1.5
  0
CIRCLE
  5
223
100
AcDbEntity
100
AcDbCircle
  8
gear
 62
256
370
-1
  6
ByLayer
 10
-80.0
 20
50.0
 30
0.0
 40
4.0
  0
LINE
  5
224
100
AcDbEntity
100
AcDbLine
  8
gear
 62
256
370
-1
  6
ByLayer
 10
-40.0
 20
40.0
 30
0.0
 11
-40.0
 21
60.0
 31
0.0
  0
LINE
  5
225
100
AcDbEntity
100
AcDbLine
  8
gear
 62
256
370
-1
  6
ByLayer
 10
-40.0
 20
60.0
 30
0.0
 11
-43.0
 21
60.0
 31
0.0
  0
LINE
  5
226
100
AcDbEntity
100
AcDbLine
  8
gear
 62
256
370
-1
  6
ByLayer
 10
-43.0
 20
60.0
 30
0.0
 11
-43.0
 21
40.0
 31
0.0
  0
LINE
  5
227
100
AcDbEntity
100
AcDbLine
  8
gear
 62
256
370
-1
  6
ByLayer
 10
-43.0
 20
40.0
 30
0.0
 11
-40.0
 21
40.0
 31
0.0
  0
LINE
  5
228
100
AcDbEntity
100
AcDbLine
  8
gear
 62
256
370
-1
  6
ByLayer
 10
-43.0
 20
54.0
 30
0.0
 11
-49.0
 21
54.0
 31
0.0
  0
LINE
  5
229
100
AcDbEntity
100
AcDbLine
  8
gear
 62
256
370
-1
  6
ByLayer
 10
-49.0
 20
54.0
 30
0.0
 11
-49.0
 21
46.0
 31
0.0
  0
LINE
  5
22A
100
AcDbEntity
100
AcDbLine
  8
gear
 62
256
370
-1
  6
ByLayer
 10
-49.0
 20
46.0
 30
0.0
 11
-43.0
 21
46.0
 31
0.0
  0
LINE
  5
22B
100
AcDbEntity
100
AcDbLine
  8
gear
 62
256
370
-1
  6
ByLayer
 10
-49.0
 20
51.5
 30
0.0
 11
-40.0
 21
51.5
 31
0.0
  0
LINE
  5
22C
100
AcDbEntity
100
AcDbLine
  8
gear
 62
256
370
-1
  6
ByLayer
 10
-40.0
 20
48.5
 30
0.0
 11
-49.0
 21
48.5
 31
0.0
  0
LINE
  5
22D
100
AcDbEntity
100
AcDbLine
  8
gear
 62
256
370
-1
  6
ByLayer
 10
-47.5
 20
54.0
 30
0.0
 11
-47.5
 21
51.5
 31
0.0
  0
LINE
  5
22E
100
AcDbEntity
100
AcDbLine
  8
gear
 62
256
370
-1
  6
ByLayer
 10
-47.5
 20
51.5
 30
0.0
 11
-44.5
 21
51.5
 31
0.0
  0
LINE
  5
22F
100
AcDbEntity
100
AcDbLine
  8
gear
 62
256
370
-1
  6
ByLayer
 10
-44.5
 20
51.5
 30
0.0
 11
-44.5
 21
54.0
 31
0.0
  0
DIMENSION
  5
230
100
AcDbEntity
  8
dimension
 62
256
370
-1
  6
ByLayer
100
AcDbDimension
 10
-43.0
 20
35.0
 30
0.0
 11
-41.5
 21
36.875
 31
0.0
 70
0
 71
5
 72
1
 41
1.0
 42
0.0
  1

  3
Standard
100
AcDbAlignedDimension
 13
-40.0
 23
40.0
 33
0.0
 14
-43.0
 24
40.0
 34
0.0
 50
0.0
100
AcDbRotatedDimension
  0
DIMENSION
  5
231
100
AcDbEntity
  8
dimension
 62
256
370
-1
  6
ByLayer
100
AcDbDimension
 10
-49.0
 20
30.0
 30
0.0
 11
-44.5
 21
31.875
 31
0.0
 70
0
 71
5
 72
1
 41
1.0
 42
0.0
  1

  3
Standard
100
AcDbAlignedDimension
 13
-40.0
 23
40.0
 33
0.0
 14
-49.0
 24
46.0
 34
0.0
 50
0.0
100
AcDbRotatedDimension
  0
DIMENSION
  5
232
100
AcDbEntity
  8
dimension
 62
256
370
-1
  6
ByLayer
100
AcDbDimension
 10
-46.0
 20
56.0
 30
0.0
 11
-47.5
 21
57.875
 31
0.0
 70
0
 71
5
 72
1
 41
1.0
 42
0.0
  1

  3
Standard
100
AcDbAlignedDimension
 13
-49.0
 23
54.0
 33
0.0
 14
-46.0
 24
54.0
 34
0.0
 50
0.0
100
AcDbRotatedDimension
  0
DIMENSION
  5
233
100
AcDbEntity
  8
dimension
 62
256
370
-1
  6
ByLayer
100
AcDbDimension
 10
-35.0
 20
40.0
 30
0.0
 11
-36.875
 21
50.0
 31
0.0
 70
0
 71
5
 72
1
 41
1.0
 42
0.0
  1

  3
Standard
100
AcDbAlignedDimension
 13
-40.0
 23
60.0
 33
0.0
 14
-40.0
 24
40.0
 34
0.0
 50
90.0
100
AcDbRotatedDimension
  0
DIMENSION
  5
234
100
AcDbEntity
  8
dimension
 62
256
370
-1
  6
ByLayer
100
AcDbDimension
 10
-52.0
 20
46.0
 30
0.0
 11
-53.875
 21
50.0
 31
0.0
 70
0
 71
5
 72
1
 41
1.0
 42
0.0
  1

  3
Standard
100
AcDbAlignedDimension
 13
-49.0
 23
54.0
 33
0.0
 14
-49.0
 24
46.0
 34
0.0
 50
90.0
100
AcDbRotatedDimension
  0
DIMENSION
  5
235
100
AcDbEntity
  8
dimension
 62
256
370
-1
  6
ByLayer
100
AcDbDimension
 10
13.4365870527349252
 20
47.1682481203530699
 30
0.0
 11
31.9300758996102694
 21
45.1676785211634026
 31
0.0
 70
1
 71
5
 72
1
 41
1.0
 42
0.0
  1

  3
Standard
100
AcDbAlignedDimension
 13
12.6823873266928047
 23
43.607568394230924
 33
0.0
 14
48.892304845413264
 24
35.9378221735089269
 34
0.0
  0
CIRCLE
  5
236
100
AcDbEntity
100
AcDbCircle
  8
gear
 62
256
370
-1
  6
ByLayer
 10
-61.5
 20
10.0
 30
0.0
 40
1.0
  0
CIRCLE
  5
237
100
AcDbEntity
100
AcDbCircle
  8
gear
 62
256
370
-1
  6
ByLayer
 10
-98.5
 20
10.0
 30
0.0
 40
1.0
  0
ARC
  5
238
100
AcDbEntity
  8
gear
 62
256
370
-1
  6
ByLayer
100
AcDbCircle
 10
-98.5
 20
10.0
 30
0.0
 40
2.5
100
AcDbArc
 50
36.8698976458440129
 51
323.1301023541560085
  0
ARC
  5
239
100
AcDbEntity
  8
gear
 62
256
370
-1
  6
ByLayer
100
AcDbCircle
 10
-61.5
 20
10.0
 30
0.0
 40
2.5000000000000342
100
AcDbArc
 50
216.8698976458434231
 51
143.1301023541565769
  0
LINE
  5
23A
100
AcDbEntity
100
AcDbLine
  8
gear
 62
256
370
-1
  6
ByLayer
 10
-96.5
 20
11.5
 30
0.0
 11
-63.5000000000000426
 21
11.5
 31
0.0
  0
LINE
  5
23B
100
AcDbEntity
100
AcDbLine
  8
gear
 62
256
370
-1
  6
ByLayer
 10
-63.5000000000000426
 20
8.5
 30
0.0
 11
-96.5
 21
8.5
 31
0.0
  0
CIRCLE
  5
23C
100
AcDbEntity
100
AcDbCircle
  8
gear
 62
256
370
-1
  6
ByLayer
 10
-73.0
 20
50.0
 30
0.0
 40
2.0
  0
CIRCLE
  5
23D
100
AcDbEntity
100
AcDbCircle
  8
gear
 62
256
370
-1
  6
ByLayer
 10
-76.5
 20
56.0621778264910731
 30
0.0
 40
2.0
  0
CIRCLE
  5
23E
100
AcDbEntity
100
AcDbCircle
  8
gear
 62
256
370
-1
  6
ByLayer
 10
-83.5
 20
56.0621778264910731
 30
0.0
 40
2.0
  0
CIRCLE
  5
23F
100
AcDbEntity
100
AcDbCircle
  8
gear
 62
256
370
-1
  6
ByLayer
 10
-87.0
 20
50.0
 30
0.0
 40
2.0
  0
CIRCLE
  5
240
100
AcDbEntity
100
AcDbCircle
  8
gear
 62
256
370
-1
  6
ByLayer
 10
-83.5
 20
43.937822173508934
 30
0.0
 40
2.0
  0
CIRCLE
  5
241
100
AcDbEntity
100
AcDbCircle
  8
gear
 62
256
370
-1
  6
ByLayer
 10
-76.5
 20
43.9378221735089269
 30
0.0
 40
2.0
  0
DIMENSION
  5
242
100
AcDbEntity
  8
dimension
 62
256
370
-1
  6
ByLayer
100
AcDbDimension
 10
-71.0
 20
62.0
 30
0.0
 11
-73.0
 21
63.875
 31
0.0
 70
0
 71
5
 72
1
 41
1.0
 42
0.0
  1

  3
Standard
100
AcDbAlignedDimension
 13
-75.0
 23
50.0
 33
0.0
 14
-71.0
 24
50.0
 34
0.0
 50
0.0
100
AcDbRotatedDimension
  0
CIRCLE
  5
243
100
AcDbEntity
100
AcDbCircle
  8
gear
 62
256
370
-1
  6
ByLayer
 10
-103.0
 20
22.0
 30
0.0
 40
1.0
  0
CIRCLE
  5
244
100
AcDbEntity
100
AcDbCircle
  8
gear
 62
256
370
-1
  6
ByLayer
 10
-110.0
 20
10.0
 30
0.0
 40
1.0
  0
ARC
  5
245
100
AcDbEntity
  8
gear
 62
256
370
-1
  6
ByLayer
100
AcDbCircle
 10
-110.0
 20
10.0
 30
0.0
 40
2.5000000000000036
100
AcDbArc
 50
96.6134604823143519
 51
22.8736651906266708
  0
ARC
  5
246
100
AcDbEntity
  8
gear
 62
256
370
-1
  6
ByLayer
100
AcDbCircle
 10
-103.0
 20
22.0
 30
0.0
 40
2.5000000000000058
100
AcDbArc
 50
36.8698976458440129
 51
202.8736651906267809
  0
ARC
  5
247
100
AcDbEntity
  8
gear
 62
256
370
-1
  6
ByLayer
100
AcDbCircle
 10
-103.0
 20
22.0
 30
0.0
 40
2.5
100
AcDbArc
 50
276.6134604823143377
 51
323.1301023541560085
  0
LINE
  5
248
100
AcDbEntity
100
AcDbLine
  8
gear
 62
256
370
-1
  6
ByLayer
 10
-110.2879263002994605
 20
12.4833643400829999
 30
0.0
 11
-105.3034104023958264
 21
21.0282487364892496
 31
0.0
  0
LINE
  5
249
100
AcDbEntity
100
AcDbLine
  8
gear
 62
256
370
-1
  6
ByLayer
 10
-102.7120736997005395
 20
19.5166356599170037
 30
0.0
 11
-107.6965895976041736
 21
10.9717512635107468
 31
0.0
  0
ARC
  5
24A
100
AcDbEntity
  8
gear
 62
256
370
-1
  6
ByLayer
100
AcDbCircle
 10
-88.0
 20
22.0
 30
0.0
 40
1.5
100
AcDbArc
 50
270.0
 51
90.0
  0
LINE
  5
24B
100
AcDbEntity
100
AcDbLine
  8
gear
 62
256
370
-1
  6
ByLayer
 10
-101.0
 20
23.5000000000000036
 30
0.0
 11
-88.0
 21
23.5
 31
0.0
  0
LINE
  5
24C
100
AcDbEntity
100
AcDbLine
  8
gear
 62
256
370
-1
  6
ByLayer
 10
-101.0
 20
20.5
 30
0.0
 11
-88.0
 21
20.5
 31
0.0
  0
DIMENSION
  5
24D
100
AcDbEntity
  8
dimension
 62
256
370
-1
  6
ByLayer
100
AcDbDimension
 10
-6.0
 20
30.0
 30
0.0
 11
-7.875
 21
37.5
 31
0.0
 70
0
 71
5
 72
1
 41
1.0
 42
0.0
  1

  3
Standard
100
AcDbAlignedDimension
 13
6.0
 23
45.0
 33
0.0
 14
-6.0
 24
30.0
 34
0.0
 50
90.0
100
AcDbRotatedDimension
  0
LINE
  5
24E
100
AcDbEntity
100
AcDbLine
  8
motor
 62
256
370
-1
  6
ByLayer
 10
-186.0
 20
10.0
 30
0.0
 11
-174.0
 21
10.0
 31
0.0
  0
LINE
  5
24F
100
AcDbEntity
100
AcDbLine
  8
motor
 62
256
370
-1
  6
ByLayer
 10
-174.0
 20
10.0
 30
0.0
 11
-174.0
 21
20.0
 31
0.0
  0
LINE
  5
250
100
AcDbEntity
100
AcDbLine
  8
motor
 62
256
370
-1
  6
ByLayer
 10
-174.0
 20
20.0
 30
0.0
 11
-186.0
 21
20.0
 31
0.0
  0
LINE
  5
251
100
AcDbEntity
100
AcDbLine
  8
motor
 62
256
370
-1
  6
ByLayer
 10
-186.0
 20
20.0
 30
0.0
 11
-186.0
 21
10.0
 31
0.0
  0
CIRCLE
  5
252
100
AcDbEntity
100
AcDbCircle
  8
motor
 62
256
370
-1
  6
ByLayer
 10
-180.0
 20
15.0
 30
0.0
 40
1.5
  0
CIRCLE
  5
253
100
AcDbEntity
100
AcDbCircle
  8
motor
 62
256
370
-1
  6
ByLayer
 10
-175.5
 20
15.0
 30
0.0
 40
0.8
  0
CIRCLE
  5
254
100
AcDbEntity
100
AcDbCircle
  8
motor
 62
256
370
-1
  6
ByLayer
 10
-184.5
 20
15.0
 30
0.0
 40
0.8
  0
LINE
  5
255
100
AcDbEntity
100
AcDbLine
  8
motor mount
 62
256
370
-1
  6
ByLayer
 10
-174.0
 20
20.0
 30
0.0
 11
-167.0
 21
0.0
 31
0.0
  0
LINE
  5
256
100
AcDbEntity
100
AcDbLine
  8
motor mount
 62
256
370
-1
  6
ByLayer
 10
-193.0
 20
0.0
 30
0.0
 11
-186.0
 21
20.0
 31
0.0
  0
LINE
  5
257
100
AcDbEntity
100
AcDbLine
  8
motor mount
 62
256
370
-1
  6
ByLayer
 10
-186.0
 20
20.0
 30
0.0
 11
-174.0
 21
20.0
 31
0.0
  0
LINE
  5
258
100
AcDbEntity
100
AcDbLine
  8
motor mount
 62
256
370
-1
  6
ByLayer
 10
-185.0
 20
7.0
 30
0.0
 11
-175.0
 21
7.0
 31
0.0
  0
LINE
  5
259
100
AcDbEntity
100
AcDbLine
  8
motor mount
 62
256
370
-1
  6
ByLayer
 10
-185.0
 20
3.0
 30
0.0
 11
-175.0
 21
3.0
 31
0.0
  0
ARC
  5
25A
100
AcDbEntity
  8
motor mount
 62
256
370
-1
  6
ByLayer
100
AcDbCircle
 10
-185.0
 20
5.0
 30
0.0
 40
2.0
100
AcDbArc
 50
90.0
 51
270.0
  0
ARC
  5
25B
100
AcDbEntity
  8
motor mount
 62
256
370
-1
  6
ByLayer
100
AcDbCircle
 10
-175.0
 20
5.0
 30
0.0
 40
2.0
100
AcDbArc
 50
270.0
 51
90.0
  0
CIRCLE
  5
25C
100
AcDbEntity
100
AcDbCircle
  8
motor mount
 62
256
370
-1
  6
ByLayer
 10
-180.0
 20
15.0
 30
0.0
 40
2.0
  0
DIMENSION
  5
25D
100
AcDbEntity
  8
dimension
 62
256
370
-1
  6
ByLayer
100
AcDbDimension
 10
-87.0
 20
62.0
 30
0.0
 11
-83.5
 21
63.875
 31
0.0
 70
0
 71
5
 72
1
 41
1.0
 42
0.0
  1

  3
Standard
100
AcDbAlignedDimension
 13
-80.0
 23
50.0
 33
0.0
 14
-87.0
 24
50.0
 34
0.0
 50
0.0
100
AcDbRotatedDimension
  0
LINE
  5
25E
100
AcDbEntity
100
AcDbLine
  8
motor mount
 62
256
370
-1
  6
ByLayer
 10
-175.0
 20
-22.0
 30
0.0
 11
-185.0
 21
-22.0
 31
0.0
  0
LINE
  5
25F
100
AcDbEntity
100
AcDbLine
  8
motor mount
 62
256
370
-1
  6
ByLayer
 10
-175.0
 20
-18.0
 30
0.0
 11
-185.0
 21
-18.0
 31
0.0
  0
ARC
  5
260
100
AcDbEntity
  8
motor mount
 62
256
370
-1
  6
ByLayer
100
AcDbCircle
 10
-175.0
 20
-20.0
 30
0.0
 40
2.0
100
AcDbArc
 50
270.0
 51
90.0
  0
ARC
  5
261
100
AcDbEntity
  8
motor mount
 62
256
370
-1
  6
ByLayer
100
AcDbCircle
 10
-185.0
 20
-20.0
 30
0.0
 40
2.0
100
AcDbArc
 50
90.0
 51
270.0
  0
LINE
  5
262
100
AcDbEntity
100
AcDbLine
  8
motor mount
 62
256
370
-1
  6
ByLayer
 10
-175.0
 20
-25.0
 30
0.0
 11
-185.0
 21
-25.0
 31
0.0
  0
LINE
  5
263
100
AcDbEntity
100
AcDbLine
  8
motor mount
 62
256
370
-1
  6
ByLayer
 10
-172.0086806761992193
 20
-29.3461011387717718
 30
0.0
 11
-167.0
 21
-15.0000000000000036
 31
0.0
  0
LINE
  5
264
100
AcDbEntity
100
AcDbLine
  8
motor mount
 62
256
370
-1
  6
ByLayer
 10
-187.9913193238007807
 20
-29.3461011387717718
 30
0.0
 11
-193.0
 21
-15.0
 31
0.0
  0
ARC
  5
265
100
AcDbEntity
  8
motor mount
 62
256
370
-1
  6
ByLayer
100
AcDbCircle
 10
-187.0
 20
-30.0500000000000043
 30
0.0
 40
13.0193125778590932
100
AcDbArc
 50
5.0384661230040413
 51
22.822980597654805
  0
ARC
  5
266
100
AcDbEntity
  8
motor mount
 62
256
370
-1
  6
ByLayer
100
AcDbCircle
 10
-173.0
 20
-30.0500000000000114
 30
0.0
 40
13.0042958138937248
100
AcDbArc
 50
157.177019402345195
 51
174.9615338769962136
  0
ARC
  5
267
100
AcDbEntity
  8
motor mount
 62
256
370
-1
  6
ByLayer
100
AcDbCircle
 10
-173.0
 20
-29.0
 30
0.0
 40
1.0499999999999765
100
AcDbArc
 50
171.079712891776154
 51
340.7542793107575676
  0
ARC
  5
268
100
AcDbEntity
  8
motor mount
 62
256
370
-1
  6
ByLayer
100
AcDbCircle
 10
-187.0
 20
-29.0
 30
0.0
 40
1.0500000000000098
100
AcDbArc
 50
199.245720689242404
 51
5.031914428766127
  0
LINE
  5
269
100
AcDbEntity
100
AcDbLine
  8
motor mount
 62
256
370
-1
  6
ByLayer
 10
-193.0
 20
0.0
 30
0.0
 11
-193.0
 21
-15.0
 31
0.0
  0
LINE
  5
26A
100
AcDbEntity
100
AcDbLine
  8
motor mount
 62
256
370
-1
  6
ByLayer
 10
-167.0
 20
0.0
 30
0.0
 11
-167.0
 21
-15.0000000000000036
 31
0.0
  0
DIMENSION
  5
26B
100
AcDbEntity
  8
dimension
 62
256
370
-1
  6
ByLayer
100
AcDbDimension
 10
56.0
 20
30.0
 30
0.0
 11
54.125
 21
39.0
 31
0.0
 70
0
 71
5
 72
1
 41
1.0
 42
0.0
  1

  3
Standard
100
AcDbAlignedDimension
 13
42.0
 23
48.0
 33
0.0
 14
55.0
 24
30.0
 34
0.0
 50
90.0
100
AcDbRotatedDimension
  0
CIRCLE
  5
26C
100
AcDbEntity
100
AcDbCircle
  8
motor mount
 62
256
370
-1
  6
ByLayer
 10
-140.0
 20
18.0
 30
0.0
 40
1.0
  0
LINE
  5
26D
100
AcDbEntity
100
AcDbLine
  8
motor mount
 62
256
370
-1
  6
ByLayer
 10
-142.8950201186399909
 20
18.7866756082844404
 30
0.0
 11
-148.0
 21
0.0
 31
0.0
  0
LINE
  5
26E
100
AcDbEntity
100
AcDbLine
  8
motor mount
 62
256
370
-1
  6
ByLayer
 10
-137.1049798813600091
 20
18.7866756082844404
 30
0.0
 11
-132.0
 21
0.0
 31
0.0
  0
LINE
  5
26F
100
AcDbEntity
100
AcDbLine
  8
motor mount
 62
256
370
-1
  6
ByLayer
 10
-142.4087947740748632
 20
11.0691096594652372
 30
0.0
 11
-143.9087947740748632
 21
5.6691096594652368
 31
0.0
  0
LINE
  5
270
100
AcDbEntity
100
AcDbLine
  8
motor mount
 62
256
370
-1
  6
ByLayer
 10
-137.5912052259251368
 20
11.0691096594652354
 30
0.0
 11
-136.0912052259251368
 21
5.6691096594652359
 31
0.0
  0
LINE
  5
271
100
AcDbEntity
100
AcDbLine
  8
motor mount
 62
256
370
-1
  6
ByLayer
 10
-138.5
 20
2.5
 30
0.0
 11
-141.5
 21
2.5
 31
0.0
  0
ARC
  5
272
100
AcDbEntity
  8
motor mount
 62
256
370
-1
  6
ByLayer
100
AcDbCircle
 10
-140.0
 20
10.4000000000000004
 30
0.0
 40
2.5000000000000124
100
AcDbArc
 50
15.524110996754203
 51
164.4758890032457259
  0
ARC
  5
273
100
AcDbEntity
  8
motor mount
 62
256
370
-1
  6
ByLayer
100
AcDbCircle
 10
-138.5
 20
5.0
 30
0.0
 40
2.5000000000000115
100
AcDbArc
 50
270.0
 51
15.524110996754203
  0
ARC
  5
274
100
AcDbEntity
  8
motor mount
 62
256
370
-1
  6
ByLayer
100
AcDbCircle
 10
-141.5
 20
5.0
 30
0.0
 40
2.5
100
AcDbArc
 50
164.4758890032457543
 51
270.0
  0
ARC
  5
275
100
AcDbEntity
  8
motor mount
 62
256
370
-1
  6
ByLayer
100
AcDbCircle
 10
-140.0
 20
18.0
 30
0.0
 40
3.0000000000000004
100
AcDbArc
 50
15.2021388655545397
 51
164.7978611344454691
  0
CIRCLE
  5
276
100
AcDbEntity
100
AcDbCircle
  8
motor mount
 62
256
370
-1
  6
ByLayer
 10
-140.0
 20
-28.0
 30
0.0
 40
1.0
  0
LINE
  5
277
100
AcDbEntity
100
AcDbLine
  8
motor mount
 62
256
370
-1
  6
ByLayer
 10
-137.1049798813600091
 20
-28.7866756082844439
 30
0.0
 11
-132.0
 21
-10.0000000000000018
 31
0.0
  0
LINE
  5
278
100
AcDbEntity
100
AcDbLine
  8
motor mount
 62
256
370
-1
  6
ByLayer
 10
-142.8950201186399909
 20
-28.7866756082844404
 30
0.0
 11
-148.0
 21
-9.9999999999999982
 31
0.0
  0
LINE
  5
279
100
AcDbEntity
100
AcDbLine
  8
motor mount
 62
256
370
-1
  6
ByLayer
 10
-137.5912052259251368
 20
-21.0691096594652372
 30
0.0
 11
-136.0912052259251368
 21
-15.6691096594652386
 31
0.0
  0
LINE
  5
27A
100
AcDbEntity
100
AcDbLine
  8
motor mount
 62
256
370
-1
  6
ByLayer
 10
-142.4087947740748632
 20
-21.0691096594652336
 30
0.0
 11
-143.9087947740748632
 21
-15.669109659465235
 31
0.0
  0
LINE
  5
27B
100
AcDbEntity
100
AcDbLine
  8
motor mount
 62
256
370
-1
  6
ByLayer
 10
-141.5
 20
-12.5
 30
0.0
 11
-138.5
 21
-12.5
 31
0.0
  0
ARC
  5
27C
100
AcDbEntity
  8
motor mount
 62
256
370
-1
  6
ByLayer
100
AcDbCircle
 10
-140.0
 20
-20.3999999999999986
 30
0.0
 40
2.5000000000000124
100
AcDbArc
 50
195.5241109967541888
 51
344.4758890032457543
  0
ARC
  5
27D
100
AcDbEntity
  8
motor mount
 62
256
370
-1
  6
ByLayer
100
AcDbCircle
 10
-141.5
 20
-15.0
 30
0.0
 40
2.5000000000000115
100
AcDbArc
 50
90.0
 51
195.5241109967541888
  0
ARC
  5
27E
100
AcDbEntity
  8
motor mount
 62
256
370
-1
  6
ByLayer
100
AcDbCircle
 10
-138.5
 20
-15.0
 30
0.0
 40
2.5
100
AcDbArc
 50
344.4758890032457543
 51
90.0
  0
ARC
  5
27F
100
AcDbEntity
  8
motor mount
 62
256
370
-1
  6
ByLayer
100
AcDbCircle
 10
-140.0
 20
-28.0
 30
0.0
 40
3.0000000000000004
100
AcDbArc
 50
195.2021388655545593
 51
344.7978611344454407
  0
LINE
  5
280
100
AcDbEntity
100
AcDbLine
  8
motor mount
 62
256
370
-1
  6
ByLayer
 10
-148.0
 20
0.0
 30
0.0
 11
-148.0
 21
-9.9999999999999982
 31
0.0
  0
LINE
  5
281
100
AcDbEntity
100
AcDbLine
  8
motor mount
 62
256
370
-1
  6
ByLayer
 10
-132.0
 20
0.0
 30
0.0
 11
-132.0
 21
-10.0000000000000018
 31
0.0
  0
DIMENSION
  5
282
100
AcDbEntity
  8
dimension
 62
256
370
-1
  6
ByLayer
100
AcDbDimension
 10
20.5
 20
-64.0
 30
0.0
 11
16.0
 21
-62.125
 31
0.0
 70
0
 71
5
 72
1
 41
1.0
 42
0.0
  1

  3
Standard
100
AcDbAlignedDimension
 13
11.5
 23
-55.0
 33
0.0
 14
20.5
 24
-55.0
 34
0.0
 50
0.0
100
AcDbRotatedDimension
  0
DIMENSION
  5
283
100
AcDbEntity
  8
dimension
 62
256
370
-1
  6
ByLayer
100
AcDbDimension
 10
11.5
 20
-55.0
 30
0.0
 11
0.0
 21
0.0
 31
0.0
 70
4
 71
5
 72
1
 41
1.0
 42
0.0
  1

  3
Standard
100
AcDbRadialDimension
 15
10.8054054863004332
 25
-54.6030888493145312
 35
0.0
 40
0.0
  0
DIMENSION
  5
284
100
AcDbEntity
  8
dimension
 62
256
370
-1
  6
ByLayer
100
AcDbDimension
 10
-133.0
 20
21.0
 30
0.0
 11
-134.875
 21
19.5
 31
0.0
 70
0
 71
5
 72
1
 41
1.0
 42
0.0
  1

  3
Standard
100
AcDbAlignedDimension
 13
-140.0
 23
18.0
 33
0.0
 14
-140.0
 24
21.0
 34
0.0
 50
90.0
100
AcDbRotatedDimension
  0
DIMENSION
  5
285
100
AcDbEntity
  8
dimension
 62
256
370
-1
  6
ByLayer
100
AcDbDimension
 10
-167.0
 20
-36.0
 30
0.0
 11
-180.0
 21
-34.125
 31
0.0
 70
0
 71
5
 72
1
 41
1.0
 42
0.0
  1

  3
Standard
100
AcDbAlignedDimension
 13
-193.0
 23
0.0
 33
0.0
 14
-167.0
 24
0.0
 34
0.0
 50
0.0
100
AcDbRotatedDimension
  0
DIMENSION
  5
286
100
AcDbEntity
  8
dimension
 62
256
370
-1
  6
ByLayer
100
AcDbDimension
 10
-61.5
 20
0.0
 30
0.0
 11
-80.0
 21
1.875
 31
0.0
 70
0
 71
5
 72
1
 41
1.0
 42
0.0
  1

  3
Standard
100
AcDbAlignedDimension
 13
-98.5
 23
10.0
 33
0.0
 14
-61.5
 24
10.0
 34
0.0
 50
0.0
100
AcDbRotatedDimension
  0
DIMENSION
  5
287
100
AcDbEntity
  8
dimension
 62
256
370
-1
  6
ByLayer
100
AcDbDimension
 10
6.0000000000000009
 20
56.0
 30
0.0
 11
24.0
 21
57.875
 31
0.0
 70
0
 71
5
 72
1
 41
1.0
 42
0.0
  1

  3
Standard
100
AcDbAlignedDimension
 13
42.0
 23
48.0
 33
0.0
 14
6.0
 24
45.0
 34
0.0
 50
0.0
100
AcDbRotatedDimension
  0
DIMENSION
  5
288
100
AcDbEntity
  8
dimension
 62
256
370
-1
  6
ByLayer
100
AcDbDimension
 10
70.0
 20
56.0
 30
0.0
 11
56.0
 21
57.875
 31
0.0
 70
0
 71
5
 72
1
 41
1.0
 42
0.0
  1

  3
Standard
100
AcDbAlignedDimension
 13
42.0
 23
48.0
 33
0.0
 14
70.0
 24
48.0
 34
0.0
 50
0.0
100
AcDbRotatedDimension
  0
DIMENSION
  5
289
100
AcDbEntity
  8
dimension
 62
256
370
-1
  6
ByLayer
100
AcDbDimension
 10
-223.0
 20
55.0
 30
0.0
 11
-237.0
 21
56.875
 31
0.0
 70
0
 71
5
 72
1
 41
1.0
 42
0.0
  1

  3
Standard
100
AcDbAlignedDimension
 13
-251.0
 23
50.625
 33
0.0
 14
-223.0
 24
50.0
 34
0.0
 50
0.0
100
AcDbRotatedDimension
  0
CIRCLE
  5
28A
100
AcDbEntity
100
AcDbCircle
  8
0
 62
256
370
-1
  6
ByLayer
 10
-212.0
 20
51.0
 30
0.0
 40
5.0
  0
LINE
  5
28B
100
AcDbEntity
100
AcDbLine
  8
0
 62
256
370
-1
  6
ByLayer
 10
-223.0
 20
46.0
 30
0.0
 11
-179.0
 21
46.0
 31
0.0
  0
LINE
  5
28C
100
AcDbEntity
100
AcDbLine
  8
0
 62
256
370
-1
  6
ByLayer
 10
-179.0
 20
48.0
 30
0.0
 11
-223.0
 21
48.0
 31
0.0
  0
LINE
  5
28D
100
AcDbEntity
100
AcDbLine
  8
0
 62
256
370
-1
  6
ByLayer
 10
-223.0
 20
54.0
 30
0.0
 11
-179.0
 21
54.0
 31
0.0
  0
LINE
  5
28E
100
AcDbEntity
100
AcDbLine
  8
0
 62
256
370
-1
  6
ByLayer
 10
-179.0
 20
56.0
 30
0.0
 11
-223.0
 21
56.0
 31
0.0
  0
LINE
  5
28F
100
AcDbEntity
100
AcDbLine
  8
0
 62
256
370
-1
  6
ByLayer
 10
-223.0
 20
48.0
 30
0.0
 11
-223.0
 21
46.0
 31
0.0
  0
LINE
  5
290
100
AcDbEntity
100
AcDbLine
  8
0
 62
256
370
-1
  6
ByLayer
 10
-223.0
 20
56.0
 30
0.0
 11
-223.0
 21
54.0
 31
0.0
  0
LINE
  5
291
100
AcDbEntity
100
AcDbLine
  8
help
 62
256
370
-1
  6
ByLayer
 10
-300.0
 20
41.9999999999999929
 30
0.0
 11
-274.0
 21
42.0
 31
0.0
  0
LINE
  5
292
100
AcDbEntity
100
AcDbLine
  8
help
 62
256
370
-1
  6
ByLayer
 10
-274.0
 20
42.0
 30
0.0
 11
-274.0
 21
41.0
 31
0.0
  0
LINE
  5
293
100
AcDbEntity
100
AcDbLine
  8
help
 62
256
370
-1
  6
ByLayer
 10
-274.0
 20
41.0
 30
0.0
 11
-300.0
 21
41.0000000000000071
 31
0.0
  0
LINE
  5
294
100
AcDbEntity
100
AcDbLine
  8
help
 62
256
370
-1
  6
ByLayer
 10
-300.0
 20
41.0000000000000071
 30
0.0
 11
-300.0
 21
41.9999999999999929
 31
0.0
  0
LINE
  5
295
100
AcDbEntity
100
AcDbLine
  8
help
 62
256
370
-1
  6
ByLayer
 10
-287.0
 20
42.0
 30
0.0
 11
-287.0
 21
40.9999999999999929
 31
0.0
  0
LINE
  5
296
100
AcDbEntity
100
AcDbLine
  8
help
 62
256
370
-1
  6
ByLayer
 10
-297.0
 20
52.0000000000000497
 30
0.0
 11
-277.0
 21
52.0
 31
0.0
  0
LINE
  5
297
100
AcDbEntity
100
AcDbLine
  8
help
 62
256
370
-1
  6
ByLayer
 10
-291.0
 20
42.9999999999999929
 30
0.0
 11
-283.0
 21
43.0000000000000071
 31
0.0
  0
LINE
  5
298
100
AcDbEntity
100
AcDbLine
  8
help
 62
256
370
-1
  6
ByLayer
 10
-291.0
 20
42.9999999999999929
 30
0.0
 11
-291.0
 21
48.9999999999999858
 31
0.0
  0
LINE
  5
299
100
AcDbEntity
100
AcDbLine
  8
help
 62
256
370
-1
  6
ByLayer
 10
-291.0
 20
48.9999999999999858
 30
0.0
 11
-297.0
 21
49.0000000000000071
 31
0.0
  0
LINE
  5
29A
100
AcDbEntity
100
AcDbLine
  8
help
 62
256
370
-1
  6
ByLayer
 10
-297.0
 20
49.0000000000000071
 30
0.0
 11
-297.0
 21
52.0000000000000497
 31
0.0
  0
LINE
  5
29B
100
AcDbEntity
100
AcDbLine
  8
help
 62
256
370
-1
  6
ByLayer
 10
-283.0
 20
43.0000000000000071
 30
0.0
 11
-283.0
 21
48.9999999999999929
 31
0.0
  0
LINE
  5
29C
100
AcDbEntity
100
AcDbLine
  8
help
 62
256
370
-1
  6
ByLayer
 10
-283.0
 20
48.9999999999999929
 30
0.0
 11
-277.0
 21
48.9999999999999929
 31
0.0
  0
LINE
  5
29D
100
AcDbEntity
100
AcDbLine
  8
help
 62
256
370
-1
  6
ByLayer
 10
-277.0
 20
48.9999999999999929
 30
0.0
 11
-277.0
 21
52.0
 31
0.0
  0
LINE
  5
29E
100
AcDbEntity
100
AcDbLine
  8
help
 62
256
370
-1
  6
ByLayer
 10
-285.5
 20
51.9999999999999716
 30
0.0
 11
-285.5000000000000568
 21
41.0
 31
0.0
  0
LINE
  5
29F
100
AcDbEntity
100
AcDbLine
  8
help
 62
256
370
-1
  6
ByLayer
 10
-288.5000000000000568
 20
40.9999999999999929
 30
0.0
 11
-288.5000000000000568
 21
52.0000000000000284
 31
0.0
  0
LINE
  5
2A0
100
AcDbEntity
100
AcDbLine
  8
help
 62
256
370
-1
  6
ByLayer
 10
-298.0
 20
40.9999999999999858
 30
0.0
 11
-298.0
 21
16.0
 31
0.0
  0
LINE
  5
2A1
100
AcDbEntity
100
AcDbLine
  8
help
 62
256
370
-1
  6
ByLayer
 10
-276.0
 20
41.0
 30
0.0
 11
-276.0
 21
16.0
 31
0.0
  0
LINE
  5
2A2
100
AcDbEntity
100
AcDbLine
  8
help
 62
256
370
-1
  6
ByLayer
 10
-276.0
 20
16.0
 30
0.0
 11
-298.0
 21
16.0
 31
0.0
  0
LINE
  5
2A3
100
AcDbEntity
100
AcDbLine
  8
help
 62
256
370
-1
  6
ByLayer
 10
-281.0
 20
52.4999999999999929
 30
0.0
 11
-281.0
 21
53.4999999999999929
 31
0.0
  0
LINE
  5
2A4
100
AcDbEntity
100
AcDbLine
  8
help
 62
256
370
-1
  6
ByLayer
 10
-258.0
 20
52.5
 30
0.0
 11
-258.0
 21
53.5000000000000071
 31
0.0
  0
LINE
  5
2A5
100
AcDbEntity
100
AcDbLine
  8
help
 62
256
370
-1
  6
ByLayer
 10
-258.0
 20
53.5000000000000071
 30
0.0
 11
-281.0
 21
53.4999999999999929
 31
0.0
  0
LINE
  5
2A6
100
AcDbEntity
100
AcDbLine
  8
help
 62
256
370
-1
  6
ByLayer
 10
-281.0
 20
52.4999999999999929
 30
0.0
 11
-258.0
 21
52.5
 31
0.0
  0
LINE
  5
2A7
100
AcDbEntity
100
AcDbLine
  8
help
 62
256
370
-1
  6
ByLayer
 10
-261.0
 20
52.0
 30
0.0
 11
-228.0
 21
51.9999999999999432
 31
0.0
  0
LINE
  5
2A8
100
AcDbEntity
100
AcDbLine
  8
help
 62
256
370
-1
  6
ByLayer
 10
-228.0
 20
51.9999999999999432
 30
0.0
 11
-228.0
 21
51.0
 31
0.0
  0
LINE
  5
2A9
100
AcDbEntity
100
AcDbLine
  8
help
 62
256
370
-1
  6
ByLayer
 10
-228.0
 20
51.0
 30
0.0
 11
-261.0
 21
51.0
 31
0.0
  0
LINE
  5
2AA
100
AcDbEntity
100
AcDbLine
  8
help
 62
256
370
-1
  6
ByLayer
 10
-261.0
 20
51.0
 30
0.0
 11
-261.0
 21
52.0
 31
0.0
  0
DIMENSION
  5
2AB
100
AcDbEntity
  8
dimension
 62
256
370
-1
  6
ByLayer
100
AcDbDimension
 10
-251.0
 20
55.0
 30
0.0
 11
-269.0
 21
56.875
 31
0.0
 70
0
 71
5
 72
1
 41
1.0
 42
0.0
  1

  3
Standard
100
AcDbAlignedDimension
 13
-287.0
 23
52.0000000000000284
 33
0.0
 14
-251.0
 24
55.0
 34
0.0
 50
0.0
100
AcDbRotatedDimension
  0
DIMENSION
  5
2AC
100
AcDbEntity
  8
dimension
 62
256
370
-1
  6
ByLayer
100
AcDbDimension
 10
49.0
 20
65.0
 30
0.0
 11
27.5
 21
66.875
 31
0.0
 70
0
 71
5
 72
1
 41
1.0
 42
0.0
  1

  3
Standard
100
AcDbAlignedDimension
 13
6.0
 23
45.0
 33
0.0
 14
49.0
 24
61.6122972758993086
 34
0.0
 50
0.0
100
AcDbRotatedDimension
  0
DIMENSION
  5
2AD
100
AcDbEntity
  8
dimension
 62
256
370
-1
  6
ByLayer
100
AcDbDimension
 10
-244.0
 20
59.0
 30
0.0
 11
-265.5
 21
60.875
 31
0.0
 70
0
 71
5
 72
1
 41
1.0
 42
0.0
  1

  3
Standard
100
AcDbAlignedDimension
 13
-287.0
 23
52.6250000000000284
 33
0.0
 14
-244.0
 24
58.0
 34
0.0
 50
0.0
100
AcDbRotatedDimension
  0
LINE
  5
2AE
100
AcDbEntity
100
AcDbLine
  8
0
 62
256
370
-1
  6
ByLayer
 10
-244.0
 20
54.0
 30
0.0
 11
-244.0
 21
56.0
 31
0.0
  0
LINE
  5
2AF
100
AcDbEntity
100
AcDbLine
  8
0
 62
256
370
-1
  6
ByLayer
 10
-244.0
 20
56.0
 30
0.0
 11
-327.0
 21
56.0
 31
0.0
  0
LINE
  5
2B0
100
AcDbEntity
100
AcDbLine
  8
0
 62
256
370
-1
  6
ByLayer
 10
-327.0
 20
54.0
 30
0.0
 11
-244.0
 21
54.0
 31
0.0
  0
LINE
  5
2B1
100
AcDbEntity
100
AcDbLine
  8
0
 62
256
370
-1
  6
ByLayer
 10
-244.0
 20
48.0
 30
0.0
 11
-244.0
 21
46.0
 31
0.0
  0
LINE
  5
2B2
100
AcDbEntity
100
AcDbLine
  8
0
 62
256
370
-1
  6
ByLayer
 10
-244.0
 20
46.0
 30
0.0
 11
-327.0
 21
46.0
 31
0.0
  0
LINE
  5
2B3
100
AcDbEntity
100
AcDbLine
  8
0
 62
256
370
-1
  6
ByLayer
 10
-327.0
 20
48.0
 30
0.0
 11
-244.0
 21
48.0
 31
0.0
  0
DIMENSION
  5
2B4
100
AcDbEntity
  8
dimension
 62
256
370
-1
  6
ByLayer
100
AcDbDimension
 10
-200.0
 20
70.0
 30
0.0
 11
-250.0
 21
71.875
 31
0.0
 70
0
 71
5
 72
1
 41
1.0
 42
0.0
  1

  3
Standard
100
AcDbAlignedDimension
 13
-300.0
 23
70.0
 33
0.0
 14
-200.0
 24
70.0
 34
0.0
 50
0.0
100
AcDbRotatedDimension
  0
DIMENSION
  5
2B5
100
AcDbEntity
  8
dimension
 62
256
370
-1
  6
ByLayer
100
AcDbDimension
 10
49.0
 20
65.0
 30
0.0
 11
59.5
 21
66.875
 31
0.0
 70
0
 71
5
 72
1
 41
1.0
 42
0.0
  1

  3
Standard
100
AcDbAlignedDimension
 13
70.0
 23
48.0
 33
0.0
 14
49.0
 24
60.0
 34
0.0
 50
0.0
100
AcDbRotatedDimension
  0
DIMENSION
  5
2B6
100
AcDbEntity
  8
dimension
 62
256
370
-1
  6
ByLayer
100
AcDbDimension
 10
42.0
 20
74.9390587455942807
 30
0.0
 11
45.5
 21
76.8140587455942807
 31
0.0
 70
0
 71
5
 72
1
 41
1.0
 42
0.0
  1

  3
Standard
100
AcDbAlignedDimension
 13
49.0
 23
62.0
 33
0.0
 14
42.0
 24
49.5
 34
0.0
 50
0.0
100
AcDbRotatedDimension
  0
LINE
  5
2B7
100
AcDbEntity
100
AcDbLine
  8
help
 62
256
370
-1
  6
ByLayer
 10
-100.0
 20
-60.0
 30
0.0
 11
-50.0
 21
-60.0
 31
0.0
  0
LINE
  5
2B8
100
AcDbEntity
100
AcDbLine
  8
help
 62
256
370
-1
  6
ByLayer
 10
-50.0
 20
-60.0
 30
0.0
 11
-50.0
 21
-46.0
 31
0.0
  0
LINE
  5
2B9
100
AcDbEntity
100
AcDbLine
  8
help
 62
256
370
-1
  6
ByLayer
 10
-50.0
 20
-46.0
 30
0.0
 11
-100.0
 21
-46.0
 31
0.0
  0
LINE
  5
2BA
100
AcDbEntity
100
AcDbLine
  8
help
 62
256
370
-1
  6
ByLayer
 10
-100.0
 20
-46.0
 30
0.0
 11
-100.0
 21
-60.0
 31
0.0
  0
LINE
  5
2BB
100
AcDbEntity
100
AcDbLine
  8
help
 62
256
370
-1
  6
ByLayer
 10
-107.0
 20
-53.0
 30
0.0
 11
-44.0
 21
-53.0
 31
0.0
  0
LINE
  5
2BC
100
AcDbEntity
100
AcDbLine
  8
batteryholder
 62
256
370
-1
  6
ByLayer
 10
-103.0
 20
-60.0
 30
0.0
 11
-103.0
 21
-43.0
 31
0.0
  0
LINE
  5
2BD
100
AcDbEntity
100
AcDbLine
  8
batteryholder
 62
256
370
-1
  6
ByLayer
 10
-103.0
 20
-43.0
 30
0.0
 11
-106.0
 21
-43.0
 31
0.0
  0
LINE
  5
2BE
100
AcDbEntity
100
AcDbLine
  8
batteryholder
 62
256
370
-1
  6
ByLayer
 10
-115.8149545762236414
 20
-60.0
 30
0.0
 11
-106.0
 21
-43.0
 31
0.0
  0
CIRCLE
  5
2BF
100
AcDbEntity
100
AcDbCircle
  8
batteryholder
 62
256
370
-1
  6
ByLayer
 10
-44.5000000000000071
 20
-43.0000000000000071
 30
0.0
 40
1.0
  0
ARC
  5
2C0
100
AcDbEntity
  8
batteryholder
 62
256
370
-1
  6
ByLayer
100
AcDbCircle
 10
-38.5000000000000071
 20
-41.0000000000000071
 30
0.0
 40
3.999999999999996
100
AcDbArc
 50
270.0
 51
330.0
  0
LINE
  5
2C1
100
AcDbEntity
100
AcDbLine
  8
batteryholder
 62
256
370
-1
  6
ByLayer
 10
-38.5000000000000071
 20
-45.0000000000000071
 30
0.0
 11
-44.5000000000000071
 21
-45.0000000000000071
 31
0.0
  0
LINE
  5
2C2
100
AcDbEntity
100
AcDbLine
  8
batteryholder
 62
256
370
-1
  6
ByLayer
 10
-35.1519237886466911
 20
-35.2009618943233491
 30
0.0
 11
-31.6878221735089411
 21
-37.2009618943233491
 31
0.0
  0
LINE
  5
2C3
100
AcDbEntity
100
AcDbLine
  8
batteryholder
 62
256
370
-1
  6
ByLayer
 10
-38.5000000000000071
 20
-41.0000000000000071
 30
0.0
 11
-35.1519237886466911
 21
-35.2009618943233491
 31
0.0
  0
LINE
  5
2C4
100
AcDbEntity
100
AcDbLine
  8
batteryholder
 62
256
370
-1
  6
ByLayer
 10
-31.6878221735089411
 20
-37.2009618943233491
 30
0.0
 11
-35.0358983848622572
 21
-43.0000000000000071
 31
0.0
  0
LINE
  5
2C5
100
AcDbEntity
100
AcDbLine
  8
batteryholder
 62
256
370
-1
  6
ByLayer
 10
-42.0000000000000071
 20
-47.0000000000000142
 30
0.0
 11
-36.5000000000000071
 21
-47.0000000000000071
 31
0.0
  0
LINE
  5
2C6
100
AcDbEntity
100
AcDbLine
  8
batteryholder
 62
256
370
-1
  6
ByLayer
 10
-28.9944465005348704
 20
-60.0000000000000071
 30
0.0
 11
-36.5000000000000071
 21
-47.0000000000000071
 31
0.0
  0
LINE
  5
2C7
100
AcDbEntity
100
AcDbLine
  8
batteryholder
 62
256
370
-1
  6
ByLayer
 10
-37.5000000000000071
 20
-43.0000000000000071
 30
0.0
 11
-38.5000000000000071
 21
-43.0000000000000071
 31
0.0
  0
LINE
  5
2C8
100
AcDbEntity
100
AcDbLine
  8
batteryholder
 62
256
370
-1
  6
ByLayer
 10
-38.5000000000000071
 20
-43.0000000000000071
 30
0.0
 11
-38.5000000000000071
 21
-47.0000000000000071
 31
0.0
  0
LINE
  5
2C9
100
AcDbEntity
100
AcDbLine
  8
batteryholder
 62
256
370
-1
  6
ByLayer
 10
-37.5000000000000071
 20
-43.0000000000000071
 30
0.0
 11
-37.5000000000000071
 21
-47.0000000000000071
 31
0.0
  0
CIRCLE
  5
2CA
100
AcDbEntity
100
AcDbCircle
  8
help
 62
256
370
-1
  6
ByLayer
 10
-132.0
 20
-53.0
 30
0.0
 40
7.0
  0
DIMENSION
  5
2CB
100
AcDbEntity
  8
dimension
 62
256
370
-1
  6
ByLayer
100
AcDbDimension
 10
-103.0
 20
-40.0
 30
0.0
 11
-104.5
 21
-38.125
 31
0.0
 70
0
 71
5
 72
1
 41
1.0
 42
0.0
  1

  3
Standard
100
AcDbAlignedDimension
 13
-106.0
 23
-43.0
 33
0.0
 14
-103.0
 24
-43.0
 34
0.0
 50
0.0
100
AcDbRotatedDimension
  0
LINE
  5
2CC
100
AcDbEntity
100
AcDbLine
  8
dimension
 62
256
370
-1
  6
ByLayer
 10
-75.0
 20
-60.0
 30
0.0
 11
-75.0
 21
-46.0
 31
0.0
  0
LINE
  5
2CD
100
AcDbEntity
100
AcDbLine
  8
dimension
 62
256
370
-1
  6
ByLayer
 10
-80.0
 20
-60.0
 30
0.0
 11
-70.0
 21
-60.0
 31
0.0
  0
LINE
  5
2CE
100
AcDbEntity
100
AcDbLine
  8
batteryholder
 62
256
370
-1
  6
ByLayer
 10
-136.0
 20
-43.0
 30
0.0
 11
-128.0
 21
-43.0
 31
0.0
  0
LINE
  5
2CF
100
AcDbEntity
100
AcDbLine
  8
batteryholder
 62
256
370
-1
  6
ByLayer
 10
-115.8149545762236414
 20
-60.0
 30
0.0
 11
-115.8149545762236414
 21
-64.0
 31
0.0
  0
LINE
  5
2D0
100
AcDbEntity
100
AcDbLine
  8
batteryholder
 62
256
370
-1
  6
ByLayer
 10
-28.9944465005348704
 20
-60.0000000000000071
 30
0.0
 11
-28.9944465005348704
 21
-64.0
 31
0.0
  0
LINE
  5
2D1
100
AcDbEntity
100
AcDbLine
  8
batteryholder
 62
256
370
-1
  6
ByLayer
 10
-115.8149545762236414
 20
-64.0
 30
0.0
 11
-28.9944465005348704
 21
-64.0
 31
0.0
  0
LINE
  5
2D2
100
AcDbEntity
100
AcDbLine
  8
batteryholder
 62
256
370
-1
  6
ByLayer
 10
-103.0
 20
-60.0
 30
0.0
 11
-47.0000000000000071
 21
-60.0000000000000071
 31
0.0
  0
LINE
  5
2D3
100
AcDbEntity
100
AcDbLine
  8
batteryholder
 62
256
370
-1
  6
ByLayer
 10
-136.0
 20
-43.0
 30
0.0
 11
-136.0
 21
-64.0
 31
0.0
  0
LINE
  5
2D4
100
AcDbEntity
100
AcDbLine
  8
batteryholder
 62
256
370
-1
  6
ByLayer
 10
-136.0
 20
-64.0
 30
0.0
 11
-128.0
 21
-64.0
 31
0.0
  0
LINE
  5
2D5
100
AcDbEntity
100
AcDbLine
  8
batteryholder
 62
256
370
-1
  6
ByLayer
 10
-128.0
 20
-64.0
 30
0.0
 11
-128.0
 21
-43.0
 31
0.0
  0
LINE
  5
2D6
100
AcDbEntity
100
AcDbLine
  8
batteryholder
 62
256
370
-1
  6
ByLayer
 10
-136.0
 20
-60.0
 30
0.0
 11
-128.0
 21
-60.0
 31
0.0
  0
LINE
  5
2D7
100
AcDbEntity
100
AcDbLine
  8
batteryholder
 62
256
370
-1
  6
ByLayer
 10
-42.0000000000000071
 20
-47.0000000000000142
 30
0.0
 11
-42.0
 21
-40.0
 31
0.0
  0
LINE
  5
2D8
100
AcDbEntity
100
AcDbLine
  8
batteryholder
 62
256
370
-1
  6
ByLayer
 10
-42.0
 20
-40.0
 30
0.0
 11
-47.0
 21
-40.0
 31
0.0
  0
LINE
  5
2D9
100
AcDbEntity
100
AcDbLine
  8
batteryholder
 62
256
370
-1
  6
ByLayer
 10
-47.0
 20
-40.0
 30
0.0
 11
-47.0000000000000071
 21
-60.0000000000000071
 31
0.0
  0
LINE
  5
2DA
100
AcDbEntity
100
AcDbLine
  8
batteryholder
 62
256
370
-1
  6
ByLayer
 10
-22.0
 20
-64.0
 30
0.0
 11
-14.0
 21
-64.0
 31
0.0
  0
LINE
  5
2DB
100
AcDbEntity
100
AcDbLine
  8
batteryholder
 62
256
370
-1
  6
ByLayer
 10
-14.0
 20
-64.0
 30
0.0
 11
-14.0
 21
-40.0
 31
0.0
  0
LINE
  5
2DC
100
AcDbEntity
100
AcDbLine
  8
batteryholder
 62
256
370
-1
  6
ByLayer
 10
-22.0
 20
-40.0
 30
0.0
 11
-22.0
 21
-64.0
 31
0.0
  0
LINE
  5
2DD
100
AcDbEntity
100
AcDbLine
  8
batteryholder
 62
256
370
-1
  6
ByLayer
 10
-22.0
 20
-42.0
 30
0.0
 11
-14.0
 21
-42.0
 31
0.0
  0
LINE
  5
2DE
100
AcDbEntity
100
AcDbLine
  8
batteryholder
 62
256
370
-1
  6
ByLayer
 10
-22.0
 20
-44.0
 30
0.0
 11
-14.0
 21
-44.0
 31
0.0
  0
LINE
  5
2DF
100
AcDbEntity
100
AcDbLine
  8
batteryholder
 62
256
370
-1
  6
ByLayer
 10
-22.0
 20
-47.0
 30
0.0
 11
-14.0
 21
-47.0
 31
0.0
  0
LINE
  5
2E0
100
AcDbEntity
100
AcDbLine
  8
batteryholder
 62
256
370
-1
  6
ByLayer
 10
-22.0
 20
-60.0
 30
0.0
 11
-14.0
 21
-60.0
 31
0.0
  0
LINE
  5
2E1
100
AcDbEntity
100
AcDbLine
  8
help
 62
256
370
-1
  6
ByLayer
 10
-18.0
 20
-40.0
 30
0.0
 11
-18.0
 21
-64.0
 31
0.0
  0
LINE
  5
2E2
100
AcDbEntity
100
AcDbLine
  8
batteryholder
 62
256
370
-1
  6
ByLayer
 10
-22.0
 20
-40.0
 30
0.0
 11
-18.75
 21
-40.0
 31
0.0
  0
LINE
  5
2E3
100
AcDbEntity
100
AcDbLine
  8
batteryholder
 62
256
370
-1
  6
ByLayer
 10
-18.75
 20
-40.0
 30
0.0
 11
-18.75
 21
-47.0
 31
0.0
  0
LINE
  5
2E4
100
AcDbEntity
100
AcDbLine
  8
batteryholder
 62
256
370
-1
  6
ByLayer
 10
-18.75
 20
-47.0
 30
0.0
 11
-17.25
 21
-47.0
 31
0.0
  0
LINE
  5
2E5
100
AcDbEntity
100
AcDbLine
  8
batteryholder
 62
256
370
-1
  6
ByLayer
 10
-17.25
 20
-47.0
 30
0.0
 11
-17.25
 21
-40.0
 31
0.0
  0
LINE
  5
2E6
100
AcDbEntity
100
AcDbLine
  8
batteryholder
 62
256
370
-1
  6
ByLayer
 10
-17.25
 20
-40.0
 30
0.0
 11
-14.0
 21
-40.0
 31
0.0
  0
DIMENSION
  5
2E7
100
AcDbEntity
  8
dimension
 62
256
370
-1
  6
ByLayer
100
AcDbDimension
 10
-14.0
 20
-69.0
 30
0.0
 11
-18.0
 21
-67.125
 31
0.0
 70
0
 71
5
 72
1
 41
1.0
 42
0.0
  1

  3
Standard
100
AcDbAlignedDimension
 13
-22.0
 23
-64.0
 33
0.0
 14
-14.0
 24
-64.0
 34
0.0
 50
0.0
100
AcDbRotatedDimension
  0
DIMENSION
  5
2E8
100
AcDbEntity
  8
dimension
 62
256
370
-1
  6
ByLayer
100
AcDbDimension
 10
-18.75
 20
-38.0
 30
0.0
 11
-15.2083333333333321
 21
-36.125
 31
0.0
 70
0
 71
5
 72
1
 41
1.0
 42
0.0
  1

  3
Standard
100
AcDbAlignedDimension
 13
-22.0
 23
-40.0
 33
0.0
 14
-18.75
 24
-40.0
 34
0.0
 50
0.0
100
AcDbRotatedDimension
  0
DIMENSION
  5
2E9
100
AcDbEntity
  8
dimension
 62
256
370
-1
  6
ByLayer
100
AcDbDimension
 10
-7.0
 20
-64.0
 30
0.0
 11
-8.875
 21
-52.0
 31
0.0
 70
0
 71
5
 72
1
 41
1.0
 42
0.0
  1

  3
Standard
100
AcDbAlignedDimension
 13
-14.0
 23
-40.0
 33
0.0
 14
-14.0
 24
-64.0
 34
0.0
 50
90.0
100
AcDbRotatedDimension
  0
DIMENSION
  5
2EA
100
AcDbEntity
  8
dimension
 62
256
370
-1
  6
ByLayer
100
AcDbDimension
 10
-115.8149545762236414
 20
-75.960955001239796
 30
0.0
 11
-72.4047005383792737
 21
-74.085955001239796
 31
0.0
 70
0
 71
5
 72
1
 41
1.0
 42
0.0
  1

  3
Standard
100
AcDbAlignedDimension
 13
-28.9944465005348704
 23
-64.0
 33
0.0
 14
-115.8149545762236414
 24
-64.0
 34
0.0
 50
0.0
100
AcDbRotatedDimension
  0
DIMENSION
  5
2EB
100
AcDbEntity
  8
dimension
 62
256
370
-1
  6
ByLayer
100
AcDbDimension
 10
-115.8149545762236414
 20
-70.917977500619898
 30
0.0
 11
-109.4074772881118207
 21
-69.042977500619898
 31
0.0
 70
0
 71
5
 72
1
 41
1.0
 42
0.0
  1

  3
Standard
100
AcDbAlignedDimension
 13
-103.0
 23
-60.0
 33
0.0
 14
-115.8149545762236414
 24
-60.0
 34
0.0
 50
0.0
100
AcDbRotatedDimension
  0
DIMENSION
  5
2EC
100
AcDbEntity
  8
dimension
 62
256
370
-1
  6
ByLayer
100
AcDbDimension
 10
-28.9944465005348704
 20
-70.917977500619898
 30
0.0
 11
-37.9972232502674387
 21
-69.042977500619898
 31
0.0
 70
0
 71
5
 72
1
 41
1.0
 42
0.0
  1

  3
Standard
100
AcDbAlignedDimension
 13
-47.0000000000000071
 23
-60.0000000000000071
 33
0.0
 14
-28.9944465005348704
 24
-60.0000000000000071
 34
0.0
 50
0.0
100
AcDbRotatedDimension
  0
DIMENSION
  5
2ED
100
AcDbEntity
  8
dimension
 62
256
370
-1
  6
ByLayer
100
AcDbDimension
 10
-42.0
 20
-38.0
 30
0.0
 11
-44.5
 21
-36.125
 31
0.0
 70
0
 71
5
 72
1
 41
1.0
 42
0.0
  1

  3
Standard
100
AcDbAlignedDimension
 13
-47.0
 23
-40.0
 33
0.0
 14
-42.0
 24
-40.0
 34
0.0
 50
0.0
100
AcDbRotatedDimension
  0
DIMENSION
  5
2EE
100
AcDbEntity
  8
dimension
 62
256
370
-1
  6
ByLayer
100
AcDbDimension
 10
-36.5000000000000071
 20
-33.0
 30
0.0
 11
-39.2500000000000071
 21
-31.125
 31
0.0
 70
0
 71
5
 72
1
 41
1.0
 42
0.0
  1

  3
Standard
100
AcDbAlignedDimension
 13
-42.0000000000000071
 23
-47.0000000000000142
 33
0.0
 14
-36.5000000000000071
 24
-47.0000000000000071
 34
0.0
 50
0.0
100
AcDbRotatedDimension
  0
DIMENSION
  5
2EF
100
AcDbEntity
  8
dimension
 62
256
370
-1
  6
ByLayer
100
AcDbDimension
 10
-143.5932781066157702
 20
-64.0
 30
0.0
 11
-145.4682781066157702
 21
-53.5
 31
0.0
 70
0
 71
5
 72
1
 41
1.0
 42
0.0
  1

  3
Standard
100
AcDbAlignedDimension
 13
-136.0
 23
-43.0
 33
0.0
 14
-136.0
 24
-64.0
 34
0.0
 50
90.0
100
AcDbRotatedDimension
  0
DIMENSION
  5
2F0
100
AcDbEntity
  8
dimension
 62
256
370
-1
  6
ByLayer
100
AcDbDimension
 10
-120.0
 20
-60.0
 30
0.0
 11
-121.875
 21
-51.5
 31
0.0
 70
0
 71
5
 72
1
 41
1.0
 42
0.0
  1

  3
Standard
100
AcDbAlignedDimension
 13
-128.0
 23
-43.0
 33
0.0
 14
-128.0
 24
-60.0
 34
0.0
 50
90.0
100
AcDbRotatedDimension
  0
DIMENSION
  5
2F1
100
AcDbEntity
  8
dimension
 62
256
370
-1
  6
ByLayer
100
AcDbDimension
 10
-49.0
 20
-40.0
 30
0.0
 11
-50.875
 21
-41.5
 31
0.0
 70
0
 71
5
 72
1
 41
1.0
 42
0.0
  1

  3
Standard
100
AcDbAlignedDimension
 13
-44.5000000000000071
 23
-43.0000000000000071
 33
0.0
 14
-44.5
 24
-40.0
 34
0.0
 50
90.0
100
AcDbRotatedDimension
  0
LINE
  5
2F2
100
AcDbEntity
100
AcDbLine
  8
0
 62
256
370
-1
  6
ByLayer
 10
200.0
 20
-25.0
 30
0.0
 11
500.0
 21
-25.0
 31
0.0
  0
LINE
  5
2F3
100
AcDbEntity
100
AcDbLine
  8
0
 62
256
370
-1
  6
ByLayer
 10
500.0
 20
-25.0
 30
0.0
 11
500.0
 21
175.0
 31
0.0
  0
LINE
  5
2F4
100
AcDbEntity
100
AcDbLine
  8
0
 62
256
370
-1
  6
ByLayer
 10
500.0
 20
175.0
 30
0.0
 11
200.0
 21
175.0
 31
0.0
  0
LINE
  5
2F5
100
AcDbEntity
100
AcDbLine
  8
0
 62
256
370
-1
  6
ByLayer
 10
200.0
 20
175.0
 30
0.0
 11
200.0
 21
-25.0
 31
0.0
  0
DIMENSION
  5
2F6
100
AcDbEntity
  8
dimension
 62
256
370
-1
  6
ByLayer
100
AcDbDimension
 10
500.0
 20
80.0
 30
0.0
 11
487.5
 21
81.875
 31
0.0
 70
0
 71
5
 72
1
 41
1.0
 42
0.0
  1

  3
Standard
100
AcDbAlignedDimension
 13
475.0
 23
75.0
 33
0.0
 14
500.0
 24
75.0
 34
0.0
 50
0.0
100
AcDbRotatedDimension
  0
DIMENSION
  5
2F7
100
AcDbEntity
  8
dimension
 62
256
370
-1
  6
ByLayer
100
AcDbDimension
 10
200.0
 20
80.0
 30
0.0
 11
212.5
 21
81.875
 31
0.0
 70
0
 71
5
 72
1
 41
1.0
 42
0.0
  1

  3
Standard
100
AcDbAlignedDimension
 13
225.0
 23
75.0
 33
0.0
 14
200.0
 24
75.0
 34
0.0
 50
0.0
100
AcDbRotatedDimension
  0
DIMENSION
  5
2F8
100
AcDbEntity
  8
dimension
 62
256
370
-1
  6
ByLayer
100
AcDbDimension
 10
426.455403550620133
 20
175.0
 30
0.0
 11
424.580403550620133
 21
162.5
 31
0.0
 70
0
 71
5
 72
1
 41
1.0
 42
0.0
  1

  3
Standard
100
AcDbAlignedDimension
 13
400.0
 23
150.0
 33
0.0
 14
399.8435218937951277
 24
175.0
 34
0.0
 50
90.0
100
AcDbRotatedDimension
  0
DIMENSION
  5
2F9
100
AcDbEntity
  8
dimension
 62
256
370
-1
  6
ByLayer
100
AcDbDimension
 10
430.5026272192631041
 20
-25.0000000000000036
 30
0.0
 11
428.6276272192631041
 21
-12.4999999999999982
 31
0.0
 70
0
 71
5
 72
1
 41
1.0
 42
0.0
  1

  3
Standard
100
AcDbAlignedDimension
 13
400.0
 23
0.0
 33
0.0
 14
399.1782248523753083
 24
-25.0
 34
0.0
 50
90.0
100
AcDbRotatedDimension
  0
DIMENSION
  5
2FA
100
AcDbEntity
  8
dimension
 62
256
370
-1
  6
ByLayer
100
AcDbDimension
 10
520.0405207104560077
 20
-25.0000000000000036
 30
0.0
 11
518.1655207104560077
 21
75.0
 31
0.0
 70
0
 71
5
 72
1
 41
1.0
 42
0.0
  1

  3
Standard
100
AcDbAlignedDimension
 13
500.0
 23
175.0
 33
0.0
 14
500.0
 24
-25.0
 34
0.0
 50
90.0
100
AcDbRotatedDimension
  0
DIMENSION
  5
2FB
100
AcDbEntity
  8
dimension
 62
256
370
-1
  6
ByLayer
100
AcDbDimension
 10
500.0
 20
180.0
 30
0.0
 11
350.0
 21
181.875
 31
0.0
 70
0
 71
5
 72
1
 41
1.0
 42
0.0
  1

  3
Standard
100
AcDbAlignedDimension
 13
200.0
 23
175.0
 33
0.0
 14
500.0
 24
175.0
 34
0.0
 50
0.0
100
AcDbRotatedDimension
  0
LINE
  5
2FC
100
AcDbEntity
100
AcDbLine
  8
batteryholder
 62
256
370
-1
  6
ByLayer
 10
-43.9641016151377642
 20
-41.0000000000000071
 30
0.0
 11
-38.5000000000000071
 21
-41.0000000000000071
 31
0.0
  0
ARC
  5
2FD
100
AcDbEntity
  8
help
 62
256
370
-1
  6
ByLayer
100
AcDbCircle
 10
-103.5
 20
-53.0
 30
0.0
 40
3.5000000000000142
100
AcDbArc
 50
286.1759722193947368
 51
56.3099324740201581
  0
LINE
  5
2FE
100
AcDbEntity
100
AcDbLine
  8
help
 62
256
370
-1
  6
ByLayer
 10
-102.5
 20
-56.3541019662497149
 30
0.0
 11
-110.5
 21
-56.3541019662496936
 31
0.0
  0
ARC
  5
2FF
100
AcDbEntity
  8
help
 62
256
370
-1
  6
ByLayer
100
AcDbCircle
 10
-46.5
 20
-53.0
 30
0.0
 40
3.5000000000000142
100
AcDbArc
 50
123.6900675259798561
 51
253.8240277806052632
  0
LINE
  5
300
100
AcDbEntity
100
AcDbLine
  8
help
 62
256
370
-1
  6
ByLayer
 10
-47.5
 20
-56.3541019662497007
 30
0.0
 11
-39.5
 21
-56.3541019662497007
 31
0.0
  0
LINE
  5
301
100
AcDbEntity
100
AcDbLine
  8
batteryholder
 62
256
370
-1
  6
ByLayer
 10
-103.0
 20
-56.3541019662497149
 30
0.0
 11
-113.7099943649999858
 21
-56.3541019662497149
 31
0.0
  0
LINE
  5
302
100
AcDbEntity
100
AcDbLine
  8
batteryholder
 62
256
370
-1
  6
ByLayer
 10
-48.5267111917960889
 20
-39.5471417545881465
 30
0.0
 11
-43.9641016151377642
 21
-41.0000000000000071
 31
0.0
  0
ARC
  5
303
100
AcDbEntity
  8
batteryholder
 62
256
370
-1
  6
ByLayer
100
AcDbCircle
 10
-48.8301270189221981
 20
-40.5000000000000071
 30
0.0
 40
1.0000000000000002
100
AcDbArc
 50
72.3371183671788032
 51
226.7924063456011083
  0
LINE
  5
304
100
AcDbEntity
100
AcDbLine
  8
batteryholder
 62
256
370
-1
  6
ByLayer
 10
-49.5147707321644504
 20
-41.2288778950673915
 30
0.0
 11
-45.7886390473282532
 21
-44.7288778950673915
 31
0.0
  0
LINE
  5
305
100
AcDbEntity
100
AcDbLine
  8
batteryholder
 62
256
370
-1
  6
ByLayer
 10
-44.5000000000000071
 20
-45.0000000000000071
 30
0.0
 11
-45.103995334086008
 21
-45.0000000000000071
 31
0.0
  0
ARC
  5
306
100
AcDbEntity
  8
batteryholder
 62
256
370
-1
  6
ByLayer
100
AcDbCircle
 10
-45.103995334086008
 20
-44.0000000000000071
 30
0.0
 40
1.0
100
AcDbArc
 50
226.792406345601421
 51
270.0
  0
LINE
  5
307
100
AcDbEntity
100
AcDbLine
  8
batteryholder
 62
256
370
-1
  6
ByLayer
 10
-113.7099943649999858
 20
-56.3541019662497149
 30
0.0
 11
-118.7099943649999858
 21
-56.3541019662497149
 31
0.0
  0
DIMENSION
  5
308
100
AcDbEntity
  8
dimension
 62
256
370
-1
  6
ByLayer
100
AcDbDimension
 10
-103.0
 20
-55.0
 30
0.0
 11
-110.8549971825
 21
-53.125
 31
0.0
 70
0
 71
5
 72
1
 41
1.0
 42
0.0
  1

  3
Standard
100
AcDbAlignedDimension
 13
-118.7099943649999858
 23
-56.3541019662497149
 33
0.0
 14
-103.0
 24
-56.3541019662497149
 34
0.0
 50
0.0
100
AcDbRotatedDimension
  0
ENDSEC
  0
SECTION
  2
OBJECTS
  0
DICTIONARY
  5
C
100
AcDbDictionary
280
0
281
1
  3
ACAD_GROUP
350
D
  3
ACAD_LAYOUT
350
1A
  3
ACAD_MLINESTYLE
350
17
  3
ACAD_PLOTSETTINGS
350
19
  3
ACAD_PLOTSTYLENAME
350
E
  3
AcDbVariableDictionary
350
309
  0
DICTIONARY
  5
D
100
AcDbDictionary
280
0
281
1
  0
ACDBDICTIONARYWDFLT
  5
E
100
AcDbDictionary
281
1
  3
Normal
350
F
100
AcDbDictionaryWithDefault
340
F
  0
ACDBPLACEHOLDER
  5
F
  0
DICTIONARY
  5
17
100
AcDbDictionary
280
0
281
1
  3
Standard
350
18
  0
MLINESTYLE
  5
18
100
AcDbMlineStyle
  2
STANDARD
 70
0
  3

 62
256
 51
90.0
 52
90.0
 71
2
 49
0.5
 62
256
  6
BYLAYER
 49
-0.5
 62
256
  6
BYLAYER
  0
DICTIONARY
  5
19
100
AcDbDictionary
280
0
281
1
  0
DICTIONARY
  5
1A
100
AcDbDictionary
281
1
  3
Layout1
350
1E
  3
Layout2
350
26
  3
Model
350
22
  0
LAYOUT
  5
1E
100
AcDbPlotSettings
  1

  2
C:\Program Files\AutoCAD 2002\plotters\DWF ePlot (optimized for plotting).pc3
  4

  6

 40
0.0
 41
0.0
 42
0.0
 43
0.0
 44
0.0
 45
0.0
 46
0.0
 47
0.0
 48
0.0
 49
0.0
140
0.0
141
0.0
142
1.0
143
1.0
 70
688
 72
0
 73
0
 74
5
  7

 75
16
147
1.0
148
0.0
149
0.0
100
AcDbLayout
  1
Layout1
 70
1
 71
1
 10
0.0
 20
0.0
 11
420.0
 21
297.0
 12
0.0
 22
0.0
 32
0.0
 14
100000000000000000000.0
 24
100000000000000000000.0
 34
100000000000000000000.0
 15
-100000000000000000000.0
 25
-100000000000000000000.0
 35
-100000000000000000000.0
146
0.0
 13
0.0
 23
0.0
 33
0.0
 16
1.0
 26
0.0
 36
0.0
 17
0.0
 27
1.0
 37
0.0
 76
0
330
1B
  0
LAYOUT
  5
22
100
AcDbPlotSettings
  1

  2
C:\Program Files\AutoCAD 2002\plotters\DWF ePlot (optimized for plotting).pc3
  4

  6

 40
0.0
 41
0.0
 42
0.0
 43
0.0
 44
0.0
 45
0.0
 46
0.0
 47
0.0
 48
0.0
 49
0.0
140
0.0
141
0.0
142
1.0
143
1.0
 70
1712
 72
0
 73
0
 74
0
  7

 75
0
147
1.0
148
0.0
149
0.0
100
AcDbLayout
  1
Model
 70
1
 71
0
 10
0.0
 20
0.0
 11
12.0
 21
9.0
 12
0.0
 22
0.0
 32
0.0
 14
0.0
 24
0.0
 34
0.0
 15
0.0
 25
0.0
 35
0.0
146
0.0
 13
0.0
 23
0.0
 33
0.0
 16
1.0
 26
0.0
 36
0.0
 17
0.0
 27
1.0
 37
0.0
 76
0
330
1F
  0
LAYOUT
  5
26
100
AcDbPlotSettings
  1

  2
C:\Program Files\AutoCAD 2002\plotters\DWF ePlot (optimized for plotting).pc3
  4

  6

 40
0.0
 41
0.0
 42
0.0
 43
0.0
 44
0.0
 45
0.0
 46
0.0
 47
0.0
 48
0.0
 49
0.0
140
0.0
141
0.0
142
1.0
143
1.0
 70
688
 72
0
 73
0
 74
5
  7

 75
16
147
1.0
148
0.0
149
0.0
100
AcDbLayout
  1
Layout2
 70
1
 71
2
 10
0.0
 20
0.0
 11
12.0
 21
9.0
 12
0.0
 22
0.0
 32
0.0
 14
0.0
 24
0.0
 34
0.0
 15
0.0
 25
0.0
 35
0.0
146
0.0
 13
0.0
 23
0.0
 33
0.0
 16
1.0
 26
0.0
 36
0.0
 17
0.0
 27
1.0
 37
0.0
 76
0
330
23
  0
DICTIONARY
  5
309
100
AcDbDictionary
281
1
  3
DIMASSOC
350
30B
  3
HIDETEXT
350
30A
  0
DICTIONARYVAR
  5
30A
100
DictionaryVariables
280
0
  1
2
  0
DICTIONARYVAR
  5
30B
100
DictionaryVariables
280
0
  1
1
  0
ENDSEC
  0
EOF
